<?xml version="1.0" encoding="utf-8" standalone="no"?>
<!DOCTYPE svg PUBLIC "-//W3C//DTD SVG 1.1//EN"
  "http://www.w3.org/Graphics/SVG/1.1/DTD/svg11.dtd">
<svg xmlns:xlink="http://www.w3.org/1999/xlink" width="864pt" height="432pt" viewBox="0 0 864 432" xmlns="http://www.w3.org/2000/svg" version="1.1">
 <metadata>
  <rdf:RDF xmlns:dc="http://purl.org/dc/elements/1.1/" xmlns:cc="http://creativecommons.org/ns#" xmlns:rdf="http://www.w3.org/1999/02/22-rdf-syntax-ns#">
   <cc:Work>
    <dc:type rdf:resource="http://purl.org/dc/dcmitype/StillImage"/>
    <dc:date>2023-04-28T13:51:46.095954</dc:date>
    <dc:format>image/svg+xml</dc:format>
    <dc:creator>
     <cc:Agent>
      <dc:title>Matplotlib v3.7.1, https://matplotlib.org/</dc:title>
     </cc:Agent>
    </dc:creator>
   </cc:Work>
  </rdf:RDF>
 </metadata>
 <defs>
  <style type="text/css">*{stroke-linejoin: round; stroke-linecap: butt}</style>
 </defs>
 <g id="figure_1">
  <g id="patch_1">
   <path d="M 0 432 
L 864 432 
L 864 0 
L 0 0 
z
" style="fill: #ffffff"/>
  </g>
  <g id="axes_1">
   <g id="patch_2">
    <path d="M 53.84 387.16 
L 615.299545 387.16 
L 615.299545 10.8 
L 53.84 10.8 
z
" style="fill: #ffffff"/>
   </g>
   <g id="matplotlib.axis_1">
    <g id="xtick_1">
     <g id="text_1">
      <!-- 0-20% -->
      <g style="fill: #262626" transform="translate(107.924006 401.758438) scale(0.1 -0.1)">
       <defs>
        <path id="DejaVuSans-30" d="M 2034 4250 
Q 1547 4250 1301 3770 
Q 1056 3291 1056 2328 
Q 1056 1369 1301 889 
Q 1547 409 2034 409 
Q 2525 409 2770 889 
Q 3016 1369 3016 2328 
Q 3016 3291 2770 3770 
Q 2525 4250 2034 4250 
z
M 2034 4750 
Q 2819 4750 3233 4129 
Q 3647 3509 3647 2328 
Q 3647 1150 3233 529 
Q 2819 -91 2034 -91 
Q 1250 -91 836 529 
Q 422 1150 422 2328 
Q 422 3509 836 4129 
Q 1250 4750 2034 4750 
z
" transform="scale(0.015625)"/>
        <path id="DejaVuSans-2d" d="M 313 2009 
L 1997 2009 
L 1997 1497 
L 313 1497 
L 313 2009 
z
" transform="scale(0.015625)"/>
        <path id="DejaVuSans-32" d="M 1228 531 
L 3431 531 
L 3431 0 
L 469 0 
L 469 531 
Q 828 903 1448 1529 
Q 2069 2156 2228 2338 
Q 2531 2678 2651 2914 
Q 2772 3150 2772 3378 
Q 2772 3750 2511 3984 
Q 2250 4219 1831 4219 
Q 1534 4219 1204 4116 
Q 875 4013 500 3803 
L 500 4441 
Q 881 4594 1212 4672 
Q 1544 4750 1819 4750 
Q 2544 4750 2975 4387 
Q 3406 4025 3406 3419 
Q 3406 3131 3298 2873 
Q 3191 2616 2906 2266 
Q 2828 2175 2409 1742 
Q 1991 1309 1228 531 
z
" transform="scale(0.015625)"/>
        <path id="DejaVuSans-25" d="M 4653 2053 
Q 4381 2053 4226 1822 
Q 4072 1591 4072 1178 
Q 4072 772 4226 539 
Q 4381 306 4653 306 
Q 4919 306 5073 539 
Q 5228 772 5228 1178 
Q 5228 1588 5073 1820 
Q 4919 2053 4653 2053 
z
M 4653 2450 
Q 5147 2450 5437 2106 
Q 5728 1763 5728 1178 
Q 5728 594 5436 251 
Q 5144 -91 4653 -91 
Q 4153 -91 3862 251 
Q 3572 594 3572 1178 
Q 3572 1766 3864 2108 
Q 4156 2450 4653 2450 
z
M 1428 4353 
Q 1159 4353 1004 4120 
Q 850 3888 850 3481 
Q 850 3069 1003 2837 
Q 1156 2606 1428 2606 
Q 1700 2606 1854 2837 
Q 2009 3069 2009 3481 
Q 2009 3884 1853 4118 
Q 1697 4353 1428 4353 
z
M 4250 4750 
L 4750 4750 
L 1831 -91 
L 1331 -91 
L 4250 4750 
z
M 1428 4750 
Q 1922 4750 2215 4408 
Q 2509 4066 2509 3481 
Q 2509 2891 2217 2550 
Q 1925 2209 1428 2209 
Q 931 2209 642 2551 
Q 353 2894 353 3481 
Q 353 4063 643 4406 
Q 934 4750 1428 4750 
z
" transform="scale(0.015625)"/>
       </defs>
       <use xlink:href="#DejaVuSans-30"/>
       <use xlink:href="#DejaVuSans-2d" x="63.623047"/>
       <use xlink:href="#DejaVuSans-32" x="99.707031"/>
       <use xlink:href="#DejaVuSans-30" x="163.330078"/>
       <use xlink:href="#DejaVuSans-25" x="226.953125"/>
      </g>
     </g>
    </g>
    <g id="xtick_2">
     <g id="text_2">
      <!-- 20-40% -->
      <g style="fill: #262626" transform="translate(245.107642 401.758438) scale(0.1 -0.1)">
       <defs>
        <path id="DejaVuSans-34" d="M 2419 4116 
L 825 1625 
L 2419 1625 
L 2419 4116 
z
M 2253 4666 
L 3047 4666 
L 3047 1625 
L 3713 1625 
L 3713 1100 
L 3047 1100 
L 3047 0 
L 2419 0 
L 2419 1100 
L 313 1100 
L 313 1709 
L 2253 4666 
z
" transform="scale(0.015625)"/>
       </defs>
       <use xlink:href="#DejaVuSans-32"/>
       <use xlink:href="#DejaVuSans-30" x="63.623047"/>
       <use xlink:href="#DejaVuSans-2d" x="127.246094"/>
       <use xlink:href="#DejaVuSans-34" x="163.330078"/>
       <use xlink:href="#DejaVuSans-30" x="226.953125"/>
       <use xlink:href="#DejaVuSans-25" x="290.576172"/>
      </g>
     </g>
    </g>
    <g id="xtick_3">
     <g id="text_3">
      <!-- 40-60% -->
      <g style="fill: #262626" transform="translate(385.472528 401.758438) scale(0.1 -0.1)">
       <defs>
        <path id="DejaVuSans-36" d="M 2113 2584 
Q 1688 2584 1439 2293 
Q 1191 2003 1191 1497 
Q 1191 994 1439 701 
Q 1688 409 2113 409 
Q 2538 409 2786 701 
Q 3034 994 3034 1497 
Q 3034 2003 2786 2293 
Q 2538 2584 2113 2584 
z
M 3366 4563 
L 3366 3988 
Q 3128 4100 2886 4159 
Q 2644 4219 2406 4219 
Q 1781 4219 1451 3797 
Q 1122 3375 1075 2522 
Q 1259 2794 1537 2939 
Q 1816 3084 2150 3084 
Q 2853 3084 3261 2657 
Q 3669 2231 3669 1497 
Q 3669 778 3244 343 
Q 2819 -91 2113 -91 
Q 1303 -91 875 529 
Q 447 1150 447 2328 
Q 447 3434 972 4092 
Q 1497 4750 2381 4750 
Q 2619 4750 2861 4703 
Q 3103 4656 3366 4563 
z
" transform="scale(0.015625)"/>
       </defs>
       <use xlink:href="#DejaVuSans-34"/>
       <use xlink:href="#DejaVuSans-30" x="63.623047"/>
       <use xlink:href="#DejaVuSans-2d" x="127.246094"/>
       <use xlink:href="#DejaVuSans-36" x="163.330078"/>
       <use xlink:href="#DejaVuSans-30" x="226.953125"/>
       <use xlink:href="#DejaVuSans-25" x="290.576172"/>
      </g>
     </g>
    </g>
    <g id="xtick_4">
     <g id="text_4">
      <!-- 80-100% -->
      <g style="fill: #262626" transform="translate(522.656165 401.758438) scale(0.1 -0.1)">
       <defs>
        <path id="DejaVuSans-38" d="M 2034 2216 
Q 1584 2216 1326 1975 
Q 1069 1734 1069 1313 
Q 1069 891 1326 650 
Q 1584 409 2034 409 
Q 2484 409 2743 651 
Q 3003 894 3003 1313 
Q 3003 1734 2745 1975 
Q 2488 2216 2034 2216 
z
M 1403 2484 
Q 997 2584 770 2862 
Q 544 3141 544 3541 
Q 544 4100 942 4425 
Q 1341 4750 2034 4750 
Q 2731 4750 3128 4425 
Q 3525 4100 3525 3541 
Q 3525 3141 3298 2862 
Q 3072 2584 2669 2484 
Q 3125 2378 3379 2068 
Q 3634 1759 3634 1313 
Q 3634 634 3220 271 
Q 2806 -91 2034 -91 
Q 1263 -91 848 271 
Q 434 634 434 1313 
Q 434 1759 690 2068 
Q 947 2378 1403 2484 
z
M 1172 3481 
Q 1172 3119 1398 2916 
Q 1625 2713 2034 2713 
Q 2441 2713 2670 2916 
Q 2900 3119 2900 3481 
Q 2900 3844 2670 4047 
Q 2441 4250 2034 4250 
Q 1625 4250 1398 4047 
Q 1172 3844 1172 3481 
z
" transform="scale(0.015625)"/>
        <path id="DejaVuSans-31" d="M 794 531 
L 1825 531 
L 1825 4091 
L 703 3866 
L 703 4441 
L 1819 4666 
L 2450 4666 
L 2450 531 
L 3481 531 
L 3481 0 
L 794 0 
L 794 531 
z
" transform="scale(0.015625)"/>
       </defs>
       <use xlink:href="#DejaVuSans-38"/>
       <use xlink:href="#DejaVuSans-30" x="63.623047"/>
       <use xlink:href="#DejaVuSans-2d" x="127.246094"/>
       <use xlink:href="#DejaVuSans-31" x="163.330078"/>
       <use xlink:href="#DejaVuSans-30" x="226.953125"/>
       <use xlink:href="#DejaVuSans-30" x="290.576172"/>
       <use xlink:href="#DejaVuSans-25" x="354.199219"/>
      </g>
     </g>
    </g>
    <g id="text_5">
     <!-- Percentage Reduction Range -->
     <g style="fill: #262626" transform="translate(248.000085 416.95625) scale(0.12 -0.12)">
      <defs>
       <path id="DejaVuSans-50" d="M 1259 4147 
L 1259 2394 
L 2053 2394 
Q 2494 2394 2734 2622 
Q 2975 2850 2975 3272 
Q 2975 3691 2734 3919 
Q 2494 4147 2053 4147 
L 1259 4147 
z
M 628 4666 
L 2053 4666 
Q 2838 4666 3239 4311 
Q 3641 3956 3641 3272 
Q 3641 2581 3239 2228 
Q 2838 1875 2053 1875 
L 1259 1875 
L 1259 0 
L 628 0 
L 628 4666 
z
" transform="scale(0.015625)"/>
       <path id="DejaVuSans-65" d="M 3597 1894 
L 3597 1613 
L 953 1613 
Q 991 1019 1311 708 
Q 1631 397 2203 397 
Q 2534 397 2845 478 
Q 3156 559 3463 722 
L 3463 178 
Q 3153 47 2828 -22 
Q 2503 -91 2169 -91 
Q 1331 -91 842 396 
Q 353 884 353 1716 
Q 353 2575 817 3079 
Q 1281 3584 2069 3584 
Q 2775 3584 3186 3129 
Q 3597 2675 3597 1894 
z
M 3022 2063 
Q 3016 2534 2758 2815 
Q 2500 3097 2075 3097 
Q 1594 3097 1305 2825 
Q 1016 2553 972 2059 
L 3022 2063 
z
" transform="scale(0.015625)"/>
       <path id="DejaVuSans-72" d="M 2631 2963 
Q 2534 3019 2420 3045 
Q 2306 3072 2169 3072 
Q 1681 3072 1420 2755 
Q 1159 2438 1159 1844 
L 1159 0 
L 581 0 
L 581 3500 
L 1159 3500 
L 1159 2956 
Q 1341 3275 1631 3429 
Q 1922 3584 2338 3584 
Q 2397 3584 2469 3576 
Q 2541 3569 2628 3553 
L 2631 2963 
z
" transform="scale(0.015625)"/>
       <path id="DejaVuSans-63" d="M 3122 3366 
L 3122 2828 
Q 2878 2963 2633 3030 
Q 2388 3097 2138 3097 
Q 1578 3097 1268 2742 
Q 959 2388 959 1747 
Q 959 1106 1268 751 
Q 1578 397 2138 397 
Q 2388 397 2633 464 
Q 2878 531 3122 666 
L 3122 134 
Q 2881 22 2623 -34 
Q 2366 -91 2075 -91 
Q 1284 -91 818 406 
Q 353 903 353 1747 
Q 353 2603 823 3093 
Q 1294 3584 2113 3584 
Q 2378 3584 2631 3529 
Q 2884 3475 3122 3366 
z
" transform="scale(0.015625)"/>
       <path id="DejaVuSans-6e" d="M 3513 2113 
L 3513 0 
L 2938 0 
L 2938 2094 
Q 2938 2591 2744 2837 
Q 2550 3084 2163 3084 
Q 1697 3084 1428 2787 
Q 1159 2491 1159 1978 
L 1159 0 
L 581 0 
L 581 3500 
L 1159 3500 
L 1159 2956 
Q 1366 3272 1645 3428 
Q 1925 3584 2291 3584 
Q 2894 3584 3203 3211 
Q 3513 2838 3513 2113 
z
" transform="scale(0.015625)"/>
       <path id="DejaVuSans-74" d="M 1172 4494 
L 1172 3500 
L 2356 3500 
L 2356 3053 
L 1172 3053 
L 1172 1153 
Q 1172 725 1289 603 
Q 1406 481 1766 481 
L 2356 481 
L 2356 0 
L 1766 0 
Q 1100 0 847 248 
Q 594 497 594 1153 
L 594 3053 
L 172 3053 
L 172 3500 
L 594 3500 
L 594 4494 
L 1172 4494 
z
" transform="scale(0.015625)"/>
       <path id="DejaVuSans-61" d="M 2194 1759 
Q 1497 1759 1228 1600 
Q 959 1441 959 1056 
Q 959 750 1161 570 
Q 1363 391 1709 391 
Q 2188 391 2477 730 
Q 2766 1069 2766 1631 
L 2766 1759 
L 2194 1759 
z
M 3341 1997 
L 3341 0 
L 2766 0 
L 2766 531 
Q 2569 213 2275 61 
Q 1981 -91 1556 -91 
Q 1019 -91 701 211 
Q 384 513 384 1019 
Q 384 1609 779 1909 
Q 1175 2209 1959 2209 
L 2766 2209 
L 2766 2266 
Q 2766 2663 2505 2880 
Q 2244 3097 1772 3097 
Q 1472 3097 1187 3025 
Q 903 2953 641 2809 
L 641 3341 
Q 956 3463 1253 3523 
Q 1550 3584 1831 3584 
Q 2591 3584 2966 3190 
Q 3341 2797 3341 1997 
z
" transform="scale(0.015625)"/>
       <path id="DejaVuSans-67" d="M 2906 1791 
Q 2906 2416 2648 2759 
Q 2391 3103 1925 3103 
Q 1463 3103 1205 2759 
Q 947 2416 947 1791 
Q 947 1169 1205 825 
Q 1463 481 1925 481 
Q 2391 481 2648 825 
Q 2906 1169 2906 1791 
z
M 3481 434 
Q 3481 -459 3084 -895 
Q 2688 -1331 1869 -1331 
Q 1566 -1331 1297 -1286 
Q 1028 -1241 775 -1147 
L 775 -588 
Q 1028 -725 1275 -790 
Q 1522 -856 1778 -856 
Q 2344 -856 2625 -561 
Q 2906 -266 2906 331 
L 2906 616 
Q 2728 306 2450 153 
Q 2172 0 1784 0 
Q 1141 0 747 490 
Q 353 981 353 1791 
Q 353 2603 747 3093 
Q 1141 3584 1784 3584 
Q 2172 3584 2450 3431 
Q 2728 3278 2906 2969 
L 2906 3500 
L 3481 3500 
L 3481 434 
z
" transform="scale(0.015625)"/>
       <path id="DejaVuSans-20" transform="scale(0.015625)"/>
       <path id="DejaVuSans-52" d="M 2841 2188 
Q 3044 2119 3236 1894 
Q 3428 1669 3622 1275 
L 4263 0 
L 3584 0 
L 2988 1197 
Q 2756 1666 2539 1819 
Q 2322 1972 1947 1972 
L 1259 1972 
L 1259 0 
L 628 0 
L 628 4666 
L 2053 4666 
Q 2853 4666 3247 4331 
Q 3641 3997 3641 3322 
Q 3641 2881 3436 2590 
Q 3231 2300 2841 2188 
z
M 1259 4147 
L 1259 2491 
L 2053 2491 
Q 2509 2491 2742 2702 
Q 2975 2913 2975 3322 
Q 2975 3731 2742 3939 
Q 2509 4147 2053 4147 
L 1259 4147 
z
" transform="scale(0.015625)"/>
       <path id="DejaVuSans-64" d="M 2906 2969 
L 2906 4863 
L 3481 4863 
L 3481 0 
L 2906 0 
L 2906 525 
Q 2725 213 2448 61 
Q 2172 -91 1784 -91 
Q 1150 -91 751 415 
Q 353 922 353 1747 
Q 353 2572 751 3078 
Q 1150 3584 1784 3584 
Q 2172 3584 2448 3432 
Q 2725 3281 2906 2969 
z
M 947 1747 
Q 947 1113 1208 752 
Q 1469 391 1925 391 
Q 2381 391 2643 752 
Q 2906 1113 2906 1747 
Q 2906 2381 2643 2742 
Q 2381 3103 1925 3103 
Q 1469 3103 1208 2742 
Q 947 2381 947 1747 
z
" transform="scale(0.015625)"/>
       <path id="DejaVuSans-75" d="M 544 1381 
L 544 3500 
L 1119 3500 
L 1119 1403 
Q 1119 906 1312 657 
Q 1506 409 1894 409 
Q 2359 409 2629 706 
Q 2900 1003 2900 1516 
L 2900 3500 
L 3475 3500 
L 3475 0 
L 2900 0 
L 2900 538 
Q 2691 219 2414 64 
Q 2138 -91 1772 -91 
Q 1169 -91 856 284 
Q 544 659 544 1381 
z
M 1991 3584 
L 1991 3584 
z
" transform="scale(0.015625)"/>
       <path id="DejaVuSans-69" d="M 603 3500 
L 1178 3500 
L 1178 0 
L 603 0 
L 603 3500 
z
M 603 4863 
L 1178 4863 
L 1178 4134 
L 603 4134 
L 603 4863 
z
" transform="scale(0.015625)"/>
       <path id="DejaVuSans-6f" d="M 1959 3097 
Q 1497 3097 1228 2736 
Q 959 2375 959 1747 
Q 959 1119 1226 758 
Q 1494 397 1959 397 
Q 2419 397 2687 759 
Q 2956 1122 2956 1747 
Q 2956 2369 2687 2733 
Q 2419 3097 1959 3097 
z
M 1959 3584 
Q 2709 3584 3137 3096 
Q 3566 2609 3566 1747 
Q 3566 888 3137 398 
Q 2709 -91 1959 -91 
Q 1206 -91 779 398 
Q 353 888 353 1747 
Q 353 2609 779 3096 
Q 1206 3584 1959 3584 
z
" transform="scale(0.015625)"/>
      </defs>
      <use xlink:href="#DejaVuSans-50"/>
      <use xlink:href="#DejaVuSans-65" x="56.677734"/>
      <use xlink:href="#DejaVuSans-72" x="118.201172"/>
      <use xlink:href="#DejaVuSans-63" x="157.064453"/>
      <use xlink:href="#DejaVuSans-65" x="212.044922"/>
      <use xlink:href="#DejaVuSans-6e" x="273.568359"/>
      <use xlink:href="#DejaVuSans-74" x="336.947266"/>
      <use xlink:href="#DejaVuSans-61" x="376.15625"/>
      <use xlink:href="#DejaVuSans-67" x="437.435547"/>
      <use xlink:href="#DejaVuSans-65" x="500.912109"/>
      <use xlink:href="#DejaVuSans-20" x="562.435547"/>
      <use xlink:href="#DejaVuSans-52" x="594.222656"/>
      <use xlink:href="#DejaVuSans-65" x="659.205078"/>
      <use xlink:href="#DejaVuSans-64" x="720.728516"/>
      <use xlink:href="#DejaVuSans-75" x="784.205078"/>
      <use xlink:href="#DejaVuSans-63" x="847.583984"/>
      <use xlink:href="#DejaVuSans-74" x="902.564453"/>
      <use xlink:href="#DejaVuSans-69" x="941.773438"/>
      <use xlink:href="#DejaVuSans-6f" x="969.556641"/>
      <use xlink:href="#DejaVuSans-6e" x="1030.738281"/>
      <use xlink:href="#DejaVuSans-20" x="1094.117188"/>
      <use xlink:href="#DejaVuSans-52" x="1125.904297"/>
      <use xlink:href="#DejaVuSans-61" x="1193.136719"/>
      <use xlink:href="#DejaVuSans-6e" x="1254.416016"/>
      <use xlink:href="#DejaVuSans-67" x="1317.794922"/>
      <use xlink:href="#DejaVuSans-65" x="1381.271484"/>
     </g>
    </g>
   </g>
   <g id="matplotlib.axis_2">
    <g id="ytick_1">
     <g id="line2d_1">
      <path d="M 53.84 385.630223 
L 615.299545 385.630223 
" clip-path="url(#p976c976be1)" style="fill: none; stroke: #cccccc; stroke-width: 0.8; stroke-linecap: round"/>
     </g>
     <g id="text_6">
      <!-- 0 -->
      <g style="fill: #262626" transform="translate(40.4775 389.429442) scale(0.1 -0.1)">
       <use xlink:href="#DejaVuSans-30"/>
      </g>
     </g>
    </g>
    <g id="ytick_2">
     <g id="line2d_2">
      <path d="M 53.84 340.814533 
L 615.299545 340.814533 
" clip-path="url(#p976c976be1)" style="fill: none; stroke: #cccccc; stroke-width: 0.8; stroke-linecap: round"/>
     </g>
     <g id="text_7">
      <!-- 20 -->
      <g style="fill: #262626" transform="translate(34.115 344.613751) scale(0.1 -0.1)">
       <use xlink:href="#DejaVuSans-32"/>
       <use xlink:href="#DejaVuSans-30" x="63.623047"/>
      </g>
     </g>
    </g>
    <g id="ytick_3">
     <g id="line2d_3">
      <path d="M 53.84 295.998842 
L 615.299545 295.998842 
" clip-path="url(#p976c976be1)" style="fill: none; stroke: #cccccc; stroke-width: 0.8; stroke-linecap: round"/>
     </g>
     <g id="text_8">
      <!-- 40 -->
      <g style="fill: #262626" transform="translate(34.115 299.798061) scale(0.1 -0.1)">
       <use xlink:href="#DejaVuSans-34"/>
       <use xlink:href="#DejaVuSans-30" x="63.623047"/>
      </g>
     </g>
    </g>
    <g id="ytick_4">
     <g id="line2d_4">
      <path d="M 53.84 251.183151 
L 615.299545 251.183151 
" clip-path="url(#p976c976be1)" style="fill: none; stroke: #cccccc; stroke-width: 0.8; stroke-linecap: round"/>
     </g>
     <g id="text_9">
      <!-- 60 -->
      <g style="fill: #262626" transform="translate(34.115 254.98237) scale(0.1 -0.1)">
       <use xlink:href="#DejaVuSans-36"/>
       <use xlink:href="#DejaVuSans-30" x="63.623047"/>
      </g>
     </g>
    </g>
    <g id="ytick_5">
     <g id="line2d_5">
      <path d="M 53.84 206.36746 
L 615.299545 206.36746 
" clip-path="url(#p976c976be1)" style="fill: none; stroke: #cccccc; stroke-width: 0.8; stroke-linecap: round"/>
     </g>
     <g id="text_10">
      <!-- 80 -->
      <g style="fill: #262626" transform="translate(34.115 210.166679) scale(0.1 -0.1)">
       <use xlink:href="#DejaVuSans-38"/>
       <use xlink:href="#DejaVuSans-30" x="63.623047"/>
      </g>
     </g>
    </g>
    <g id="ytick_6">
     <g id="line2d_6">
      <path d="M 53.84 161.55177 
L 615.299545 161.55177 
" clip-path="url(#p976c976be1)" style="fill: none; stroke: #cccccc; stroke-width: 0.8; stroke-linecap: round"/>
     </g>
     <g id="text_11">
      <!-- 100 -->
      <g style="fill: #262626" transform="translate(27.7525 165.350989) scale(0.1 -0.1)">
       <use xlink:href="#DejaVuSans-31"/>
       <use xlink:href="#DejaVuSans-30" x="63.623047"/>
       <use xlink:href="#DejaVuSans-30" x="127.246094"/>
      </g>
     </g>
    </g>
    <g id="ytick_7">
     <g id="line2d_7">
      <path d="M 53.84 116.736079 
L 615.299545 116.736079 
" clip-path="url(#p976c976be1)" style="fill: none; stroke: #cccccc; stroke-width: 0.8; stroke-linecap: round"/>
     </g>
     <g id="text_12">
      <!-- 120 -->
      <g style="fill: #262626" transform="translate(27.7525 120.535298) scale(0.1 -0.1)">
       <use xlink:href="#DejaVuSans-31"/>
       <use xlink:href="#DejaVuSans-32" x="63.623047"/>
       <use xlink:href="#DejaVuSans-30" x="127.246094"/>
      </g>
     </g>
    </g>
    <g id="ytick_8">
     <g id="line2d_8">
      <path d="M 53.84 71.920388 
L 615.299545 71.920388 
" clip-path="url(#p976c976be1)" style="fill: none; stroke: #cccccc; stroke-width: 0.8; stroke-linecap: round"/>
     </g>
     <g id="text_13">
      <!-- 140 -->
      <g style="fill: #262626" transform="translate(27.7525 75.719607) scale(0.1 -0.1)">
       <use xlink:href="#DejaVuSans-31"/>
       <use xlink:href="#DejaVuSans-34" x="63.623047"/>
       <use xlink:href="#DejaVuSans-30" x="127.246094"/>
      </g>
     </g>
    </g>
    <g id="ytick_9">
     <g id="line2d_9">
      <path d="M 53.84 27.104698 
L 615.299545 27.104698 
" clip-path="url(#p976c976be1)" style="fill: none; stroke: #cccccc; stroke-width: 0.8; stroke-linecap: round"/>
     </g>
     <g id="text_14">
      <!-- 160 -->
      <g style="fill: #262626" transform="translate(27.7525 30.903916) scale(0.1 -0.1)">
       <use xlink:href="#DejaVuSans-31"/>
       <use xlink:href="#DejaVuSans-36" x="63.623047"/>
       <use xlink:href="#DejaVuSans-30" x="127.246094"/>
      </g>
     </g>
    </g>
    <g id="text_15">
     <!-- Video Length [# frames] -->
     <g style="fill: #262626" transform="translate(21.256875 272.8325) rotate(-90) scale(0.12 -0.12)">
      <defs>
       <path id="DejaVuSans-56" d="M 1831 0 
L 50 4666 
L 709 4666 
L 2188 738 
L 3669 4666 
L 4325 4666 
L 2547 0 
L 1831 0 
z
" transform="scale(0.015625)"/>
       <path id="DejaVuSans-4c" d="M 628 4666 
L 1259 4666 
L 1259 531 
L 3531 531 
L 3531 0 
L 628 0 
L 628 4666 
z
" transform="scale(0.015625)"/>
       <path id="DejaVuSans-68" d="M 3513 2113 
L 3513 0 
L 2938 0 
L 2938 2094 
Q 2938 2591 2744 2837 
Q 2550 3084 2163 3084 
Q 1697 3084 1428 2787 
Q 1159 2491 1159 1978 
L 1159 0 
L 581 0 
L 581 4863 
L 1159 4863 
L 1159 2956 
Q 1366 3272 1645 3428 
Q 1925 3584 2291 3584 
Q 2894 3584 3203 3211 
Q 3513 2838 3513 2113 
z
" transform="scale(0.015625)"/>
       <path id="DejaVuSans-5b" d="M 550 4863 
L 1875 4863 
L 1875 4416 
L 1125 4416 
L 1125 -397 
L 1875 -397 
L 1875 -844 
L 550 -844 
L 550 4863 
z
" transform="scale(0.015625)"/>
       <path id="DejaVuSans-23" d="M 3272 2816 
L 2363 2816 
L 2100 1772 
L 3016 1772 
L 3272 2816 
z
M 2803 4594 
L 2478 3297 
L 3391 3297 
L 3719 4594 
L 4219 4594 
L 3897 3297 
L 4872 3297 
L 4872 2816 
L 3775 2816 
L 3519 1772 
L 4513 1772 
L 4513 1294 
L 3397 1294 
L 3072 0 
L 2572 0 
L 2894 1294 
L 1978 1294 
L 1656 0 
L 1153 0 
L 1478 1294 
L 494 1294 
L 494 1772 
L 1594 1772 
L 1856 2816 
L 850 2816 
L 850 3297 
L 1978 3297 
L 2297 4594 
L 2803 4594 
z
" transform="scale(0.015625)"/>
       <path id="DejaVuSans-66" d="M 2375 4863 
L 2375 4384 
L 1825 4384 
Q 1516 4384 1395 4259 
Q 1275 4134 1275 3809 
L 1275 3500 
L 2222 3500 
L 2222 3053 
L 1275 3053 
L 1275 0 
L 697 0 
L 697 3053 
L 147 3053 
L 147 3500 
L 697 3500 
L 697 3744 
Q 697 4328 969 4595 
Q 1241 4863 1831 4863 
L 2375 4863 
z
" transform="scale(0.015625)"/>
       <path id="DejaVuSans-6d" d="M 3328 2828 
Q 3544 3216 3844 3400 
Q 4144 3584 4550 3584 
Q 5097 3584 5394 3201 
Q 5691 2819 5691 2113 
L 5691 0 
L 5113 0 
L 5113 2094 
Q 5113 2597 4934 2840 
Q 4756 3084 4391 3084 
Q 3944 3084 3684 2787 
Q 3425 2491 3425 1978 
L 3425 0 
L 2847 0 
L 2847 2094 
Q 2847 2600 2669 2842 
Q 2491 3084 2119 3084 
Q 1678 3084 1418 2786 
Q 1159 2488 1159 1978 
L 1159 0 
L 581 0 
L 581 3500 
L 1159 3500 
L 1159 2956 
Q 1356 3278 1631 3431 
Q 1906 3584 2284 3584 
Q 2666 3584 2933 3390 
Q 3200 3197 3328 2828 
z
" transform="scale(0.015625)"/>
       <path id="DejaVuSans-73" d="M 2834 3397 
L 2834 2853 
Q 2591 2978 2328 3040 
Q 2066 3103 1784 3103 
Q 1356 3103 1142 2972 
Q 928 2841 928 2578 
Q 928 2378 1081 2264 
Q 1234 2150 1697 2047 
L 1894 2003 
Q 2506 1872 2764 1633 
Q 3022 1394 3022 966 
Q 3022 478 2636 193 
Q 2250 -91 1575 -91 
Q 1294 -91 989 -36 
Q 684 19 347 128 
L 347 722 
Q 666 556 975 473 
Q 1284 391 1588 391 
Q 1994 391 2212 530 
Q 2431 669 2431 922 
Q 2431 1156 2273 1281 
Q 2116 1406 1581 1522 
L 1381 1569 
Q 847 1681 609 1914 
Q 372 2147 372 2553 
Q 372 3047 722 3315 
Q 1072 3584 1716 3584 
Q 2034 3584 2315 3537 
Q 2597 3491 2834 3397 
z
" transform="scale(0.015625)"/>
       <path id="DejaVuSans-5d" d="M 1947 4863 
L 1947 -844 
L 622 -844 
L 622 -397 
L 1369 -397 
L 1369 4416 
L 622 4416 
L 622 4863 
L 1947 4863 
z
" transform="scale(0.015625)"/>
      </defs>
      <use xlink:href="#DejaVuSans-56"/>
      <use xlink:href="#DejaVuSans-69" x="66.158203"/>
      <use xlink:href="#DejaVuSans-64" x="93.941406"/>
      <use xlink:href="#DejaVuSans-65" x="157.417969"/>
      <use xlink:href="#DejaVuSans-6f" x="218.941406"/>
      <use xlink:href="#DejaVuSans-20" x="280.123047"/>
      <use xlink:href="#DejaVuSans-4c" x="311.910156"/>
      <use xlink:href="#DejaVuSans-65" x="365.873047"/>
      <use xlink:href="#DejaVuSans-6e" x="427.396484"/>
      <use xlink:href="#DejaVuSans-67" x="490.775391"/>
      <use xlink:href="#DejaVuSans-74" x="554.251953"/>
      <use xlink:href="#DejaVuSans-68" x="593.460938"/>
      <use xlink:href="#DejaVuSans-20" x="656.839844"/>
      <use xlink:href="#DejaVuSans-5b" x="688.626953"/>
      <use xlink:href="#DejaVuSans-23" x="727.640625"/>
      <use xlink:href="#DejaVuSans-20" x="811.429688"/>
      <use xlink:href="#DejaVuSans-66" x="843.216797"/>
      <use xlink:href="#DejaVuSans-72" x="878.421875"/>
      <use xlink:href="#DejaVuSans-61" x="919.535156"/>
      <use xlink:href="#DejaVuSans-6d" x="980.814453"/>
      <use xlink:href="#DejaVuSans-65" x="1078.226562"/>
      <use xlink:href="#DejaVuSans-73" x="1139.75"/>
      <use xlink:href="#DejaVuSans-5d" x="1191.849609"/>
     </g>
    </g>
   </g>
   <g id="patch_3">
    <path d="M 124.022443 385.630223 
L 124.022443 385.630223 
L 124.022443 385.630223 
L 124.022443 385.630223 
z
" clip-path="url(#p976c976be1)" style="fill: #3274a1; stroke: #3f3f3f; stroke-width: 0.75; stroke-linejoin: miter"/>
   </g>
   <g id="PolyCollection_1">
    <defs>
     <path id="mba9b39e86e" d="M 95.956205 -103.276691 
L 95.942726 -103.276691 
L 95.916902 -106.20121 
L 95.839089 -109.12573 
L 95.6688 -112.050249 
L 95.366721 -114.974768 
L 94.882645 -117.899287 
L 94.167461 -120.823806 
L 93.199631 -123.748325 
L 91.894664 -126.672844 
L 90.040442 -129.597363 
L 87.497484 -132.521882 
L 84.450917 -135.446401 
L 81.358543 -138.37092 
L 78.569527 -141.295439 
L 76.159091 -144.219958 
L 74.080244 -147.144477 
L 72.081075 -150.068996 
L 69.976952 -152.993515 
L 68.310369 -155.918035 
L 67.876489 -158.842554 
L 68.616872 -161.767073 
L 69.783954 -164.691592 
L 70.984865 -167.616111 
L 72.288973 -170.54063 
L 73.811722 -173.465149 
L 75.675282 -176.389668 
L 77.832888 -179.314187 
L 79.9533 -182.238706 
L 81.710542 -185.163225 
L 83.130279 -188.087744 
L 84.419749 -191.012263 
L 85.565879 -193.936782 
L 86.49015 -196.861301 
L 87.314689 -199.78582 
L 88.154127 -202.710339 
L 89.035961 -205.634859 
L 89.99322 -208.559378 
L 90.95146 -211.483897 
L 91.732467 -214.408416 
L 92.256942 -217.332935 
L 92.633538 -220.257454 
L 93.041693 -223.181973 
L 93.549102 -226.106492 
L 94.099479 -229.031011 
L 94.599681 -231.95553 
L 94.978012 -234.880049 
L 95.230932 -237.804568 
L 95.40612 -240.729087 
L 95.53569 -243.653606 
L 95.6307 -246.578125 
L 95.712992 -249.502644 
L 95.793121 -252.427163 
L 95.852407 -255.351683 
L 95.873725 -258.276202 
L 95.86856 -261.200721 
L 95.8645 -264.12524 
L 95.875032 -267.049759 
L 95.898507 -269.974278 
L 95.924833 -272.898797 
L 95.941786 -275.823316 
L 95.947996 -278.747835 
L 95.949297 -281.672354 
L 95.949454 -284.596873 
L 95.949465 -287.521392 
L 95.949466 -290.445911 
L 95.949466 -293.37043 
L 95.949466 -296.294949 
L 95.949466 -299.219468 
L 95.949466 -302.143987 
L 95.949466 -305.068507 
L 95.949459 -307.993026 
L 95.949371 -310.917545 
L 95.948668 -313.842064 
L 95.945509 -316.766583 
L 95.937796 -319.691102 
L 95.928648 -322.615621 
L 95.925189 -325.54014 
L 95.925928 -328.464659 
L 95.925231 -331.389178 
L 95.927552 -334.313697 
L 95.936168 -337.238216 
L 95.944553 -340.162735 
L 95.948385 -343.087254 
L 95.949325 -346.011773 
L 95.949455 -348.936292 
L 95.949465 -351.860812 
L 95.949466 -354.785331 
L 95.949466 -357.70985 
L 95.949466 -360.634369 
L 95.949466 -363.558888 
L 95.949465 -366.483407 
L 95.94945 -369.407926 
L 95.94927 -372.332445 
L 95.948075 -375.256964 
L 95.943615 -378.181483 
L 95.934901 -381.106002 
L 95.928009 -384.030521 
L 95.930759 -386.95504 
L 95.939813 -389.879559 
L 95.946518 -392.804078 
L 95.952413 -392.804078 
L 95.952413 -392.804078 
L 95.959118 -389.879559 
L 95.968173 -386.95504 
L 95.970922 -384.030521 
L 95.964031 -381.106002 
L 95.955317 -378.181483 
L 95.950857 -375.256964 
L 95.949662 -372.332445 
L 95.949482 -369.407926 
L 95.949467 -366.483407 
L 95.949466 -363.558888 
L 95.949466 -360.634369 
L 95.949466 -357.70985 
L 95.949466 -354.785331 
L 95.949466 -351.860812 
L 95.949477 -348.936292 
L 95.949607 -346.011773 
L 95.950547 -343.087254 
L 95.954379 -340.162735 
L 95.962764 -337.238216 
L 95.97138 -334.313697 
L 95.9737 -331.389178 
L 95.973004 -328.464659 
L 95.973743 -325.54014 
L 95.970284 -322.615621 
L 95.961136 -319.691102 
L 95.953423 -316.766583 
L 95.950264 -313.842064 
L 95.949561 -310.917545 
L 95.949473 -307.993026 
L 95.949466 -305.068507 
L 95.949466 -302.143987 
L 95.949466 -299.219468 
L 95.949466 -296.294949 
L 95.949466 -293.37043 
L 95.949466 -290.445911 
L 95.949466 -287.521392 
L 95.949477 -284.596873 
L 95.949635 -281.672354 
L 95.950936 -278.747835 
L 95.957146 -275.823316 
L 95.974099 -272.898797 
L 96.000425 -269.974278 
L 96.023899 -267.049759 
L 96.034432 -264.12524 
L 96.030371 -261.200721 
L 96.025207 -258.276202 
L 96.046525 -255.351683 
L 96.105811 -252.427163 
L 96.18594 -249.502644 
L 96.268231 -246.578125 
L 96.363242 -243.653606 
L 96.492812 -240.729087 
L 96.668 -237.804568 
L 96.92092 -234.880049 
L 97.299251 -231.95553 
L 97.799453 -229.031011 
L 98.34983 -226.106492 
L 98.857238 -223.181973 
L 99.265393 -220.257454 
L 99.641989 -217.332935 
L 100.166465 -214.408416 
L 100.947472 -211.483897 
L 101.905712 -208.559378 
L 102.86297 -205.634859 
L 103.744805 -202.710339 
L 104.584243 -199.78582 
L 105.408781 -196.861301 
L 106.333053 -193.936782 
L 107.479183 -191.012263 
L 108.768653 -188.087744 
L 110.18839 -185.163225 
L 111.945632 -182.238706 
L 114.066043 -179.314187 
L 116.22365 -176.389668 
L 118.087209 -173.465149 
L 119.609959 -170.54063 
L 120.914067 -167.616111 
L 122.114978 -164.691592 
L 123.282059 -161.767073 
L 124.022443 -158.842554 
L 123.588563 -155.918035 
L 121.92198 -152.993515 
L 119.817856 -150.068996 
L 117.818688 -147.144477 
L 115.73984 -144.219958 
L 113.329405 -141.295439 
L 110.540389 -138.37092 
L 107.448015 -135.446401 
L 104.401448 -132.521882 
L 101.85849 -129.597363 
L 100.004267 -126.672844 
L 98.699301 -123.748325 
L 97.731471 -120.823806 
L 97.016287 -117.899287 
L 96.532211 -114.974768 
L 96.230132 -112.050249 
L 96.059843 -109.12573 
L 95.98203 -106.20121 
L 95.956205 -103.276691 
z
" style="stroke: #3f3f3f; stroke-width: 1.5"/>
    </defs>
    <g clip-path="url(#p976c976be1)">
     <use xlink:href="#mba9b39e86e" x="0" y="432" style="fill: #3274a1; stroke: #3f3f3f; stroke-width: 1.5"/>
    </g>
   </g>
   <g id="patch_4">
    <path d="M 124.022443 385.630223 
L 124.022443 385.630223 
L 124.022443 385.630223 
L 124.022443 385.630223 
z
" clip-path="url(#p976c976be1)" style="fill: #e1812c; stroke: #3f3f3f; stroke-width: 0.75; stroke-linejoin: miter"/>
   </g>
   <g id="PolyCollection_2">
    <defs>
     <path id="m56bea9cba0" d="M 152.10626 -116.636672 
L 152.084581 -116.636672 
L 152.044996 -119.540269 
L 151.92617 -122.443865 
L 151.671592 -125.347462 
L 151.277414 -128.251058 
L 150.786544 -131.154655 
L 150.12846 -134.058251 
L 149.084325 -136.961848 
L 147.503183 -139.865445 
L 145.365603 -142.769041 
L 142.726286 -145.672638 
L 139.837062 -148.576234 
L 137.138289 -151.479831 
L 134.8632 -154.383427 
L 132.761499 -157.287024 
L 130.496548 -160.19062 
L 128.263869 -163.094217 
L 126.555607 -165.997813 
L 125.463928 -168.90141 
L 124.840803 -171.805006 
L 124.758184 -174.708603 
L 125.366318 -177.612199 
L 126.623772 -180.515796 
L 128.340576 -183.419392 
L 130.367346 -186.322989 
L 132.428688 -189.226585 
L 134.238175 -192.130182 
L 135.88749 -195.033778 
L 137.492804 -197.937375 
L 138.919787 -200.840971 
L 140.144582 -203.744568 
L 141.342014 -206.648164 
L 142.565504 -209.551761 
L 143.648355 -212.455357 
L 144.491427 -215.358954 
L 145.282832 -218.26255 
L 146.179444 -221.166147 
L 147.029382 -224.069743 
L 147.702903 -226.97334 
L 148.264868 -229.876936 
L 148.796769 -232.780533 
L 149.332892 -235.684129 
L 149.839147 -238.587726 
L 150.271681 -241.491322 
L 150.652266 -244.394919 
L 150.993469 -247.298516 
L 151.260127 -250.202112 
L 151.435254 -253.105709 
L 151.551153 -256.009305 
L 151.650506 -258.912902 
L 151.741253 -261.816498 
L 151.808875 -264.720095 
L 151.864799 -267.623691 
L 151.930021 -270.527288 
L 151.990964 -273.430884 
L 152.03152 -276.334481 
L 152.05941 -279.238077 
L 152.080005 -282.141674 
L 152.091021 -285.04527 
L 152.094627 -287.948867 
L 152.095332 -290.852463 
L 152.095414 -293.75606 
L 152.09542 -296.659656 
L 152.09542 -299.563253 
L 152.09542 -302.466849 
L 152.09542 -305.370446 
L 152.09542 -308.274042 
L 152.09542 -311.177639 
L 152.09542 -314.081235 
L 152.09542 -316.984832 
L 152.09542 -319.888428 
L 152.09542 -322.792025 
L 152.095414 -325.695621 
L 152.095322 -328.599218 
L 152.094559 -331.502814 
L 152.090789 -334.406411 
L 152.079991 -337.310007 
L 152.063419 -340.213604 
L 152.053937 -343.1172 
L 152.06176 -346.020797 
L 152.078345 -348.924394 
L 152.090025 -351.82799 
L 152.094364 -354.731587 
L 152.095293 -357.635183 
L 152.095411 -360.53878 
L 152.09542 -363.442376 
L 152.09542 -366.345973 
L 152.09542 -369.249569 
L 152.09542 -372.153166 
L 152.09542 -375.056762 
L 152.095419 -377.960359 
L 152.095397 -380.863955 
L 152.095167 -383.767552 
L 152.09378 -386.671148 
L 152.089018 -389.574745 
L 152.080357 -392.478341 
L 152.074062 -395.381938 
L 152.07717 -398.285534 
L 152.086022 -401.189131 
L 152.092504 -404.092727 
L 152.098337 -404.092727 
L 152.098337 -404.092727 
L 152.104819 -401.189131 
L 152.113671 -398.285534 
L 152.116779 -395.381938 
L 152.110484 -392.478341 
L 152.101823 -389.574745 
L 152.097061 -386.671148 
L 152.095674 -383.767552 
L 152.095444 -380.863955 
L 152.095422 -377.960359 
L 152.09542 -375.056762 
L 152.09542 -372.153166 
L 152.09542 -369.249569 
L 152.09542 -366.345973 
L 152.095421 -363.442376 
L 152.09543 -360.53878 
L 152.095548 -357.635183 
L 152.096477 -354.731587 
L 152.100816 -351.82799 
L 152.112496 -348.924394 
L 152.129081 -346.020797 
L 152.136904 -343.1172 
L 152.127422 -340.213604 
L 152.11085 -337.310007 
L 152.100052 -334.406411 
L 152.096282 -331.502814 
L 152.095519 -328.599218 
L 152.095427 -325.695621 
L 152.095421 -322.792025 
L 152.09542 -319.888428 
L 152.09542 -316.984832 
L 152.09542 -314.081235 
L 152.09542 -311.177639 
L 152.09542 -308.274042 
L 152.09542 -305.370446 
L 152.09542 -302.466849 
L 152.09542 -299.563253 
L 152.095421 -296.659656 
L 152.095427 -293.75606 
L 152.095509 -290.852463 
L 152.096214 -287.948867 
L 152.09982 -285.04527 
L 152.110836 -282.141674 
L 152.13143 -279.238077 
L 152.159321 -276.334481 
L 152.199877 -273.430884 
L 152.26082 -270.527288 
L 152.326042 -267.623691 
L 152.381966 -264.720095 
L 152.449588 -261.816498 
L 152.540335 -258.912902 
L 152.639688 -256.009305 
L 152.755587 -253.105709 
L 152.930714 -250.202112 
L 153.197372 -247.298516 
L 153.538575 -244.394919 
L 153.91916 -241.491322 
L 154.351693 -238.587726 
L 154.857949 -235.684129 
L 155.394072 -232.780533 
L 155.925973 -229.876936 
L 156.487938 -226.97334 
L 157.161459 -224.069743 
L 158.011397 -221.166147 
L 158.908009 -218.26255 
L 159.699414 -215.358954 
L 160.542486 -212.455357 
L 161.625337 -209.551761 
L 162.848827 -206.648164 
L 164.046259 -203.744568 
L 165.271054 -200.840971 
L 166.698037 -197.937375 
L 168.303351 -195.033778 
L 169.952666 -192.130182 
L 171.762153 -189.226585 
L 173.823495 -186.322989 
L 175.850265 -183.419392 
L 177.567068 -180.515796 
L 178.824523 -177.612199 
L 179.432657 -174.708603 
L 179.350038 -171.805006 
L 178.726912 -168.90141 
L 177.635234 -165.997813 
L 175.926972 -163.094217 
L 173.694293 -160.19062 
L 171.429342 -157.287024 
L 169.327641 -154.383427 
L 167.052552 -151.479831 
L 164.353779 -148.576234 
L 161.464555 -145.672638 
L 158.825238 -142.769041 
L 156.687658 -139.865445 
L 155.106516 -136.961848 
L 154.062381 -134.058251 
L 153.404297 -131.154655 
L 152.913427 -128.251058 
L 152.519249 -125.347462 
L 152.264671 -122.443865 
L 152.145845 -119.540269 
L 152.10626 -116.636672 
z
" style="stroke: #3f3f3f; stroke-width: 1.5"/>
    </defs>
    <g clip-path="url(#p976c976be1)">
     <use xlink:href="#m56bea9cba0" x="0" y="432" style="fill: #e1812c; stroke: #3f3f3f; stroke-width: 1.5"/>
    </g>
   </g>
   <g id="PolyCollection_3">
    <defs>
     <path id="m9f89fe7c61" d="M 236.354538 -95.631393 
L 236.274167 -95.631393 
L 236.21914 -97.012799 
L 236.11612 -98.394204 
L 235.947173 -99.77561 
L 235.698991 -101.157015 
L 235.360887 -102.538421 
L 234.915539 -103.919826 
L 234.331695 -105.301232 
L 233.571676 -106.682637 
L 232.61312 -108.064042 
L 231.464252 -109.445448 
L 230.151282 -110.826853 
L 228.684623 -112.208259 
L 227.038319 -113.589664 
L 225.167406 -114.97107 
L 223.048504 -116.352475 
L 220.708617 -117.733881 
L 218.229364 -119.115286 
L 215.741415 -120.496692 
L 213.415462 -121.878097 
L 211.432629 -123.259503 
L 209.927963 -124.640908 
L 208.940263 -126.022314 
L 208.412072 -127.403719 
L 208.241375 -128.785125 
L 208.338936 -130.16653 
L 208.648385 -131.547936 
L 209.131879 -132.929341 
L 209.753127 -134.310747 
L 210.474259 -135.692152 
L 211.260692 -137.073558 
L 212.091751 -138.454963 
L 212.979401 -139.836369 
L 213.977865 -141.217774 
L 215.155048 -142.59918 
L 216.528125 -143.980585 
L 218.012571 -145.361991 
L 219.440045 -146.743396 
L 220.650759 -148.124802 
L 221.599488 -149.506207 
L 222.389957 -150.887613 
L 223.201105 -152.269018 
L 224.159096 -153.650424 
L 225.259071 -155.031829 
L 226.395301 -156.413235 
L 227.458362 -157.79464 
L 228.405904 -159.176046 
L 229.257956 -160.557451 
L 230.047189 -161.938857 
L 230.78039 -163.320262 
L 231.432434 -164.701668 
L 231.960829 -166.083073 
L 232.330678 -167.464479 
L 232.546322 -168.845884 
L 232.670746 -170.227289 
L 232.804865 -171.608695 
L 233.029002 -172.9901 
L 233.352091 -174.371506 
L 233.713628 -175.752911 
L 234.034336 -177.134317 
L 234.269628 -178.515722 
L 234.426359 -179.897128 
L 234.54106 -181.278533 
L 234.646039 -182.659939 
L 234.750669 -184.041344 
L 234.847274 -185.42275 
L 234.93075 -186.804155 
L 235.011925 -188.185561 
L 235.112404 -189.566966 
L 235.24656 -190.948372 
L 235.408204 -192.329777 
L 235.573985 -193.711183 
L 235.719432 -195.092588 
L 235.833242 -196.473994 
L 235.919092 -197.855399 
L 235.986065 -199.236805 
L 236.038219 -200.61821 
L 236.073279 -201.999616 
L 236.089938 -203.381021 
L 236.093809 -204.762427 
L 236.094839 -206.143832 
L 236.100091 -207.525238 
L 236.110434 -208.906643 
L 236.123245 -210.288049 
L 236.136298 -211.669454 
L 236.149006 -213.05086 
L 236.161823 -214.432265 
L 236.175622 -215.813671 
L 236.191042 -217.195076 
L 236.20729 -218.576482 
L 236.221422 -219.957887 
L 236.229757 -221.339293 
L 236.231151 -222.720698 
L 236.229189 -224.102104 
L 236.230445 -225.483509 
L 236.239714 -226.864915 
L 236.256507 -228.24632 
L 236.275938 -229.627726 
L 236.29265 -231.009131 
L 236.303955 -232.390536 
L 236.32475 -232.390536 
L 236.32475 -232.390536 
L 236.336054 -231.009131 
L 236.352767 -229.627726 
L 236.372197 -228.24632 
L 236.38899 -226.864915 
L 236.39826 -225.483509 
L 236.399516 -224.102104 
L 236.397554 -222.720698 
L 236.398948 -221.339293 
L 236.407282 -219.957887 
L 236.421414 -218.576482 
L 236.437663 -217.195076 
L 236.453083 -215.813671 
L 236.466881 -214.432265 
L 236.479698 -213.05086 
L 236.492407 -211.669454 
L 236.505459 -210.288049 
L 236.518271 -208.906643 
L 236.528613 -207.525238 
L 236.533865 -206.143832 
L 236.534895 -204.762427 
L 236.538767 -203.381021 
L 236.555426 -201.999616 
L 236.590485 -200.61821 
L 236.64264 -199.236805 
L 236.709613 -197.855399 
L 236.795463 -196.473994 
L 236.909272 -195.092588 
L 237.05472 -193.711183 
L 237.220501 -192.329777 
L 237.382144 -190.948372 
L 237.516301 -189.566966 
L 237.616779 -188.185561 
L 237.697954 -186.804155 
L 237.78143 -185.42275 
L 237.878036 -184.041344 
L 237.982666 -182.659939 
L 238.087645 -181.278533 
L 238.202345 -179.897128 
L 238.359076 -178.515722 
L 238.594369 -177.134317 
L 238.915077 -175.752911 
L 239.276613 -174.371506 
L 239.599703 -172.9901 
L 239.823839 -171.608695 
L 239.957958 -170.227289 
L 240.082383 -168.845884 
L 240.298027 -167.464479 
L 240.667876 -166.083073 
L 241.196271 -164.701668 
L 241.848315 -163.320262 
L 242.581515 -161.938857 
L 243.370748 -160.557451 
L 244.2228 -159.176046 
L 245.170342 -157.79464 
L 246.233404 -156.413235 
L 247.369634 -155.031829 
L 248.469609 -153.650424 
L 249.4276 -152.269018 
L 250.238748 -150.887613 
L 251.029217 -149.506207 
L 251.977946 -148.124802 
L 253.18866 -146.743396 
L 254.616134 -145.361991 
L 256.100579 -143.980585 
L 257.473657 -142.59918 
L 258.650839 -141.217774 
L 259.649303 -139.836369 
L 260.536954 -138.454963 
L 261.368012 -137.073558 
L 262.154446 -135.692152 
L 262.875577 -134.310747 
L 263.496825 -132.929341 
L 263.98032 -131.547936 
L 264.289769 -130.16653 
L 264.38733 -128.785125 
L 264.216633 -127.403719 
L 263.688442 -126.022314 
L 262.700742 -124.640908 
L 261.196076 -123.259503 
L 259.213243 -121.878097 
L 256.88729 -120.496692 
L 254.399341 -119.115286 
L 251.920088 -117.733881 
L 249.5802 -116.352475 
L 247.461299 -114.97107 
L 245.590385 -113.589664 
L 243.944082 -112.208259 
L 242.477423 -110.826853 
L 241.164452 -109.445448 
L 240.015585 -108.064042 
L 239.057029 -106.682637 
L 238.29701 -105.301232 
L 237.713165 -103.919826 
L 237.267817 -102.538421 
L 236.929714 -101.157015 
L 236.681532 -99.77561 
L 236.512585 -98.394204 
L 236.409565 -97.012799 
L 236.354538 -95.631393 
z
" style="stroke: #3f3f3f; stroke-width: 1.5"/>
    </defs>
    <g clip-path="url(#p976c976be1)">
     <use xlink:href="#m9f89fe7c61" x="0" y="432" style="fill: #3274a1; stroke: #3f3f3f; stroke-width: 1.5"/>
    </g>
   </g>
   <g id="PolyCollection_4">
    <defs>
     <path id="m653de85a98" d="M 292.467085 -116.324017 
L 292.453528 -116.324017 
L 292.442307 -118.192757 
L 292.41784 -120.061498 
L 292.369516 -121.930238 
L 292.281732 -123.798978 
L 292.134683 -125.667718 
L 291.908584 -127.536458 
L 291.589736 -129.405198 
L 291.17252 -131.273939 
L 290.652816 -133.142679 
L 290.016202 -135.011419 
L 289.229334 -136.880159 
L 288.240473 -138.748899 
L 286.991797 -140.617639 
L 285.444031 -142.48638 
L 283.605353 -144.35512 
L 281.545491 -146.22386 
L 279.381994 -148.0926 
L 277.247548 -149.96134 
L 275.258027 -151.83008 
L 273.492875 -153.698821 
L 271.99215 -155.567561 
L 270.770402 -157.436301 
L 269.832929 -159.305041 
L 269.17229 -161.173781 
L 268.752947 -163.042521 
L 268.52877 -164.911262 
L 268.508046 -166.780002 
L 268.796239 -168.648742 
L 269.535817 -170.517482 
L 270.777473 -172.386222 
L 272.411934 -174.254962 
L 274.22656 -176.123703 
L 276.015255 -177.992443 
L 277.640634 -179.861183 
L 279.032321 -181.729923 
L 280.172999 -183.598663 
L 281.102918 -185.467403 
L 281.918046 -187.336144 
L 282.728864 -189.204884 
L 283.594909 -191.073624 
L 284.490026 -192.942364 
L 285.331879 -194.811104 
L 286.049486 -196.679844 
L 286.630819 -198.548585 
L 287.116937 -200.417325 
L 287.55628 -202.286065 
L 287.960662 -204.154805 
L 288.300337 -206.023545 
L 288.542867 -207.892285 
L 288.698466 -209.761026 
L 288.824739 -211.629766 
L 288.986127 -213.498506 
L 289.212014 -215.367246 
L 289.491766 -217.235986 
L 289.797339 -219.104726 
L 290.100608 -220.973467 
L 290.375451 -222.842207 
L 290.599744 -224.710947 
L 290.765153 -226.579687 
L 290.883176 -228.448427 
L 290.977775 -230.317167 
L 291.072652 -232.185908 
L 291.185205 -234.054648 
L 291.325512 -235.923388 
L 291.492679 -237.792128 
L 291.671369 -239.660868 
L 291.837909 -241.529608 
L 291.974546 -243.398349 
L 292.07828 -245.267089 
L 292.156018 -247.135829 
L 292.213938 -249.004569 
L 292.25384 -250.873309 
L 292.277901 -252.742049 
L 292.292535 -254.61079 
L 292.305338 -256.47953 
L 292.319266 -258.34827 
L 292.33121 -260.21701 
L 292.336227 -262.08575 
L 292.332832 -263.95449 
L 292.324864 -265.823231 
L 292.319313 -267.691971 
L 292.32236 -269.560711 
L 292.336284 -271.429451 
L 292.358857 -273.298191 
L 292.385185 -275.166931 
L 292.410248 -277.035672 
L 292.430518 -278.904412 
L 292.44437 -280.773152 
L 292.451719 -282.641892 
L 292.45327 -284.510632 
L 292.449948 -286.379372 
L 292.443144 -288.248113 
L 292.435431 -290.116853 
L 292.430341 -291.985593 
L 292.430547 -293.854333 
L 292.435973 -295.723073 
L 292.443926 -297.591813 
L 292.45123 -299.460554 
L 292.456166 -301.329294 
L 292.464447 -301.329294 
L 292.464447 -301.329294 
L 292.469384 -299.460554 
L 292.476687 -297.591813 
L 292.484641 -295.723073 
L 292.490066 -293.854333 
L 292.490273 -291.985593 
L 292.485182 -290.116853 
L 292.47747 -288.248113 
L 292.470666 -286.379372 
L 292.467344 -284.510632 
L 292.468895 -282.641892 
L 292.476244 -280.773152 
L 292.490096 -278.904412 
L 292.510366 -277.035672 
L 292.535429 -275.166931 
L 292.561756 -273.298191 
L 292.58433 -271.429451 
L 292.598254 -269.560711 
L 292.601301 -267.691971 
L 292.595749 -265.823231 
L 292.587781 -263.95449 
L 292.584387 -262.08575 
L 292.589404 -260.21701 
L 292.601348 -258.34827 
L 292.615276 -256.47953 
L 292.628078 -254.61079 
L 292.642713 -252.742049 
L 292.666774 -250.873309 
L 292.706675 -249.004569 
L 292.764595 -247.135829 
L 292.842334 -245.267089 
L 292.946068 -243.398349 
L 293.082705 -241.529608 
L 293.249244 -239.660868 
L 293.427935 -237.792128 
L 293.595102 -235.923388 
L 293.735409 -234.054648 
L 293.847961 -232.185908 
L 293.942839 -230.317167 
L 294.037438 -228.448427 
L 294.155461 -226.579687 
L 294.320869 -224.710947 
L 294.545163 -222.842207 
L 294.820005 -220.973467 
L 295.123274 -219.104726 
L 295.428847 -217.235986 
L 295.708599 -215.367246 
L 295.934486 -213.498506 
L 296.095875 -211.629766 
L 296.222147 -209.761026 
L 296.377747 -207.892285 
L 296.620276 -206.023545 
L 296.959952 -204.154805 
L 297.364334 -202.286065 
L 297.803677 -200.417325 
L 298.289795 -198.548585 
L 298.871128 -196.679844 
L 299.588735 -194.811104 
L 300.430587 -192.942364 
L 301.325704 -191.073624 
L 302.19175 -189.204884 
L 303.002568 -187.336144 
L 303.817695 -185.467403 
L 304.747615 -183.598663 
L 305.888293 -181.729923 
L 307.27998 -179.861183 
L 308.905359 -177.992443 
L 310.694054 -176.123703 
L 312.508679 -174.254962 
L 314.14314 -172.386222 
L 315.384796 -170.517482 
L 316.124374 -168.648742 
L 316.412568 -166.780002 
L 316.391844 -164.911262 
L 316.167667 -163.042521 
L 315.748323 -161.173781 
L 315.087685 -159.305041 
L 314.150212 -157.436301 
L 312.928464 -155.567561 
L 311.427739 -153.698821 
L 309.662587 -151.83008 
L 307.673066 -149.96134 
L 305.53862 -148.0926 
L 303.375123 -146.22386 
L 301.31526 -144.35512 
L 299.476583 -142.48638 
L 297.928817 -140.617639 
L 296.68014 -138.748899 
L 295.69128 -136.880159 
L 294.904411 -135.011419 
L 294.267797 -133.142679 
L 293.748093 -131.273939 
L 293.330878 -129.405198 
L 293.01203 -127.536458 
L 292.78593 -125.667718 
L 292.638882 -123.798978 
L 292.551098 -121.930238 
L 292.502773 -120.061498 
L 292.478307 -118.192757 
L 292.467085 -116.324017 
z
" style="stroke: #3f3f3f; stroke-width: 1.5"/>
    </defs>
    <g clip-path="url(#p976c976be1)">
     <use xlink:href="#m653de85a98" x="0" y="432" style="fill: #e1812c; stroke: #3f3f3f; stroke-width: 1.5"/>
    </g>
   </g>
   <g id="PolyCollection_5">
    <defs>
     <path id="me828e4c27b" d="M 376.709226 -79.401214 
L 376.649251 -79.401214 
L 376.614767 -80.657818 
L 376.550536 -81.914422 
L 376.438448 -83.171026 
L 376.253823 -84.42763 
L 375.966269 -85.684234 
L 375.544112 -86.940839 
L 374.962596 -88.197443 
L 374.211909 -89.454047 
L 373.297973 -90.710651 
L 372.232268 -91.967255 
L 371.016798 -93.223859 
L 369.63756 -94.480464 
L 368.07451 -95.737068 
L 366.320919 -96.993672 
L 364.39615 -98.250276 
L 362.34369 -99.50688 
L 360.221263 -100.763484 
L 358.094107 -102.020088 
L 356.032918 -103.276693 
L 354.109585 -104.533297 
L 352.388412 -105.789901 
L 350.921331 -107.046505 
L 349.756614 -108.303109 
L 348.956855 -109.559713 
L 348.606261 -110.816318 
L 348.787157 -112.072922 
L 349.527248 -113.329526 
L 350.748357 -114.58613 
L 352.258384 -115.842734 
L 353.805352 -117.099338 
L 355.169049 -118.355943 
L 356.237983 -119.612547 
L 357.0315 -120.869151 
L 357.666203 -122.125755 
L 358.295995 -123.382359 
L 359.056512 -124.638963 
L 360.029278 -125.895567 
L 361.228849 -127.152172 
L 362.611202 -128.408776 
L 364.096534 -129.66538 
L 365.59476 -130.921984 
L 367.023877 -132.178588 
L 368.319902 -133.435192 
L 369.443106 -134.691797 
L 370.383333 -135.948401 
L 371.161231 -137.205005 
L 371.819957 -138.461609 
L 372.406512 -139.718213 
L 372.950377 -140.974817 
L 373.452422 -142.231422 
L 373.892582 -143.488026 
L 374.251404 -144.74463 
L 374.528929 -146.001234 
L 374.746586 -147.257838 
L 374.932802 -148.514442 
L 375.106568 -149.771046 
L 375.272099 -151.027651 
L 375.425111 -152.284255 
L 375.561147 -153.540859 
L 375.678348 -154.797463 
L 375.775865 -156.054067 
L 375.853622 -157.310671 
L 375.915204 -158.567276 
L 375.969906 -159.82388 
L 376.029939 -161.080484 
L 376.104143 -162.337088 
L 376.19342 -163.593692 
L 376.291221 -164.850296 
L 376.387731 -166.1069 
L 376.474139 -167.363505 
L 376.544848 -168.620109 
L 376.597815 -169.876713 
L 376.633987 -171.133317 
L 376.656346 -172.389921 
L 376.668766 -173.646525 
L 376.674929 -174.90313 
L 376.67765 -176.159734 
L 376.678715 -177.416338 
L 376.679084 -178.672942 
L 376.679193 -179.929546 
L 376.679207 -181.18615 
L 376.679148 -182.442755 
L 376.678924 -183.699359 
L 376.678248 -184.955963 
L 376.676467 -186.212567 
L 376.672349 -187.469171 
L 376.664024 -188.725775 
L 376.649395 -189.982379 
L 376.627237 -191.238984 
L 376.598748 -192.495588 
L 376.568567 -193.752192 
L 376.544066 -195.008796 
L 376.53258 -196.2654 
L 376.537891 -197.522004 
L 376.558226 -198.778609 
L 376.587207 -200.035213 
L 376.617065 -201.291817 
L 376.641928 -202.548421 
L 376.659349 -203.805025 
L 376.699129 -203.805025 
L 376.699129 -203.805025 
L 376.71655 -202.548421 
L 376.741412 -201.291817 
L 376.77127 -200.035213 
L 376.800251 -198.778609 
L 376.820586 -197.522004 
L 376.825897 -196.2654 
L 376.814412 -195.008796 
L 376.78991 -193.752192 
L 376.759729 -192.495588 
L 376.73124 -191.238984 
L 376.709082 -189.982379 
L 376.694453 -188.725775 
L 376.686128 -187.469171 
L 376.68201 -186.212567 
L 376.680229 -184.955963 
L 376.679553 -183.699359 
L 376.679329 -182.442755 
L 376.67927 -181.18615 
L 376.679284 -179.929546 
L 376.679393 -178.672942 
L 376.679762 -177.416338 
L 376.680828 -176.159734 
L 376.683548 -174.90313 
L 376.689711 -173.646525 
L 376.702131 -172.389921 
L 376.724491 -171.133317 
L 376.760662 -169.876713 
L 376.813629 -168.620109 
L 376.884338 -167.363505 
L 376.970746 -166.1069 
L 377.067257 -164.850296 
L 377.165058 -163.593692 
L 377.254334 -162.337088 
L 377.328538 -161.080484 
L 377.388571 -159.82388 
L 377.443273 -158.567276 
L 377.504855 -157.310671 
L 377.582612 -156.054067 
L 377.68013 -154.797463 
L 377.79733 -153.540859 
L 377.933366 -152.284255 
L 378.086378 -151.027651 
L 378.251909 -149.771046 
L 378.425675 -148.514442 
L 378.611892 -147.257838 
L 378.829548 -146.001234 
L 379.107073 -144.74463 
L 379.465895 -143.488026 
L 379.906055 -142.231422 
L 380.4081 -140.974817 
L 380.951966 -139.718213 
L 381.53852 -138.461609 
L 382.197246 -137.205005 
L 382.975145 -135.948401 
L 383.915371 -134.691797 
L 385.038575 -133.435192 
L 386.3346 -132.178588 
L 387.763718 -130.921984 
L 389.261943 -129.66538 
L 390.747275 -128.408776 
L 392.129628 -127.152172 
L 393.3292 -125.895567 
L 394.301965 -124.638963 
L 395.062482 -123.382359 
L 395.692274 -122.125755 
L 396.326977 -120.869151 
L 397.120494 -119.612547 
L 398.189429 -118.355943 
L 399.553126 -117.099338 
L 401.100093 -115.842734 
L 402.610121 -114.58613 
L 403.831229 -113.329526 
L 404.57132 -112.072922 
L 404.752216 -110.816318 
L 404.401622 -109.559713 
L 403.601864 -108.303109 
L 402.437146 -107.046505 
L 400.970066 -105.789901 
L 399.248892 -104.533297 
L 397.32556 -103.276693 
L 395.264371 -102.020088 
L 393.137214 -100.763484 
L 391.014788 -99.50688 
L 388.962327 -98.250276 
L 387.037559 -96.993672 
L 385.283967 -95.737068 
L 383.720917 -94.480464 
L 382.341679 -93.223859 
L 381.126209 -91.967255 
L 380.060504 -90.710651 
L 379.146568 -89.454047 
L 378.395881 -88.197443 
L 377.814365 -86.940839 
L 377.392208 -85.684234 
L 377.104654 -84.42763 
L 376.920029 -83.171026 
L 376.807941 -81.914422 
L 376.743711 -80.657818 
L 376.709226 -79.401214 
z
" style="stroke: #3f3f3f; stroke-width: 1.5"/>
    </defs>
    <g clip-path="url(#p976c976be1)">
     <use xlink:href="#me828e4c27b" x="0" y="432" style="fill: #3274a1; stroke: #3f3f3f; stroke-width: 1.5"/>
    </g>
   </g>
   <g id="PolyCollection_6">
    <defs>
     <path id="mf2248fdba2" d="M 432.898931 -123.208696 
L 432.751455 -123.208696 
L 432.669502 -125.504207 
L 432.527464 -127.799717 
L 432.303582 -130.095228 
L 431.976197 -132.390738 
L 431.522124 -134.686248 
L 430.914363 -136.981759 
L 430.124375 -139.277269 
L 429.131047 -141.57278 
L 427.931171 -143.86829 
L 426.543998 -146.163801 
L 425.008881 -148.459311 
L 423.381647 -150.754821 
L 421.732888 -153.050332 
L 420.144521 -155.345842 
L 418.701348 -157.641353 
L 417.481951 -159.936863 
L 416.555059 -162.232373 
L 415.97823 -164.527884 
L 415.787803 -166.823394 
L 415.97693 -169.118905 
L 416.477088 -171.414415 
L 417.166482 -173.709926 
L 417.912546 -176.005436 
L 418.626214 -178.300946 
L 419.290758 -180.596457 
L 419.94509 -182.891967 
L 420.637076 -185.187478 
L 421.383751 -187.482988 
L 422.164172 -189.778499 
L 422.941495 -192.074009 
L 423.69194 -194.369519 
L 424.420705 -196.66503 
L 425.158099 -198.96054 
L 425.939967 -201.256051 
L 426.782473 -203.551561 
L 427.664345 -205.847071 
L 428.527616 -208.142582 
L 429.298138 -210.438092 
L 429.914963 -212.733603 
L 430.353112 -215.029113 
L 430.630115 -217.324624 
L 430.796179 -219.620134 
L 430.913867 -221.915644 
L 431.035466 -224.211155 
L 431.186954 -226.506665 
L 431.365545 -228.802176 
L 431.551085 -231.097686 
L 431.723318 -233.393197 
L 431.873911 -235.688707 
L 432.007067 -237.984217 
L 432.131397 -240.279728 
L 432.251015 -242.575238 
L 432.362146 -244.870749 
L 432.455769 -247.166259 
L 432.522694 -249.46177 
L 432.557597 -251.75728 
L 432.561034 -254.05279 
L 432.539879 -256.348301 
L 432.506491 -258.643811 
L 432.476325 -260.939322 
L 432.463958 -263.234832 
L 432.47853 -265.530342 
L 432.520547 -267.825853 
L 432.58194 -270.121363 
L 432.649707 -272.416874 
L 432.711317 -274.712384 
L 432.758961 -277.007895 
L 432.790767 -279.303405 
L 432.809233 -281.598915 
L 432.818571 -283.894426 
L 432.822601 -286.189936 
L 432.823798 -288.485447 
L 432.823193 -290.780957 
L 432.820625 -293.076468 
L 432.815107 -295.371978 
L 432.805415 -297.667488 
L 432.791062 -299.962999 
L 432.773406 -302.258509 
L 432.756113 -304.55402 
L 432.74418 -306.84953 
L 432.741664 -309.145041 
L 432.749466 -311.440551 
L 432.764787 -313.736061 
L 432.782653 -316.031572 
L 432.798295 -318.327082 
L 432.808693 -320.622593 
L 432.812616 -322.918103 
L 432.809797 -325.213613 
L 432.800415 -327.509124 
L 432.785482 -329.804634 
L 432.767689 -332.100145 
L 432.751585 -334.395655 
L 432.74227 -336.691166 
L 432.743049 -338.986676 
L 432.753651 -341.282186 
L 432.770414 -343.577697 
L 432.788318 -345.873207 
L 432.80337 -348.168718 
L 432.813839 -350.464228 
L 432.836547 -350.464228 
L 432.836547 -350.464228 
L 432.847016 -348.168718 
L 432.862068 -345.873207 
L 432.879973 -343.577697 
L 432.896736 -341.282186 
L 432.907338 -338.986676 
L 432.908116 -336.691166 
L 432.898801 -334.395655 
L 432.882698 -332.100145 
L 432.864905 -329.804634 
L 432.849972 -327.509124 
L 432.84059 -325.213613 
L 432.83777 -322.918103 
L 432.841693 -320.622593 
L 432.852091 -318.327082 
L 432.867733 -316.031572 
L 432.8856 -313.736061 
L 432.90092 -311.440551 
L 432.908722 -309.145041 
L 432.906207 -306.84953 
L 432.894274 -304.55402 
L 432.87698 -302.258509 
L 432.859324 -299.962999 
L 432.844972 -297.667488 
L 432.83528 -295.371978 
L 432.829762 -293.076468 
L 432.827194 -290.780957 
L 432.826588 -288.485447 
L 432.827785 -286.189936 
L 432.831816 -283.894426 
L 432.841153 -281.598915 
L 432.859619 -279.303405 
L 432.891425 -277.007895 
L 432.939069 -274.712384 
L 433.00068 -272.416874 
L 433.068447 -270.121363 
L 433.129839 -267.825853 
L 433.171856 -265.530342 
L 433.186428 -263.234832 
L 433.174061 -260.939322 
L 433.143895 -258.643811 
L 433.110508 -256.348301 
L 433.089352 -254.05279 
L 433.092789 -251.75728 
L 433.127693 -249.46177 
L 433.194617 -247.166259 
L 433.288241 -244.870749 
L 433.399371 -242.575238 
L 433.518989 -240.279728 
L 433.643319 -237.984217 
L 433.776475 -235.688707 
L 433.927068 -233.393197 
L 434.099301 -231.097686 
L 434.284841 -228.802176 
L 434.463432 -226.506665 
L 434.61492 -224.211155 
L 434.736519 -221.915644 
L 434.854208 -219.620134 
L 435.020271 -217.324624 
L 435.297274 -215.029113 
L 435.735423 -212.733603 
L 436.352248 -210.438092 
L 437.12277 -208.142582 
L 437.986041 -205.847071 
L 438.867913 -203.551561 
L 439.71042 -201.256051 
L 440.492288 -198.96054 
L 441.229681 -196.66503 
L 441.958446 -194.369519 
L 442.708891 -192.074009 
L 443.486214 -189.778499 
L 444.266635 -187.482988 
L 445.01331 -185.187478 
L 445.705296 -182.891967 
L 446.359629 -180.596457 
L 447.024172 -178.300946 
L 447.73784 -176.005436 
L 448.483905 -173.709926 
L 449.173298 -171.414415 
L 449.673456 -169.118905 
L 449.862584 -166.823394 
L 449.672156 -164.527884 
L 449.095327 -162.232373 
L 448.168435 -159.936863 
L 446.949038 -157.641353 
L 445.505865 -155.345842 
L 443.917498 -153.050332 
L 442.268739 -150.754821 
L 440.641505 -148.459311 
L 439.106389 -146.163801 
L 437.719215 -143.86829 
L 436.519339 -141.57278 
L 435.526011 -139.277269 
L 434.736023 -136.981759 
L 434.128262 -134.686248 
L 433.67419 -132.390738 
L 433.346804 -130.095228 
L 433.122923 -127.799717 
L 432.980884 -125.504207 
L 432.898931 -123.208696 
z
" style="stroke: #3f3f3f; stroke-width: 1.5"/>
    </defs>
    <g clip-path="url(#p976c976be1)">
     <use xlink:href="#mf2248fdba2" x="0" y="432" style="fill: #e1812c; stroke: #3f3f3f; stroke-width: 1.5"/>
    </g>
   </g>
   <g id="PolyCollection_7">
    <defs>
     <path id="m335ab124cc" d="M 517.20459 -61.947273 
L 516.88366 -61.947273 
L 516.779827 -62.945359 
L 516.624287 -63.943445 
L 516.399966 -64.941531 
L 516.087979 -65.939617 
L 515.668747 -66.937703 
L 515.12331 -67.935789 
L 514.434549 -68.933875 
L 513.588021 -69.93196 
L 512.572231 -70.930046 
L 511.378391 -71.928132 
L 510.000107 -72.926218 
L 508.433759 -73.924304 
L 506.680398 -74.92239 
L 504.749663 -75.920476 
L 502.665332 -76.918562 
L 500.471045 -77.916648 
L 498.233838 -78.914734 
L 496.042974 -79.91282 
L 494.002571 -80.910906 
L 492.218443 -81.908992 
L 490.781806 -82.907078 
L 489.754063 -83.905164 
L 489.156992 -84.90325 
L 488.971148 -85.901336 
L 489.142701 -86.899422 
L 489.596324 -87.897508 
L 490.250154 -88.895594 
L 491.028831 -89.89368 
L 491.871926 -90.891766 
L 492.737053 -91.889852 
L 493.598712 -92.887938 
L 494.444874 -93.886024 
L 495.273318 -94.88411 
L 496.089037 -95.882196 
L 496.902989 -96.880282 
L 497.731604 -97.878368 
L 498.595983 -98.876454 
L 499.519828 -99.87454 
L 500.5258 -100.872626 
L 501.630791 -101.870711 
L 502.841323 -102.868797 
L 504.150438 -103.866883 
L 505.537066 -104.864969 
L 506.968065 -105.863055 
L 508.402332 -106.861141 
L 509.79589 -107.859227 
L 511.106853 -108.857313 
L 512.299454 -109.855399 
L 513.346767 -110.853485 
L 514.232105 -111.851571 
L 514.949254 -112.849657 
L 515.501784 -113.847743 
L 515.901695 -114.845829 
L 516.167663 -115.843915 
L 516.323104 -116.842001 
L 516.394204 -117.840087 
L 516.407966 -118.838173 
L 516.390272 -119.836259 
L 516.363963 -120.834345 
L 516.347094 -121.832431 
L 516.351629 -122.830517 
L 516.382882 -123.828603 
L 516.43994 -124.826689 
L 516.517032 -125.824775 
L 516.605554 -126.822861 
L 516.696273 -127.820947 
L 516.781198 -128.819033 
L 516.854755 -129.817119 
L 516.914162 -130.815205 
L 516.95912 -131.813291 
L 516.991085 -132.811377 
L 517.012429 -133.809462 
L 517.025696 -134.807548 
L 517.033075 -135.805634 
L 517.036085 -136.80372 
L 517.035434 -137.801806 
L 517.030964 -138.799892 
L 517.021663 -139.797978 
L 517.005743 -140.796064 
L 516.980842 -141.79415 
L 516.944406 -142.792236 
L 516.894305 -143.790322 
L 516.829632 -144.788408 
L 516.751544 -145.786494 
L 516.663889 -146.78458 
L 516.573333 -147.782666 
L 516.488764 -148.780752 
L 516.419972 -149.778838 
L 516.375819 -150.776924 
L 516.362369 -151.77501 
L 516.381525 -152.773096 
L 516.430584 -153.771182 
L 516.502867 -154.769268 
L 516.589206 -155.767354 
L 516.679846 -156.76544 
L 516.766216 -157.763526 
L 516.84213 -158.761612 
L 516.904248 -159.759698 
L 516.951842 -160.757784 
L 517.136408 -160.757784 
L 517.136408 -160.757784 
L 517.184002 -159.759698 
L 517.24612 -158.761612 
L 517.322034 -157.763526 
L 517.408404 -156.76544 
L 517.499044 -155.767354 
L 517.585383 -154.769268 
L 517.657666 -153.771182 
L 517.706725 -152.773096 
L 517.725881 -151.77501 
L 517.712431 -150.776924 
L 517.668278 -149.778838 
L 517.599486 -148.780752 
L 517.514917 -147.782666 
L 517.424361 -146.78458 
L 517.336706 -145.786494 
L 517.258618 -144.788408 
L 517.193945 -143.790322 
L 517.143844 -142.792236 
L 517.107408 -141.79415 
L 517.082507 -140.796064 
L 517.066587 -139.797978 
L 517.057286 -138.799892 
L 517.052816 -137.801806 
L 517.052165 -136.80372 
L 517.055175 -135.805634 
L 517.062554 -134.807548 
L 517.075821 -133.809462 
L 517.097165 -132.811377 
L 517.12913 -131.813291 
L 517.174088 -130.815205 
L 517.233495 -129.817119 
L 517.307052 -128.819033 
L 517.391977 -127.820947 
L 517.482696 -126.822861 
L 517.571218 -125.824775 
L 517.64831 -124.826689 
L 517.705368 -123.828603 
L 517.736621 -122.830517 
L 517.741156 -121.832431 
L 517.724287 -120.834345 
L 517.697978 -119.836259 
L 517.680284 -118.838173 
L 517.694046 -117.840087 
L 517.765146 -116.842001 
L 517.920587 -115.843915 
L 518.186555 -114.845829 
L 518.586466 -113.847743 
L 519.138996 -112.849657 
L 519.856145 -111.851571 
L 520.741483 -110.853485 
L 521.788796 -109.855399 
L 522.981397 -108.857313 
L 524.29236 -107.859227 
L 525.685918 -106.861141 
L 527.120185 -105.863055 
L 528.551184 -104.864969 
L 529.937812 -103.866883 
L 531.246927 -102.868797 
L 532.457459 -101.870711 
L 533.56245 -100.872626 
L 534.568422 -99.87454 
L 535.492267 -98.876454 
L 536.356646 -97.878368 
L 537.185261 -96.880282 
L 537.999213 -95.882196 
L 538.814932 -94.88411 
L 539.643376 -93.886024 
L 540.489538 -92.887938 
L 541.351197 -91.889852 
L 542.216324 -90.891766 
L 543.059419 -89.89368 
L 543.838096 -88.895594 
L 544.491926 -87.897508 
L 544.945549 -86.899422 
L 545.117102 -85.901336 
L 544.931258 -84.90325 
L 544.334187 -83.905164 
L 543.306444 -82.907078 
L 541.869807 -81.908992 
L 540.085679 -80.910906 
L 538.045276 -79.91282 
L 535.854412 -78.914734 
L 533.617205 -77.916648 
L 531.422918 -76.918562 
L 529.338587 -75.920476 
L 527.407852 -74.92239 
L 525.654491 -73.924304 
L 524.088143 -72.926218 
L 522.709859 -71.928132 
L 521.516019 -70.930046 
L 520.500229 -69.93196 
L 519.653701 -68.933875 
L 518.96494 -67.935789 
L 518.419503 -66.937703 
L 518.000271 -65.939617 
L 517.688284 -64.941531 
L 517.463963 -63.943445 
L 517.308423 -62.945359 
L 517.20459 -61.947273 
z
" style="stroke: #3f3f3f; stroke-width: 1.5"/>
    </defs>
    <g clip-path="url(#p976c976be1)">
     <use xlink:href="#m335ab124cc" x="0" y="432" style="fill: #3274a1; stroke: #3f3f3f; stroke-width: 1.5"/>
    </g>
   </g>
   <g id="PolyCollection_8">
    <defs>
     <path id="m1d95ea140d" d="M 573.283376 -106.859849 
L 573.096783 -106.859849 
L 573.044035 -109.349834 
L 572.971117 -111.839819 
L 572.874998 -114.329804 
L 572.753672 -116.819789 
L 572.606024 -119.309774 
L 572.430995 -121.799759 
L 572.226044 -124.289744 
L 571.985212 -126.779729 
L 571.697444 -129.269714 
L 571.345949 -131.759699 
L 570.909293 -134.249684 
L 570.364486 -136.739669 
L 569.691693 -139.229654 
L 568.879619 -141.719639 
L 567.930259 -144.209624 
L 566.861773 -146.699609 
L 565.708688 -149.189594 
L 564.519317 -151.679579 
L 563.350979 -154.169565 
L 562.264029 -156.65955 
L 561.315826 -159.149535 
L 560.555522 -161.63952 
L 560.020137 -164.129505 
L 559.732008 -166.61949 
L 559.697478 -169.109475 
L 559.906685 -171.59946 
L 560.334491 -174.089445 
L 560.942745 -176.57943 
L 561.683991 -179.069415 
L 562.50653 -181.5594 
L 563.360215 -184.049385 
L 564.202017 -186.53937 
L 565.000238 -189.029355 
L 565.736499 -191.51934 
L 566.405195 -194.009325 
L 567.0108 -196.49931 
L 567.563844 -198.989295 
L 568.076608 -201.479281 
L 568.559419 -203.969266 
L 569.018157 -206.459251 
L 569.453243 -208.949236 
L 569.860135 -211.439221 
L 570.231121 -213.929206 
L 570.557974 -216.419191 
L 570.834803 -218.909176 
L 571.060337 -221.399161 
L 571.238997 -223.889146 
L 571.380395 -226.379131 
L 571.497439 -228.869116 
L 571.603634 -231.359101 
L 571.710409 -233.849086 
L 571.825238 -236.339071 
L 571.950974 -238.829056 
L 572.086365 -241.319041 
L 572.227368 -243.809026 
L 572.368688 -246.299011 
L 572.505098 -248.788996 
L 572.632249 -251.278982 
L 572.747001 -253.768967 
L 572.847418 -256.258952 
L 572.932614 -258.748937 
L 573.002589 -261.238922 
L 573.058091 -263.728907 
L 573.100478 -266.218892 
L 573.131559 -268.708877 
L 573.153381 -271.198862 
L 573.16802 -273.688847 
L 573.177387 -276.178832 
L 573.183094 -278.668817 
L 573.186399 -281.158802 
L 573.188204 -283.648787 
L 573.189107 -286.138772 
L 573.189457 -288.628757 
L 573.189405 -291.118742 
L 573.188933 -293.608727 
L 573.187854 -296.098712 
L 573.185793 -298.588698 
L 573.182155 -301.078683 
L 573.17611 -303.568668 
L 573.166633 -306.058653 
L 573.152619 -308.548638 
L 573.133109 -311.038623 
L 573.107611 -313.528608 
L 573.076448 -316.018593 
L 573.041046 -318.508578 
L 573.004027 -320.998563 
L 572.968994 -323.488548 
L 572.940013 -325.978533 
L 572.920851 -328.468518 
L 572.914176 -330.958503 
L 572.920948 -333.448488 
L 572.940193 -335.938473 
L 572.969233 -338.428458 
L 573.004295 -340.918443 
L 573.041315 -343.408428 
L 573.076693 -345.898413 
L 573.107819 -348.388399 
L 573.133273 -350.878384 
L 573.15274 -353.368369 
L 573.227419 -353.368369 
L 573.227419 -353.368369 
L 573.246886 -350.878384 
L 573.27234 -348.388399 
L 573.303466 -345.898413 
L 573.338844 -343.408428 
L 573.375864 -340.918443 
L 573.410926 -338.428458 
L 573.439966 -335.938473 
L 573.459211 -333.448488 
L 573.465983 -330.958503 
L 573.459308 -328.468518 
L 573.440146 -325.978533 
L 573.411165 -323.488548 
L 573.376132 -320.998563 
L 573.339113 -318.508578 
L 573.303711 -316.018593 
L 573.272548 -313.528608 
L 573.24705 -311.038623 
L 573.22754 -308.548638 
L 573.213526 -306.058653 
L 573.204049 -303.568668 
L 573.198005 -301.078683 
L 573.194366 -298.588698 
L 573.192305 -296.098712 
L 573.191226 -293.608727 
L 573.190754 -291.118742 
L 573.190702 -288.628757 
L 573.191052 -286.138772 
L 573.191955 -283.648787 
L 573.19376 -281.158802 
L 573.197065 -278.668817 
L 573.202772 -276.178832 
L 573.212139 -273.688847 
L 573.226778 -271.198862 
L 573.2486 -268.708877 
L 573.279681 -266.218892 
L 573.322068 -263.728907 
L 573.37757 -261.238922 
L 573.447545 -258.748937 
L 573.532741 -256.258952 
L 573.633158 -253.768967 
L 573.74791 -251.278982 
L 573.875061 -248.788996 
L 574.011471 -246.299011 
L 574.152791 -243.809026 
L 574.293794 -241.319041 
L 574.429185 -238.829056 
L 574.554921 -236.339071 
L 574.66975 -233.849086 
L 574.776525 -231.359101 
L 574.88272 -228.869116 
L 574.999764 -226.379131 
L 575.141162 -223.889146 
L 575.319822 -221.399161 
L 575.545356 -218.909176 
L 575.822185 -216.419191 
L 576.149038 -213.929206 
L 576.520024 -211.439221 
L 576.926916 -208.949236 
L 577.362002 -206.459251 
L 577.820741 -203.969266 
L 578.303552 -201.479281 
L 578.816315 -198.989295 
L 579.369359 -196.49931 
L 579.974964 -194.009325 
L 580.64366 -191.51934 
L 581.379921 -189.029355 
L 582.178142 -186.53937 
L 583.019944 -184.049385 
L 583.873629 -181.5594 
L 584.696168 -179.069415 
L 585.437414 -176.57943 
L 586.045668 -174.089445 
L 586.473474 -171.59946 
L 586.682681 -169.109475 
L 586.648151 -166.61949 
L 586.360022 -164.129505 
L 585.824637 -161.63952 
L 585.064333 -159.149535 
L 584.116131 -156.65955 
L 583.02918 -154.169565 
L 581.860842 -151.679579 
L 580.671471 -149.189594 
L 579.518386 -146.699609 
L 578.4499 -144.209624 
L 577.50054 -141.719639 
L 576.688466 -139.229654 
L 576.015673 -136.739669 
L 575.470866 -134.249684 
L 575.03421 -131.759699 
L 574.682715 -129.269714 
L 574.394947 -126.779729 
L 574.154116 -124.289744 
L 573.949164 -121.799759 
L 573.774135 -119.309774 
L 573.626487 -116.819789 
L 573.505161 -114.329804 
L 573.409042 -111.839819 
L 573.336124 -109.349834 
L 573.283376 -106.859849 
z
" style="stroke: #3f3f3f; stroke-width: 1.5"/>
    </defs>
    <g clip-path="url(#p976c976be1)">
     <use xlink:href="#m1d95ea140d" x="0" y="432" style="fill: #e1812c; stroke: #3f3f3f; stroke-width: 1.5"/>
    </g>
   </g>
   <g id="line2d_10">
    <path d="M 95.949466 320.647472 
L 95.949466 208.608245 
" clip-path="url(#p976c976be1)" style="fill: none; stroke: #3f3f3f; stroke-width: 1.5; stroke-linecap: round"/>
   </g>
   <g id="line2d_11">
    <path d="M 95.949466 280.31335 
L 95.949466 251.183151 
" clip-path="url(#p976c976be1)" style="fill: none; stroke: #3f3f3f; stroke-width: 4.5; stroke-linecap: round"/>
   </g>
   <g id="line2d_12">
    <path d="M 152.09542 307.202765 
L 152.09542 190.681969 
" clip-path="url(#p976c976be1)" style="fill: none; stroke: #3f3f3f; stroke-width: 1.5; stroke-linecap: round"/>
   </g>
   <g id="line2d_13">
    <path d="M 152.09542 269.109427 
L 152.09542 237.738444 
" clip-path="url(#p976c976be1)" style="fill: none; stroke: #3f3f3f; stroke-width: 4.5; stroke-linecap: round"/>
   </g>
   <g id="line2d_14">
    <path d="M 236.314352 329.61061 
L 236.314352 251.183151 
" clip-path="url(#p976c976be1)" style="fill: none; stroke: #3f3f3f; stroke-width: 1.5; stroke-linecap: round"/>
   </g>
   <g id="line2d_15">
    <path d="M 236.314352 307.202765 
L 236.314352 284.794919 
" clip-path="url(#p976c976be1)" style="fill: none; stroke: #3f3f3f; stroke-width: 4.5; stroke-linecap: round"/>
   </g>
   <g id="line2d_16">
    <path d="M 292.460307 307.202765 
L 292.460307 213.089814 
" clip-path="url(#p976c976be1)" style="fill: none; stroke: #3f3f3f; stroke-width: 1.5; stroke-linecap: round"/>
   </g>
   <g id="line2d_17">
    <path d="M 292.460307 273.590997 
L 292.460307 248.942367 
" clip-path="url(#p976c976be1)" style="fill: none; stroke: #3f3f3f; stroke-width: 4.5; stroke-linecap: round"/>
   </g>
   <g id="line2d_18">
    <path d="M 376.679239 345.296102 
L 376.679239 280.31335 
" clip-path="url(#p976c976be1)" style="fill: none; stroke: #3f3f3f; stroke-width: 1.5; stroke-linecap: round"/>
   </g>
   <g id="line2d_19">
    <path d="M 376.679239 325.129041 
L 376.679239 307.202765 
" clip-path="url(#p976c976be1)" style="fill: none; stroke: #3f3f3f; stroke-width: 4.5; stroke-linecap: round"/>
   </g>
   <g id="line2d_20">
    <path d="M 432.825193 295.998842 
L 432.825193 199.645107 
" clip-path="url(#p976c976be1)" style="fill: none; stroke: #3f3f3f; stroke-width: 1.5; stroke-linecap: round"/>
   </g>
   <g id="line2d_21">
    <path d="M 432.825193 271.350212 
L 432.825193 242.220013 
" clip-path="url(#p976c976be1)" style="fill: none; stroke: #3f3f3f; stroke-width: 4.5; stroke-linecap: round"/>
   </g>
   <g id="line2d_22">
    <path d="M 517.044125 360.981593 
L 517.044125 322.888256 
" clip-path="url(#p976c976be1)" style="fill: none; stroke: #3f3f3f; stroke-width: 1.5; stroke-linecap: round"/>
   </g>
   <g id="line2d_23">
    <path d="M 517.044125 348.097082 
L 517.044125 335.772767 
" clip-path="url(#p976c976be1)" style="fill: none; stroke: #3f3f3f; stroke-width: 4.5; stroke-linecap: round"/>
   </g>
   <g id="line2d_24">
    <path d="M 573.19008 302.721196 
L 573.19008 204.126676 
" clip-path="url(#p976c976be1)" style="fill: none; stroke: #3f3f3f; stroke-width: 1.5; stroke-linecap: round"/>
   </g>
   <g id="line2d_25">
    <path d="M 573.19008 271.350212 
L 573.19008 243.340405 
" clip-path="url(#p976c976be1)" style="fill: none; stroke: #3f3f3f; stroke-width: 4.5; stroke-linecap: round"/>
   </g>
   <g id="patch_5">
    <path d="M 53.84 387.16 
L 53.84 10.8 
" style="fill: none; stroke: #cccccc; stroke-width: 0.8; stroke-linejoin: miter; stroke-linecap: square"/>
   </g>
   <g id="patch_6">
    <path d="M 615.299545 387.16 
L 615.299545 10.8 
" style="fill: none; stroke: #cccccc; stroke-width: 0.8; stroke-linejoin: miter; stroke-linecap: square"/>
   </g>
   <g id="patch_7">
    <path d="M 53.84 387.16 
L 615.299545 387.16 
" style="fill: none; stroke: #cccccc; stroke-width: 0.8; stroke-linejoin: miter; stroke-linecap: square"/>
   </g>
   <g id="patch_8">
    <path d="M 53.84 10.8 
L 615.299545 10.8 
" style="fill: none; stroke: #cccccc; stroke-width: 0.8; stroke-linejoin: miter; stroke-linecap: square"/>
   </g>
   <g id="PathCollection_1">
    <defs>
     <path id="m03f391acd3" d="M 0 1.5 
C 0.397805 1.5 0.77937 1.341951 1.06066 1.06066 
C 1.341951 0.77937 1.5 0.397805 1.5 0 
C 1.5 -0.397805 1.341951 -0.77937 1.06066 -1.06066 
C 0.77937 -1.341951 0.397805 -1.5 0 -1.5 
C -0.397805 -1.5 -0.77937 -1.341951 -1.06066 -1.06066 
C -1.341951 -0.77937 -1.5 -0.397805 -1.5 0 
C -1.5 0.397805 -1.341951 0.77937 -1.06066 1.06066 
C -0.77937 1.341951 -0.397805 1.5 0 1.5 
z
" style="stroke: #3f3f3f"/>
    </defs>
    <g clip-path="url(#p976c976be1)">
     <use xlink:href="#m03f391acd3" x="95.949466" y="266.868643" style="fill: #ffffff; stroke: #3f3f3f"/>
    </g>
   </g>
   <g id="PathCollection_2">
    <g clip-path="url(#p976c976be1)">
     <use xlink:href="#m03f391acd3" x="152.09542" y="253.423936" style="fill: #ffffff; stroke: #3f3f3f"/>
    </g>
   </g>
   <g id="PathCollection_3">
    <g clip-path="url(#p976c976be1)">
     <use xlink:href="#m03f391acd3" x="236.314352" y="298.239626" style="fill: #ffffff; stroke: #3f3f3f"/>
    </g>
   </g>
   <g id="PathCollection_4">
    <g clip-path="url(#p976c976be1)">
     <use xlink:href="#m03f391acd3" x="292.460307" y="262.387074" style="fill: #ffffff; stroke: #3f3f3f"/>
    </g>
   </g>
   <g id="PathCollection_5">
    <g clip-path="url(#p976c976be1)">
     <use xlink:href="#m03f391acd3" x="376.679239" y="318.406687" style="fill: #ffffff; stroke: #3f3f3f"/>
    </g>
   </g>
   <g id="PathCollection_6">
    <g clip-path="url(#p976c976be1)">
     <use xlink:href="#m03f391acd3" x="432.825193" y="257.905505" style="fill: #ffffff; stroke: #3f3f3f"/>
    </g>
   </g>
   <g id="PathCollection_7">
    <g clip-path="url(#p976c976be1)">
     <use xlink:href="#m03f391acd3" x="517.044125" y="343.055317" style="fill: #ffffff; stroke: #3f3f3f"/>
    </g>
   </g>
   <g id="PathCollection_8">
    <g clip-path="url(#p976c976be1)">
     <use xlink:href="#m03f391acd3" x="573.19008" y="260.146289" style="fill: #ffffff; stroke: #3f3f3f"/>
    </g>
   </g>
   <g id="legend_1">
    <g id="patch_9">
     <path d="M 532.962045 215.158125 
L 608.299545 215.158125 
Q 610.299545 215.158125 610.299545 213.158125 
L 610.299545 184.801875 
Q 610.299545 182.801875 608.299545 182.801875 
L 532.962045 182.801875 
Q 530.962045 182.801875 530.962045 184.801875 
L 530.962045 213.158125 
Q 530.962045 215.158125 532.962045 215.158125 
z
" style="fill: #ffffff; opacity: 0.8; stroke: #cccccc; stroke-linejoin: miter"/>
    </g>
    <g id="patch_10">
     <path d="M 534.962045 194.400312 
L 554.962045 194.400312 
L 554.962045 187.400312 
L 534.962045 187.400312 
z
" style="fill: #3274a1; stroke: #3f3f3f; stroke-width: 0.75; stroke-linejoin: miter"/>
    </g>
    <g id="text_16">
     <!-- Reduced -->
     <g style="fill: #262626" transform="translate(562.962045 194.400312) scale(0.1 -0.1)">
      <use xlink:href="#DejaVuSans-52"/>
      <use xlink:href="#DejaVuSans-65" x="64.982422"/>
      <use xlink:href="#DejaVuSans-64" x="126.505859"/>
      <use xlink:href="#DejaVuSans-75" x="189.982422"/>
      <use xlink:href="#DejaVuSans-63" x="253.361328"/>
      <use xlink:href="#DejaVuSans-65" x="308.341797"/>
      <use xlink:href="#DejaVuSans-64" x="369.865234"/>
     </g>
    </g>
    <g id="patch_11">
     <path d="M 534.962045 209.078437 
L 554.962045 209.078437 
L 554.962045 202.078437 
L 534.962045 202.078437 
z
" style="fill: #e1812c; stroke: #3f3f3f; stroke-width: 0.75; stroke-linejoin: miter"/>
    </g>
    <g id="text_17">
     <!-- Baseline -->
     <g style="fill: #262626" transform="translate(562.962045 209.078437) scale(0.1 -0.1)">
      <defs>
       <path id="DejaVuSans-42" d="M 1259 2228 
L 1259 519 
L 2272 519 
Q 2781 519 3026 730 
Q 3272 941 3272 1375 
Q 3272 1813 3026 2020 
Q 2781 2228 2272 2228 
L 1259 2228 
z
M 1259 4147 
L 1259 2741 
L 2194 2741 
Q 2656 2741 2882 2914 
Q 3109 3088 3109 3444 
Q 3109 3797 2882 3972 
Q 2656 4147 2194 4147 
L 1259 4147 
z
M 628 4666 
L 2241 4666 
Q 2963 4666 3353 4366 
Q 3744 4066 3744 3513 
Q 3744 3084 3544 2831 
Q 3344 2578 2956 2516 
Q 3422 2416 3680 2098 
Q 3938 1781 3938 1306 
Q 3938 681 3513 340 
Q 3088 0 2303 0 
L 628 0 
L 628 4666 
z
" transform="scale(0.015625)"/>
       <path id="DejaVuSans-6c" d="M 603 4863 
L 1178 4863 
L 1178 0 
L 603 0 
L 603 4863 
z
" transform="scale(0.015625)"/>
      </defs>
      <use xlink:href="#DejaVuSans-42"/>
      <use xlink:href="#DejaVuSans-61" x="68.603516"/>
      <use xlink:href="#DejaVuSans-73" x="129.882812"/>
      <use xlink:href="#DejaVuSans-65" x="181.982422"/>
      <use xlink:href="#DejaVuSans-6c" x="243.505859"/>
      <use xlink:href="#DejaVuSans-69" x="271.289062"/>
      <use xlink:href="#DejaVuSans-6e" x="299.072266"/>
      <use xlink:href="#DejaVuSans-65" x="362.451172"/>
     </g>
    </g>
   </g>
  </g>
  <g id="axes_2">
   <g id="patch_12">
    <path d="M 662.749545 387.16 
L 849.902727 387.16 
L 849.902727 10.8 
L 662.749545 10.8 
z
" style="fill: #ffffff"/>
   </g>
   <g id="matplotlib.axis_3">
    <g id="xtick_5">
     <g id="text_18">
      <!-- 0-20% -->
      <g style="fill: #262626" transform="translate(670.045256 401.758438) scale(0.1 -0.1)">
       <use xlink:href="#DejaVuSans-30"/>
       <use xlink:href="#DejaVuSans-2d" x="63.623047"/>
       <use xlink:href="#DejaVuSans-32" x="99.707031"/>
       <use xlink:href="#DejaVuSans-30" x="163.330078"/>
       <use xlink:href="#DejaVuSans-25" x="226.953125"/>
      </g>
     </g>
    </g>
    <g id="xtick_6">
     <g id="text_19">
      <!-- 20-40% -->
      <g style="fill: #262626" transform="translate(713.652301 401.758438) scale(0.1 -0.1)">
       <use xlink:href="#DejaVuSans-32"/>
       <use xlink:href="#DejaVuSans-30" x="63.623047"/>
       <use xlink:href="#DejaVuSans-2d" x="127.246094"/>
       <use xlink:href="#DejaVuSans-34" x="163.330078"/>
       <use xlink:href="#DejaVuSans-30" x="226.953125"/>
       <use xlink:href="#DejaVuSans-25" x="290.576172"/>
      </g>
     </g>
    </g>
    <g id="xtick_7">
     <g id="text_20">
      <!-- 40-60% -->
      <g style="fill: #262626" transform="translate(760.440597 401.758438) scale(0.1 -0.1)">
       <use xlink:href="#DejaVuSans-34"/>
       <use xlink:href="#DejaVuSans-30" x="63.623047"/>
       <use xlink:href="#DejaVuSans-2d" x="127.246094"/>
       <use xlink:href="#DejaVuSans-36" x="163.330078"/>
       <use xlink:href="#DejaVuSans-30" x="226.953125"/>
       <use xlink:href="#DejaVuSans-25" x="290.576172"/>
      </g>
     </g>
    </g>
    <g id="xtick_8">
     <g id="text_21">
      <!-- 80-100% -->
      <g style="fill: #262626" transform="translate(804.047642 401.758438) scale(0.1 -0.1)">
       <use xlink:href="#DejaVuSans-38"/>
       <use xlink:href="#DejaVuSans-30" x="63.623047"/>
       <use xlink:href="#DejaVuSans-2d" x="127.246094"/>
       <use xlink:href="#DejaVuSans-31" x="163.330078"/>
       <use xlink:href="#DejaVuSans-30" x="226.953125"/>
       <use xlink:href="#DejaVuSans-30" x="290.576172"/>
       <use xlink:href="#DejaVuSans-25" x="354.199219"/>
      </g>
     </g>
    </g>
    <g id="text_22">
     <!-- Percentage Reduction Range -->
     <g style="fill: #262626" transform="translate(684.18473 415.436563) scale(0.1 -0.1)">
      <use xlink:href="#DejaVuSans-50"/>
      <use xlink:href="#DejaVuSans-65" x="56.677734"/>
      <use xlink:href="#DejaVuSans-72" x="118.201172"/>
      <use xlink:href="#DejaVuSans-63" x="157.064453"/>
      <use xlink:href="#DejaVuSans-65" x="212.044922"/>
      <use xlink:href="#DejaVuSans-6e" x="273.568359"/>
      <use xlink:href="#DejaVuSans-74" x="336.947266"/>
      <use xlink:href="#DejaVuSans-61" x="376.15625"/>
      <use xlink:href="#DejaVuSans-67" x="437.435547"/>
      <use xlink:href="#DejaVuSans-65" x="500.912109"/>
      <use xlink:href="#DejaVuSans-20" x="562.435547"/>
      <use xlink:href="#DejaVuSans-52" x="594.222656"/>
      <use xlink:href="#DejaVuSans-65" x="659.205078"/>
      <use xlink:href="#DejaVuSans-64" x="720.728516"/>
      <use xlink:href="#DejaVuSans-75" x="784.205078"/>
      <use xlink:href="#DejaVuSans-63" x="847.583984"/>
      <use xlink:href="#DejaVuSans-74" x="902.564453"/>
      <use xlink:href="#DejaVuSans-69" x="941.773438"/>
      <use xlink:href="#DejaVuSans-6f" x="969.556641"/>
      <use xlink:href="#DejaVuSans-6e" x="1030.738281"/>
      <use xlink:href="#DejaVuSans-20" x="1094.117188"/>
      <use xlink:href="#DejaVuSans-52" x="1125.904297"/>
      <use xlink:href="#DejaVuSans-61" x="1193.136719"/>
      <use xlink:href="#DejaVuSans-6e" x="1254.416016"/>
      <use xlink:href="#DejaVuSans-67" x="1317.794922"/>
      <use xlink:href="#DejaVuSans-65" x="1381.271484"/>
     </g>
    </g>
   </g>
   <g id="matplotlib.axis_4">
    <g id="ytick_10">
     <g id="line2d_26">
      <path d="M 662.749545 387.16 
L 849.902727 387.16 
" clip-path="url(#pa993fb5647)" style="fill: none; stroke: #cccccc; stroke-width: 0.8; stroke-linecap: round"/>
     </g>
     <g id="text_23">
      <!-- 0 -->
      <g style="fill: #262626" transform="translate(649.387045 390.959219) scale(0.1 -0.1)">
       <use xlink:href="#DejaVuSans-30"/>
      </g>
     </g>
    </g>
    <g id="ytick_11">
     <g id="line2d_27">
      <path d="M 662.749545 330.242484 
L 849.902727 330.242484 
" clip-path="url(#pa993fb5647)" style="fill: none; stroke: #cccccc; stroke-width: 0.8; stroke-linecap: round"/>
     </g>
     <g id="text_24">
      <!-- 5 -->
      <g style="fill: #262626" transform="translate(649.387045 334.041703) scale(0.1 -0.1)">
       <defs>
        <path id="DejaVuSans-35" d="M 691 4666 
L 3169 4666 
L 3169 4134 
L 1269 4134 
L 1269 2991 
Q 1406 3038 1543 3061 
Q 1681 3084 1819 3084 
Q 2600 3084 3056 2656 
Q 3513 2228 3513 1497 
Q 3513 744 3044 326 
Q 2575 -91 1722 -91 
Q 1428 -91 1123 -41 
Q 819 9 494 109 
L 494 744 
Q 775 591 1075 516 
Q 1375 441 1709 441 
Q 2250 441 2565 725 
Q 2881 1009 2881 1497 
Q 2881 1984 2565 2268 
Q 2250 2553 1709 2553 
Q 1456 2553 1204 2497 
Q 953 2441 691 2322 
L 691 4666 
z
" transform="scale(0.015625)"/>
       </defs>
       <use xlink:href="#DejaVuSans-35"/>
      </g>
     </g>
    </g>
    <g id="ytick_12">
     <g id="line2d_28">
      <path d="M 662.749545 273.324968 
L 849.902727 273.324968 
" clip-path="url(#pa993fb5647)" style="fill: none; stroke: #cccccc; stroke-width: 0.8; stroke-linecap: round"/>
     </g>
     <g id="text_25">
      <!-- 10 -->
      <g style="fill: #262626" transform="translate(643.024545 277.124187) scale(0.1 -0.1)">
       <use xlink:href="#DejaVuSans-31"/>
       <use xlink:href="#DejaVuSans-30" x="63.623047"/>
      </g>
     </g>
    </g>
    <g id="ytick_13">
     <g id="line2d_29">
      <path d="M 662.749545 216.407453 
L 849.902727 216.407453 
" clip-path="url(#pa993fb5647)" style="fill: none; stroke: #cccccc; stroke-width: 0.8; stroke-linecap: round"/>
     </g>
     <g id="text_26">
      <!-- 15 -->
      <g style="fill: #262626" transform="translate(643.024545 220.206671) scale(0.1 -0.1)">
       <use xlink:href="#DejaVuSans-31"/>
       <use xlink:href="#DejaVuSans-35" x="63.623047"/>
      </g>
     </g>
    </g>
    <g id="ytick_14">
     <g id="line2d_30">
      <path d="M 662.749545 159.489937 
L 849.902727 159.489937 
" clip-path="url(#pa993fb5647)" style="fill: none; stroke: #cccccc; stroke-width: 0.8; stroke-linecap: round"/>
     </g>
     <g id="text_27">
      <!-- 20 -->
      <g style="fill: #262626" transform="translate(643.024545 163.289156) scale(0.1 -0.1)">
       <use xlink:href="#DejaVuSans-32"/>
       <use xlink:href="#DejaVuSans-30" x="63.623047"/>
      </g>
     </g>
    </g>
    <g id="ytick_15">
     <g id="line2d_31">
      <path d="M 662.749545 102.572421 
L 849.902727 102.572421 
" clip-path="url(#pa993fb5647)" style="fill: none; stroke: #cccccc; stroke-width: 0.8; stroke-linecap: round"/>
     </g>
     <g id="text_28">
      <!-- 25 -->
      <g style="fill: #262626" transform="translate(643.024545 106.37164) scale(0.1 -0.1)">
       <use xlink:href="#DejaVuSans-32"/>
       <use xlink:href="#DejaVuSans-35" x="63.623047"/>
      </g>
     </g>
    </g>
    <g id="ytick_16">
     <g id="line2d_32">
      <path d="M 662.749545 45.654905 
L 849.902727 45.654905 
" clip-path="url(#pa993fb5647)" style="fill: none; stroke: #cccccc; stroke-width: 0.8; stroke-linecap: round"/>
     </g>
     <g id="text_29">
      <!-- 30 -->
      <g style="fill: #262626" transform="translate(643.024545 49.454124) scale(0.1 -0.1)">
       <defs>
        <path id="DejaVuSans-33" d="M 2597 2516 
Q 3050 2419 3304 2112 
Q 3559 1806 3559 1356 
Q 3559 666 3084 287 
Q 2609 -91 1734 -91 
Q 1441 -91 1130 -33 
Q 819 25 488 141 
L 488 750 
Q 750 597 1062 519 
Q 1375 441 1716 441 
Q 2309 441 2620 675 
Q 2931 909 2931 1356 
Q 2931 1769 2642 2001 
Q 2353 2234 1838 2234 
L 1294 2234 
L 1294 2753 
L 1863 2753 
Q 2328 2753 2575 2939 
Q 2822 3125 2822 3475 
Q 2822 3834 2567 4026 
Q 2313 4219 1838 4219 
Q 1578 4219 1281 4162 
Q 984 4106 628 3988 
L 628 4550 
Q 988 4650 1302 4700 
Q 1616 4750 1894 4750 
Q 2613 4750 3031 4423 
Q 3450 4097 3450 3541 
Q 3450 3153 3228 2886 
Q 3006 2619 2597 2516 
z
" transform="scale(0.015625)"/>
       </defs>
       <use xlink:href="#DejaVuSans-33"/>
       <use xlink:href="#DejaVuSans-30" x="63.623047"/>
      </g>
     </g>
    </g>
    <g id="text_30">
     <!-- Percentage of Videos [%] -->
     <g style="fill: #262626" transform="translate(636.52892 274.548125) rotate(-90) scale(0.12 -0.12)">
      <use xlink:href="#DejaVuSans-50"/>
      <use xlink:href="#DejaVuSans-65" x="56.677734"/>
      <use xlink:href="#DejaVuSans-72" x="118.201172"/>
      <use xlink:href="#DejaVuSans-63" x="157.064453"/>
      <use xlink:href="#DejaVuSans-65" x="212.044922"/>
      <use xlink:href="#DejaVuSans-6e" x="273.568359"/>
      <use xlink:href="#DejaVuSans-74" x="336.947266"/>
      <use xlink:href="#DejaVuSans-61" x="376.15625"/>
      <use xlink:href="#DejaVuSans-67" x="437.435547"/>
      <use xlink:href="#DejaVuSans-65" x="500.912109"/>
      <use xlink:href="#DejaVuSans-20" x="562.435547"/>
      <use xlink:href="#DejaVuSans-6f" x="594.222656"/>
      <use xlink:href="#DejaVuSans-66" x="655.404297"/>
      <use xlink:href="#DejaVuSans-20" x="690.609375"/>
      <use xlink:href="#DejaVuSans-56" x="722.396484"/>
      <use xlink:href="#DejaVuSans-69" x="788.554688"/>
      <use xlink:href="#DejaVuSans-64" x="816.337891"/>
      <use xlink:href="#DejaVuSans-65" x="879.814453"/>
      <use xlink:href="#DejaVuSans-6f" x="941.337891"/>
      <use xlink:href="#DejaVuSans-73" x="1002.519531"/>
      <use xlink:href="#DejaVuSans-20" x="1054.619141"/>
      <use xlink:href="#DejaVuSans-5b" x="1086.40625"/>
      <use xlink:href="#DejaVuSans-25" x="1125.419922"/>
      <use xlink:href="#DejaVuSans-5d" x="1220.439453"/>
     </g>
    </g>
   </g>
   <g id="patch_13">
    <path d="M 672.107205 387.16 
L 700.180182 387.16 
L 700.180182 28.721905 
L 672.107205 28.721905 
z
" clip-path="url(#pa993fb5647)" style="fill: #3274a1"/>
   </g>
   <g id="patch_14">
    <path d="M 718.8955 387.16 
L 746.968477 387.16 
L 746.968477 214.921452 
L 718.8955 214.921452 
z
" clip-path="url(#pa993fb5647)" style="fill: #e1812c"/>
   </g>
   <g id="patch_15">
    <path d="M 765.683795 387.16 
L 793.756773 387.16 
L 793.756773 353.738212 
L 765.683795 353.738212 
z
" clip-path="url(#pa993fb5647)" style="fill: #3a923a"/>
   </g>
   <g id="patch_16">
    <path d="M 812.472091 387.16 
L 840.545068 387.16 
L 840.545068 382.083273 
L 812.472091 382.083273 
z
" clip-path="url(#pa993fb5647)" style="fill: #c03d3e"/>
   </g>
   <g id="line2d_33">
    <path d="M 686.143693 28.721905 
L 686.143693 28.721905 
" clip-path="url(#pa993fb5647)" style="fill: none; stroke: #424242; stroke-width: 2.7; stroke-linecap: round"/>
   </g>
   <g id="line2d_34">
    <path d="M 732.931989 214.921452 
L 732.931989 214.921452 
" clip-path="url(#pa993fb5647)" style="fill: none; stroke: #424242; stroke-width: 2.7; stroke-linecap: round"/>
   </g>
   <g id="line2d_35">
    <path d="M 779.720284 353.738212 
L 779.720284 353.738212 
" clip-path="url(#pa993fb5647)" style="fill: none; stroke: #424242; stroke-width: 2.7; stroke-linecap: round"/>
   </g>
   <g id="line2d_36">
    <path d="M 826.50858 382.083273 
L 826.50858 382.083273 
" clip-path="url(#pa993fb5647)" style="fill: none; stroke: #424242; stroke-width: 2.7; stroke-linecap: round"/>
   </g>
   <g id="patch_17">
    <path d="M 662.749545 387.16 
L 662.749545 10.8 
" style="fill: none; stroke: #cccccc; stroke-width: 0.8; stroke-linejoin: miter; stroke-linecap: square"/>
   </g>
   <g id="patch_18">
    <path d="M 849.902727 387.16 
L 849.902727 10.8 
" style="fill: none; stroke: #cccccc; stroke-width: 0.8; stroke-linejoin: miter; stroke-linecap: square"/>
   </g>
   <g id="patch_19">
    <path d="M 662.749545 387.16 
L 849.902727 387.16 
" style="fill: none; stroke: #cccccc; stroke-width: 0.8; stroke-linejoin: miter; stroke-linecap: square"/>
   </g>
   <g id="patch_20">
    <path d="M 662.749545 10.8 
L 849.902727 10.8 
" style="fill: none; stroke: #cccccc; stroke-width: 0.8; stroke-linejoin: miter; stroke-linecap: square"/>
   </g>
  </g>
 </g>
 <defs>
  <clipPath id="p976c976be1">
   <rect x="53.84" y="10.8" width="561.459545" height="376.36"/>
  </clipPath>
  <clipPath id="pa993fb5647">
   <rect x="662.749545" y="10.8" width="187.153182" height="376.36"/>
  </clipPath>
 </defs>
</svg>
