<?xml version="1.0" encoding="utf-8" standalone="no"?>
<!DOCTYPE svg PUBLIC "-//W3C//DTD SVG 1.1//EN"
  "http://www.w3.org/Graphics/SVG/1.1/DTD/svg11.dtd">
<svg xmlns:xlink="http://www.w3.org/1999/xlink" width="864pt" height="432pt" viewBox="0 0 864 432" xmlns="http://www.w3.org/2000/svg" version="1.1">
 <metadata>
  <rdf:RDF xmlns:dc="http://purl.org/dc/elements/1.1/" xmlns:cc="http://creativecommons.org/ns#" xmlns:rdf="http://www.w3.org/1999/02/22-rdf-syntax-ns#">
   <cc:Work>
    <dc:type rdf:resource="http://purl.org/dc/dcmitype/StillImage"/>
    <dc:date>2023-04-28T13:50:52.629855</dc:date>
    <dc:format>image/svg+xml</dc:format>
    <dc:creator>
     <cc:Agent>
      <dc:title>Matplotlib v3.7.1, https://matplotlib.org/</dc:title>
     </cc:Agent>
    </dc:creator>
   </cc:Work>
  </rdf:RDF>
 </metadata>
 <defs>
  <style type="text/css">*{stroke-linejoin: round; stroke-linecap: butt}</style>
 </defs>
 <g id="figure_1">
  <g id="patch_1">
   <path d="M 0 432 
L 864 432 
L 864 0 
L 0 0 
z
" style="fill: #ffffff"/>
  </g>
  <g id="axes_1">
   <g id="patch_2">
    <path d="M 47.45 387.16 
L 613.702045 387.16 
L 613.702045 10.8 
L 47.45 10.8 
z
" style="fill: #ffffff"/>
   </g>
   <g id="matplotlib.axis_1">
    <g id="xtick_1">
     <g id="text_1">
      <!-- 0-20% -->
      <g style="fill: #262626" transform="translate(102.133068 401.758438) scale(0.1 -0.1)">
       <defs>
        <path id="DejaVuSans-30" d="M 2034 4250 
Q 1547 4250 1301 3770 
Q 1056 3291 1056 2328 
Q 1056 1369 1301 889 
Q 1547 409 2034 409 
Q 2525 409 2770 889 
Q 3016 1369 3016 2328 
Q 3016 3291 2770 3770 
Q 2525 4250 2034 4250 
z
M 2034 4750 
Q 2819 4750 3233 4129 
Q 3647 3509 3647 2328 
Q 3647 1150 3233 529 
Q 2819 -91 2034 -91 
Q 1250 -91 836 529 
Q 422 1150 422 2328 
Q 422 3509 836 4129 
Q 1250 4750 2034 4750 
z
" transform="scale(0.015625)"/>
        <path id="DejaVuSans-2d" d="M 313 2009 
L 1997 2009 
L 1997 1497 
L 313 1497 
L 313 2009 
z
" transform="scale(0.015625)"/>
        <path id="DejaVuSans-32" d="M 1228 531 
L 3431 531 
L 3431 0 
L 469 0 
L 469 531 
Q 828 903 1448 1529 
Q 2069 2156 2228 2338 
Q 2531 2678 2651 2914 
Q 2772 3150 2772 3378 
Q 2772 3750 2511 3984 
Q 2250 4219 1831 4219 
Q 1534 4219 1204 4116 
Q 875 4013 500 3803 
L 500 4441 
Q 881 4594 1212 4672 
Q 1544 4750 1819 4750 
Q 2544 4750 2975 4387 
Q 3406 4025 3406 3419 
Q 3406 3131 3298 2873 
Q 3191 2616 2906 2266 
Q 2828 2175 2409 1742 
Q 1991 1309 1228 531 
z
" transform="scale(0.015625)"/>
        <path id="DejaVuSans-25" d="M 4653 2053 
Q 4381 2053 4226 1822 
Q 4072 1591 4072 1178 
Q 4072 772 4226 539 
Q 4381 306 4653 306 
Q 4919 306 5073 539 
Q 5228 772 5228 1178 
Q 5228 1588 5073 1820 
Q 4919 2053 4653 2053 
z
M 4653 2450 
Q 5147 2450 5437 2106 
Q 5728 1763 5728 1178 
Q 5728 594 5436 251 
Q 5144 -91 4653 -91 
Q 4153 -91 3862 251 
Q 3572 594 3572 1178 
Q 3572 1766 3864 2108 
Q 4156 2450 4653 2450 
z
M 1428 4353 
Q 1159 4353 1004 4120 
Q 850 3888 850 3481 
Q 850 3069 1003 2837 
Q 1156 2606 1428 2606 
Q 1700 2606 1854 2837 
Q 2009 3069 2009 3481 
Q 2009 3884 1853 4118 
Q 1697 4353 1428 4353 
z
M 4250 4750 
L 4750 4750 
L 1831 -91 
L 1331 -91 
L 4250 4750 
z
M 1428 4750 
Q 1922 4750 2215 4408 
Q 2509 4066 2509 3481 
Q 2509 2891 2217 2550 
Q 1925 2209 1428 2209 
Q 931 2209 642 2551 
Q 353 2894 353 3481 
Q 353 4063 643 4406 
Q 934 4750 1428 4750 
z
" transform="scale(0.015625)"/>
       </defs>
       <use xlink:href="#DejaVuSans-30"/>
       <use xlink:href="#DejaVuSans-2d" x="63.623047"/>
       <use xlink:href="#DejaVuSans-32" x="99.707031"/>
       <use xlink:href="#DejaVuSans-30" x="163.330078"/>
       <use xlink:href="#DejaVuSans-25" x="226.953125"/>
      </g>
     </g>
    </g>
    <g id="xtick_2">
     <g id="text_2">
      <!-- 20-40% -->
      <g style="fill: #262626" transform="translate(240.51483 401.758438) scale(0.1 -0.1)">
       <defs>
        <path id="DejaVuSans-34" d="M 2419 4116 
L 825 1625 
L 2419 1625 
L 2419 4116 
z
M 2253 4666 
L 3047 4666 
L 3047 1625 
L 3713 1625 
L 3713 1100 
L 3047 1100 
L 3047 0 
L 2419 0 
L 2419 1100 
L 313 1100 
L 313 1709 
L 2253 4666 
z
" transform="scale(0.015625)"/>
       </defs>
       <use xlink:href="#DejaVuSans-32"/>
       <use xlink:href="#DejaVuSans-30" x="63.623047"/>
       <use xlink:href="#DejaVuSans-2d" x="127.246094"/>
       <use xlink:href="#DejaVuSans-34" x="163.330078"/>
       <use xlink:href="#DejaVuSans-30" x="226.953125"/>
       <use xlink:href="#DejaVuSans-25" x="290.576172"/>
      </g>
     </g>
    </g>
    <g id="xtick_3">
     <g id="text_3">
      <!-- 40-60% -->
      <g style="fill: #262626" transform="translate(382.077841 401.758438) scale(0.1 -0.1)">
       <defs>
        <path id="DejaVuSans-36" d="M 2113 2584 
Q 1688 2584 1439 2293 
Q 1191 2003 1191 1497 
Q 1191 994 1439 701 
Q 1688 409 2113 409 
Q 2538 409 2786 701 
Q 3034 994 3034 1497 
Q 3034 2003 2786 2293 
Q 2538 2584 2113 2584 
z
M 3366 4563 
L 3366 3988 
Q 3128 4100 2886 4159 
Q 2644 4219 2406 4219 
Q 1781 4219 1451 3797 
Q 1122 3375 1075 2522 
Q 1259 2794 1537 2939 
Q 1816 3084 2150 3084 
Q 2853 3084 3261 2657 
Q 3669 2231 3669 1497 
Q 3669 778 3244 343 
Q 2819 -91 2113 -91 
Q 1303 -91 875 529 
Q 447 1150 447 2328 
Q 447 3434 972 4092 
Q 1497 4750 2381 4750 
Q 2619 4750 2861 4703 
Q 3103 4656 3366 4563 
z
" transform="scale(0.015625)"/>
       </defs>
       <use xlink:href="#DejaVuSans-34"/>
       <use xlink:href="#DejaVuSans-30" x="63.623047"/>
       <use xlink:href="#DejaVuSans-2d" x="127.246094"/>
       <use xlink:href="#DejaVuSans-36" x="163.330078"/>
       <use xlink:href="#DejaVuSans-30" x="226.953125"/>
       <use xlink:href="#DejaVuSans-25" x="290.576172"/>
      </g>
     </g>
    </g>
    <g id="xtick_4">
     <g id="text_4">
      <!-- 80-100% -->
      <g style="fill: #262626" transform="translate(520.459602 401.758438) scale(0.1 -0.1)">
       <defs>
        <path id="DejaVuSans-38" d="M 2034 2216 
Q 1584 2216 1326 1975 
Q 1069 1734 1069 1313 
Q 1069 891 1326 650 
Q 1584 409 2034 409 
Q 2484 409 2743 651 
Q 3003 894 3003 1313 
Q 3003 1734 2745 1975 
Q 2488 2216 2034 2216 
z
M 1403 2484 
Q 997 2584 770 2862 
Q 544 3141 544 3541 
Q 544 4100 942 4425 
Q 1341 4750 2034 4750 
Q 2731 4750 3128 4425 
Q 3525 4100 3525 3541 
Q 3525 3141 3298 2862 
Q 3072 2584 2669 2484 
Q 3125 2378 3379 2068 
Q 3634 1759 3634 1313 
Q 3634 634 3220 271 
Q 2806 -91 2034 -91 
Q 1263 -91 848 271 
Q 434 634 434 1313 
Q 434 1759 690 2068 
Q 947 2378 1403 2484 
z
M 1172 3481 
Q 1172 3119 1398 2916 
Q 1625 2713 2034 2713 
Q 2441 2713 2670 2916 
Q 2900 3119 2900 3481 
Q 2900 3844 2670 4047 
Q 2441 4250 2034 4250 
Q 1625 4250 1398 4047 
Q 1172 3844 1172 3481 
z
" transform="scale(0.015625)"/>
        <path id="DejaVuSans-31" d="M 794 531 
L 1825 531 
L 1825 4091 
L 703 3866 
L 703 4441 
L 1819 4666 
L 2450 4666 
L 2450 531 
L 3481 531 
L 3481 0 
L 794 0 
L 794 531 
z
" transform="scale(0.015625)"/>
       </defs>
       <use xlink:href="#DejaVuSans-38"/>
       <use xlink:href="#DejaVuSans-30" x="63.623047"/>
       <use xlink:href="#DejaVuSans-2d" x="127.246094"/>
       <use xlink:href="#DejaVuSans-31" x="163.330078"/>
       <use xlink:href="#DejaVuSans-30" x="226.953125"/>
       <use xlink:href="#DejaVuSans-30" x="290.576172"/>
       <use xlink:href="#DejaVuSans-25" x="354.199219"/>
      </g>
     </g>
    </g>
    <g id="text_5">
     <!-- Percentage Reduction Range -->
     <g style="fill: #262626" transform="translate(244.006335 416.95625) scale(0.12 -0.12)">
      <defs>
       <path id="DejaVuSans-50" d="M 1259 4147 
L 1259 2394 
L 2053 2394 
Q 2494 2394 2734 2622 
Q 2975 2850 2975 3272 
Q 2975 3691 2734 3919 
Q 2494 4147 2053 4147 
L 1259 4147 
z
M 628 4666 
L 2053 4666 
Q 2838 4666 3239 4311 
Q 3641 3956 3641 3272 
Q 3641 2581 3239 2228 
Q 2838 1875 2053 1875 
L 1259 1875 
L 1259 0 
L 628 0 
L 628 4666 
z
" transform="scale(0.015625)"/>
       <path id="DejaVuSans-65" d="M 3597 1894 
L 3597 1613 
L 953 1613 
Q 991 1019 1311 708 
Q 1631 397 2203 397 
Q 2534 397 2845 478 
Q 3156 559 3463 722 
L 3463 178 
Q 3153 47 2828 -22 
Q 2503 -91 2169 -91 
Q 1331 -91 842 396 
Q 353 884 353 1716 
Q 353 2575 817 3079 
Q 1281 3584 2069 3584 
Q 2775 3584 3186 3129 
Q 3597 2675 3597 1894 
z
M 3022 2063 
Q 3016 2534 2758 2815 
Q 2500 3097 2075 3097 
Q 1594 3097 1305 2825 
Q 1016 2553 972 2059 
L 3022 2063 
z
" transform="scale(0.015625)"/>
       <path id="DejaVuSans-72" d="M 2631 2963 
Q 2534 3019 2420 3045 
Q 2306 3072 2169 3072 
Q 1681 3072 1420 2755 
Q 1159 2438 1159 1844 
L 1159 0 
L 581 0 
L 581 3500 
L 1159 3500 
L 1159 2956 
Q 1341 3275 1631 3429 
Q 1922 3584 2338 3584 
Q 2397 3584 2469 3576 
Q 2541 3569 2628 3553 
L 2631 2963 
z
" transform="scale(0.015625)"/>
       <path id="DejaVuSans-63" d="M 3122 3366 
L 3122 2828 
Q 2878 2963 2633 3030 
Q 2388 3097 2138 3097 
Q 1578 3097 1268 2742 
Q 959 2388 959 1747 
Q 959 1106 1268 751 
Q 1578 397 2138 397 
Q 2388 397 2633 464 
Q 2878 531 3122 666 
L 3122 134 
Q 2881 22 2623 -34 
Q 2366 -91 2075 -91 
Q 1284 -91 818 406 
Q 353 903 353 1747 
Q 353 2603 823 3093 
Q 1294 3584 2113 3584 
Q 2378 3584 2631 3529 
Q 2884 3475 3122 3366 
z
" transform="scale(0.015625)"/>
       <path id="DejaVuSans-6e" d="M 3513 2113 
L 3513 0 
L 2938 0 
L 2938 2094 
Q 2938 2591 2744 2837 
Q 2550 3084 2163 3084 
Q 1697 3084 1428 2787 
Q 1159 2491 1159 1978 
L 1159 0 
L 581 0 
L 581 3500 
L 1159 3500 
L 1159 2956 
Q 1366 3272 1645 3428 
Q 1925 3584 2291 3584 
Q 2894 3584 3203 3211 
Q 3513 2838 3513 2113 
z
" transform="scale(0.015625)"/>
       <path id="DejaVuSans-74" d="M 1172 4494 
L 1172 3500 
L 2356 3500 
L 2356 3053 
L 1172 3053 
L 1172 1153 
Q 1172 725 1289 603 
Q 1406 481 1766 481 
L 2356 481 
L 2356 0 
L 1766 0 
Q 1100 0 847 248 
Q 594 497 594 1153 
L 594 3053 
L 172 3053 
L 172 3500 
L 594 3500 
L 594 4494 
L 1172 4494 
z
" transform="scale(0.015625)"/>
       <path id="DejaVuSans-61" d="M 2194 1759 
Q 1497 1759 1228 1600 
Q 959 1441 959 1056 
Q 959 750 1161 570 
Q 1363 391 1709 391 
Q 2188 391 2477 730 
Q 2766 1069 2766 1631 
L 2766 1759 
L 2194 1759 
z
M 3341 1997 
L 3341 0 
L 2766 0 
L 2766 531 
Q 2569 213 2275 61 
Q 1981 -91 1556 -91 
Q 1019 -91 701 211 
Q 384 513 384 1019 
Q 384 1609 779 1909 
Q 1175 2209 1959 2209 
L 2766 2209 
L 2766 2266 
Q 2766 2663 2505 2880 
Q 2244 3097 1772 3097 
Q 1472 3097 1187 3025 
Q 903 2953 641 2809 
L 641 3341 
Q 956 3463 1253 3523 
Q 1550 3584 1831 3584 
Q 2591 3584 2966 3190 
Q 3341 2797 3341 1997 
z
" transform="scale(0.015625)"/>
       <path id="DejaVuSans-67" d="M 2906 1791 
Q 2906 2416 2648 2759 
Q 2391 3103 1925 3103 
Q 1463 3103 1205 2759 
Q 947 2416 947 1791 
Q 947 1169 1205 825 
Q 1463 481 1925 481 
Q 2391 481 2648 825 
Q 2906 1169 2906 1791 
z
M 3481 434 
Q 3481 -459 3084 -895 
Q 2688 -1331 1869 -1331 
Q 1566 -1331 1297 -1286 
Q 1028 -1241 775 -1147 
L 775 -588 
Q 1028 -725 1275 -790 
Q 1522 -856 1778 -856 
Q 2344 -856 2625 -561 
Q 2906 -266 2906 331 
L 2906 616 
Q 2728 306 2450 153 
Q 2172 0 1784 0 
Q 1141 0 747 490 
Q 353 981 353 1791 
Q 353 2603 747 3093 
Q 1141 3584 1784 3584 
Q 2172 3584 2450 3431 
Q 2728 3278 2906 2969 
L 2906 3500 
L 3481 3500 
L 3481 434 
z
" transform="scale(0.015625)"/>
       <path id="DejaVuSans-20" transform="scale(0.015625)"/>
       <path id="DejaVuSans-52" d="M 2841 2188 
Q 3044 2119 3236 1894 
Q 3428 1669 3622 1275 
L 4263 0 
L 3584 0 
L 2988 1197 
Q 2756 1666 2539 1819 
Q 2322 1972 1947 1972 
L 1259 1972 
L 1259 0 
L 628 0 
L 628 4666 
L 2053 4666 
Q 2853 4666 3247 4331 
Q 3641 3997 3641 3322 
Q 3641 2881 3436 2590 
Q 3231 2300 2841 2188 
z
M 1259 4147 
L 1259 2491 
L 2053 2491 
Q 2509 2491 2742 2702 
Q 2975 2913 2975 3322 
Q 2975 3731 2742 3939 
Q 2509 4147 2053 4147 
L 1259 4147 
z
" transform="scale(0.015625)"/>
       <path id="DejaVuSans-64" d="M 2906 2969 
L 2906 4863 
L 3481 4863 
L 3481 0 
L 2906 0 
L 2906 525 
Q 2725 213 2448 61 
Q 2172 -91 1784 -91 
Q 1150 -91 751 415 
Q 353 922 353 1747 
Q 353 2572 751 3078 
Q 1150 3584 1784 3584 
Q 2172 3584 2448 3432 
Q 2725 3281 2906 2969 
z
M 947 1747 
Q 947 1113 1208 752 
Q 1469 391 1925 391 
Q 2381 391 2643 752 
Q 2906 1113 2906 1747 
Q 2906 2381 2643 2742 
Q 2381 3103 1925 3103 
Q 1469 3103 1208 2742 
Q 947 2381 947 1747 
z
" transform="scale(0.015625)"/>
       <path id="DejaVuSans-75" d="M 544 1381 
L 544 3500 
L 1119 3500 
L 1119 1403 
Q 1119 906 1312 657 
Q 1506 409 1894 409 
Q 2359 409 2629 706 
Q 2900 1003 2900 1516 
L 2900 3500 
L 3475 3500 
L 3475 0 
L 2900 0 
L 2900 538 
Q 2691 219 2414 64 
Q 2138 -91 1772 -91 
Q 1169 -91 856 284 
Q 544 659 544 1381 
z
M 1991 3584 
L 1991 3584 
z
" transform="scale(0.015625)"/>
       <path id="DejaVuSans-69" d="M 603 3500 
L 1178 3500 
L 1178 0 
L 603 0 
L 603 3500 
z
M 603 4863 
L 1178 4863 
L 1178 4134 
L 603 4134 
L 603 4863 
z
" transform="scale(0.015625)"/>
       <path id="DejaVuSans-6f" d="M 1959 3097 
Q 1497 3097 1228 2736 
Q 959 2375 959 1747 
Q 959 1119 1226 758 
Q 1494 397 1959 397 
Q 2419 397 2687 759 
Q 2956 1122 2956 1747 
Q 2956 2369 2687 2733 
Q 2419 3097 1959 3097 
z
M 1959 3584 
Q 2709 3584 3137 3096 
Q 3566 2609 3566 1747 
Q 3566 888 3137 398 
Q 2709 -91 1959 -91 
Q 1206 -91 779 398 
Q 353 888 353 1747 
Q 353 2609 779 3096 
Q 1206 3584 1959 3584 
z
" transform="scale(0.015625)"/>
      </defs>
      <use xlink:href="#DejaVuSans-50"/>
      <use xlink:href="#DejaVuSans-65" x="56.677734"/>
      <use xlink:href="#DejaVuSans-72" x="118.201172"/>
      <use xlink:href="#DejaVuSans-63" x="157.064453"/>
      <use xlink:href="#DejaVuSans-65" x="212.044922"/>
      <use xlink:href="#DejaVuSans-6e" x="273.568359"/>
      <use xlink:href="#DejaVuSans-74" x="336.947266"/>
      <use xlink:href="#DejaVuSans-61" x="376.15625"/>
      <use xlink:href="#DejaVuSans-67" x="437.435547"/>
      <use xlink:href="#DejaVuSans-65" x="500.912109"/>
      <use xlink:href="#DejaVuSans-20" x="562.435547"/>
      <use xlink:href="#DejaVuSans-52" x="594.222656"/>
      <use xlink:href="#DejaVuSans-65" x="659.205078"/>
      <use xlink:href="#DejaVuSans-64" x="720.728516"/>
      <use xlink:href="#DejaVuSans-75" x="784.205078"/>
      <use xlink:href="#DejaVuSans-63" x="847.583984"/>
      <use xlink:href="#DejaVuSans-74" x="902.564453"/>
      <use xlink:href="#DejaVuSans-69" x="941.773438"/>
      <use xlink:href="#DejaVuSans-6f" x="969.556641"/>
      <use xlink:href="#DejaVuSans-6e" x="1030.738281"/>
      <use xlink:href="#DejaVuSans-20" x="1094.117188"/>
      <use xlink:href="#DejaVuSans-52" x="1125.904297"/>
      <use xlink:href="#DejaVuSans-61" x="1193.136719"/>
      <use xlink:href="#DejaVuSans-6e" x="1254.416016"/>
      <use xlink:href="#DejaVuSans-67" x="1317.794922"/>
      <use xlink:href="#DejaVuSans-65" x="1381.271484"/>
     </g>
    </g>
   </g>
   <g id="matplotlib.axis_2">
    <g id="ytick_1">
     <g id="line2d_1">
      <path d="M 47.45 342.889604 
L 613.702045 342.889604 
" clip-path="url(#p6244b15960)" style="fill: none; stroke: #cccccc; stroke-width: 0.8; stroke-linecap: round"/>
     </g>
     <g id="text_6">
      <!-- 0 -->
      <g style="fill: #262626" transform="translate(34.0875 346.688822) scale(0.1 -0.1)">
       <use xlink:href="#DejaVuSans-30"/>
      </g>
     </g>
    </g>
    <g id="ytick_2">
     <g id="line2d_2">
      <path d="M 47.45 272.194125 
L 613.702045 272.194125 
" clip-path="url(#p6244b15960)" style="fill: none; stroke: #cccccc; stroke-width: 0.8; stroke-linecap: round"/>
     </g>
     <g id="text_7">
      <!-- 20 -->
      <g style="fill: #262626" transform="translate(27.725 275.993343) scale(0.1 -0.1)">
       <use xlink:href="#DejaVuSans-32"/>
       <use xlink:href="#DejaVuSans-30" x="63.623047"/>
      </g>
     </g>
    </g>
    <g id="ytick_3">
     <g id="line2d_3">
      <path d="M 47.45 201.498646 
L 613.702045 201.498646 
" clip-path="url(#p6244b15960)" style="fill: none; stroke: #cccccc; stroke-width: 0.8; stroke-linecap: round"/>
     </g>
     <g id="text_8">
      <!-- 40 -->
      <g style="fill: #262626" transform="translate(27.725 205.297864) scale(0.1 -0.1)">
       <use xlink:href="#DejaVuSans-34"/>
       <use xlink:href="#DejaVuSans-30" x="63.623047"/>
      </g>
     </g>
    </g>
    <g id="ytick_4">
     <g id="line2d_4">
      <path d="M 47.45 130.803167 
L 613.702045 130.803167 
" clip-path="url(#p6244b15960)" style="fill: none; stroke: #cccccc; stroke-width: 0.8; stroke-linecap: round"/>
     </g>
     <g id="text_9">
      <!-- 60 -->
      <g style="fill: #262626" transform="translate(27.725 134.602385) scale(0.1 -0.1)">
       <use xlink:href="#DejaVuSans-36"/>
       <use xlink:href="#DejaVuSans-30" x="63.623047"/>
      </g>
     </g>
    </g>
    <g id="ytick_5">
     <g id="line2d_5">
      <path d="M 47.45 60.107688 
L 613.702045 60.107688 
" clip-path="url(#p6244b15960)" style="fill: none; stroke: #cccccc; stroke-width: 0.8; stroke-linecap: round"/>
     </g>
     <g id="text_10">
      <!-- 80 -->
      <g style="fill: #262626" transform="translate(27.725 63.906906) scale(0.1 -0.1)">
       <use xlink:href="#DejaVuSans-38"/>
       <use xlink:href="#DejaVuSans-30" x="63.623047"/>
      </g>
     </g>
    </g>
    <g id="text_11">
     <!-- Video Length [# frames] -->
     <g style="fill: #262626" transform="translate(21.229375 272.8325) rotate(-90) scale(0.12 -0.12)">
      <defs>
       <path id="DejaVuSans-56" d="M 1831 0 
L 50 4666 
L 709 4666 
L 2188 738 
L 3669 4666 
L 4325 4666 
L 2547 0 
L 1831 0 
z
" transform="scale(0.015625)"/>
       <path id="DejaVuSans-4c" d="M 628 4666 
L 1259 4666 
L 1259 531 
L 3531 531 
L 3531 0 
L 628 0 
L 628 4666 
z
" transform="scale(0.015625)"/>
       <path id="DejaVuSans-68" d="M 3513 2113 
L 3513 0 
L 2938 0 
L 2938 2094 
Q 2938 2591 2744 2837 
Q 2550 3084 2163 3084 
Q 1697 3084 1428 2787 
Q 1159 2491 1159 1978 
L 1159 0 
L 581 0 
L 581 4863 
L 1159 4863 
L 1159 2956 
Q 1366 3272 1645 3428 
Q 1925 3584 2291 3584 
Q 2894 3584 3203 3211 
Q 3513 2838 3513 2113 
z
" transform="scale(0.015625)"/>
       <path id="DejaVuSans-5b" d="M 550 4863 
L 1875 4863 
L 1875 4416 
L 1125 4416 
L 1125 -397 
L 1875 -397 
L 1875 -844 
L 550 -844 
L 550 4863 
z
" transform="scale(0.015625)"/>
       <path id="DejaVuSans-23" d="M 3272 2816 
L 2363 2816 
L 2100 1772 
L 3016 1772 
L 3272 2816 
z
M 2803 4594 
L 2478 3297 
L 3391 3297 
L 3719 4594 
L 4219 4594 
L 3897 3297 
L 4872 3297 
L 4872 2816 
L 3775 2816 
L 3519 1772 
L 4513 1772 
L 4513 1294 
L 3397 1294 
L 3072 0 
L 2572 0 
L 2894 1294 
L 1978 1294 
L 1656 0 
L 1153 0 
L 1478 1294 
L 494 1294 
L 494 1772 
L 1594 1772 
L 1856 2816 
L 850 2816 
L 850 3297 
L 1978 3297 
L 2297 4594 
L 2803 4594 
z
" transform="scale(0.015625)"/>
       <path id="DejaVuSans-66" d="M 2375 4863 
L 2375 4384 
L 1825 4384 
Q 1516 4384 1395 4259 
Q 1275 4134 1275 3809 
L 1275 3500 
L 2222 3500 
L 2222 3053 
L 1275 3053 
L 1275 0 
L 697 0 
L 697 3053 
L 147 3053 
L 147 3500 
L 697 3500 
L 697 3744 
Q 697 4328 969 4595 
Q 1241 4863 1831 4863 
L 2375 4863 
z
" transform="scale(0.015625)"/>
       <path id="DejaVuSans-6d" d="M 3328 2828 
Q 3544 3216 3844 3400 
Q 4144 3584 4550 3584 
Q 5097 3584 5394 3201 
Q 5691 2819 5691 2113 
L 5691 0 
L 5113 0 
L 5113 2094 
Q 5113 2597 4934 2840 
Q 4756 3084 4391 3084 
Q 3944 3084 3684 2787 
Q 3425 2491 3425 1978 
L 3425 0 
L 2847 0 
L 2847 2094 
Q 2847 2600 2669 2842 
Q 2491 3084 2119 3084 
Q 1678 3084 1418 2786 
Q 1159 2488 1159 1978 
L 1159 0 
L 581 0 
L 581 3500 
L 1159 3500 
L 1159 2956 
Q 1356 3278 1631 3431 
Q 1906 3584 2284 3584 
Q 2666 3584 2933 3390 
Q 3200 3197 3328 2828 
z
" transform="scale(0.015625)"/>
       <path id="DejaVuSans-73" d="M 2834 3397 
L 2834 2853 
Q 2591 2978 2328 3040 
Q 2066 3103 1784 3103 
Q 1356 3103 1142 2972 
Q 928 2841 928 2578 
Q 928 2378 1081 2264 
Q 1234 2150 1697 2047 
L 1894 2003 
Q 2506 1872 2764 1633 
Q 3022 1394 3022 966 
Q 3022 478 2636 193 
Q 2250 -91 1575 -91 
Q 1294 -91 989 -36 
Q 684 19 347 128 
L 347 722 
Q 666 556 975 473 
Q 1284 391 1588 391 
Q 1994 391 2212 530 
Q 2431 669 2431 922 
Q 2431 1156 2273 1281 
Q 2116 1406 1581 1522 
L 1381 1569 
Q 847 1681 609 1914 
Q 372 2147 372 2553 
Q 372 3047 722 3315 
Q 1072 3584 1716 3584 
Q 2034 3584 2315 3537 
Q 2597 3491 2834 3397 
z
" transform="scale(0.015625)"/>
       <path id="DejaVuSans-5d" d="M 1947 4863 
L 1947 -844 
L 622 -844 
L 622 -397 
L 1369 -397 
L 1369 4416 
L 622 4416 
L 622 4863 
L 1947 4863 
z
" transform="scale(0.015625)"/>
      </defs>
      <use xlink:href="#DejaVuSans-56"/>
      <use xlink:href="#DejaVuSans-69" x="66.158203"/>
      <use xlink:href="#DejaVuSans-64" x="93.941406"/>
      <use xlink:href="#DejaVuSans-65" x="157.417969"/>
      <use xlink:href="#DejaVuSans-6f" x="218.941406"/>
      <use xlink:href="#DejaVuSans-20" x="280.123047"/>
      <use xlink:href="#DejaVuSans-4c" x="311.910156"/>
      <use xlink:href="#DejaVuSans-65" x="365.873047"/>
      <use xlink:href="#DejaVuSans-6e" x="427.396484"/>
      <use xlink:href="#DejaVuSans-67" x="490.775391"/>
      <use xlink:href="#DejaVuSans-74" x="554.251953"/>
      <use xlink:href="#DejaVuSans-68" x="593.460938"/>
      <use xlink:href="#DejaVuSans-20" x="656.839844"/>
      <use xlink:href="#DejaVuSans-5b" x="688.626953"/>
      <use xlink:href="#DejaVuSans-23" x="727.640625"/>
      <use xlink:href="#DejaVuSans-20" x="811.429688"/>
      <use xlink:href="#DejaVuSans-66" x="843.216797"/>
      <use xlink:href="#DejaVuSans-72" x="878.421875"/>
      <use xlink:href="#DejaVuSans-61" x="919.535156"/>
      <use xlink:href="#DejaVuSans-6d" x="980.814453"/>
      <use xlink:href="#DejaVuSans-65" x="1078.226562"/>
      <use xlink:href="#DejaVuSans-73" x="1139.75"/>
      <use xlink:href="#DejaVuSans-5d" x="1191.849609"/>
     </g>
    </g>
   </g>
   <g id="patch_3">
    <path d="M 118.231506 342.889604 
L 118.231506 342.889604 
L 118.231506 342.889604 
L 118.231506 342.889604 
z
" clip-path="url(#p6244b15960)" style="fill: #3274a1; stroke: #3f3f3f; stroke-width: 0.75; stroke-linejoin: miter"/>
   </g>
   <g id="PolyCollection_1">
    <defs>
     <path id="m77b68649e7" d="M 90.472003 -79.331783 
L 89.365804 -79.331783 
L 89.090058 -81.778732 
L 88.709967 -84.225681 
L 88.201661 -86.672631 
L 87.54191 -89.11958 
L 86.710429 -91.566529 
L 85.69236 -94.013479 
L 84.480552 -96.460428 
L 83.077277 -98.907377 
L 81.495091 -101.354327 
L 79.756705 -103.801276 
L 77.893917 -106.248225 
L 75.945856 -108.695175 
L 73.956886 -111.142124 
L 71.974507 -113.589074 
L 70.047486 -116.036023 
L 68.224252 -118.482972 
L 66.551433 -120.929922 
L 65.072287 -123.376871 
L 63.824846 -125.82382 
L 62.839723 -128.27077 
L 62.137768 -130.717719 
L 61.727994 -133.164668 
L 61.606301 -135.611618 
L 61.755484 -138.058567 
L 62.14682 -140.505517 
L 62.743175 -142.952466 
L 63.503211 -145.399415 
L 64.38599 -147.846365 
L 65.355128 -150.293314 
L 66.381732 -152.740263 
L 67.44562 -155.187213 
L 68.534716 -157.634162 
L 69.642942 -160.081111 
L 70.767236 -162.528061 
L 71.904495 -164.97501 
L 73.049195 -167.421959 
L 74.192187 -169.868909 
L 75.320822 -172.315858 
L 76.420203 -174.762808 
L 77.475087 -177.209757 
L 78.471865 -179.656706 
L 79.400104 -182.103656 
L 80.253347 -184.550605 
L 81.029131 -186.997554 
L 81.728393 -189.444504 
L 82.354596 -191.891453 
L 82.91285 -194.338402 
L 83.409264 -196.785352 
L 83.850551 -199.232301 
L 84.243815 -201.679251 
L 84.596388 -204.1262 
L 84.915578 -206.573149 
L 85.208314 -209.020099 
L 85.480746 -211.467048 
L 85.737925 -213.913997 
L 85.983684 -216.360947 
L 86.220757 -218.807896 
L 86.451089 -221.254845 
L 86.676192 -223.701795 
L 86.897391 -226.148744 
L 87.115825 -228.595693 
L 87.332187 -231.042643 
L 87.546281 -233.489592 
L 87.75656 -235.936542 
L 87.959849 -238.383491 
L 88.151379 -240.83044 
L 88.325212 -243.27739 
L 88.474979 -245.724339 
L 88.594813 -248.171288 
L 88.680277 -250.618238 
L 88.729117 -253.065187 
L 88.74171 -255.512136 
L 88.721162 -257.959086 
L 88.673066 -260.406035 
L 88.604995 -262.852985 
L 88.525807 -265.299934 
L 88.44487 -267.746883 
L 88.371279 -270.193833 
L 88.31314 -272.640782 
L 88.276975 -275.087731 
L 88.267289 -277.534681 
L 88.286351 -279.98163 
L 88.334183 -282.428579 
L 88.408765 -284.875529 
L 88.506414 -287.322478 
L 88.622265 -289.769427 
L 88.750799 -292.216377 
L 88.886348 -294.663326 
L 89.02351 -297.110276 
L 89.157475 -299.557225 
L 89.284235 -302.004174 
L 89.4007 -304.451124 
L 89.50474 -306.898073 
L 89.595155 -309.345022 
L 89.671599 -311.791972 
L 89.734461 -314.238921 
L 89.784716 -316.68587 
L 89.823751 -319.13282 
L 89.853192 -321.579769 
L 89.984615 -321.579769 
L 89.984615 -321.579769 
L 90.014055 -319.13282 
L 90.053091 -316.68587 
L 90.103346 -314.238921 
L 90.166208 -311.791972 
L 90.242652 -309.345022 
L 90.333067 -306.898073 
L 90.437107 -304.451124 
L 90.553572 -302.004174 
L 90.680332 -299.557225 
L 90.814296 -297.110276 
L 90.951459 -294.663326 
L 91.087007 -292.216377 
L 91.215542 -289.769427 
L 91.331393 -287.322478 
L 91.429041 -284.875529 
L 91.503624 -282.428579 
L 91.551456 -279.98163 
L 91.570518 -277.534681 
L 91.560832 -275.087731 
L 91.524667 -272.640782 
L 91.466528 -270.193833 
L 91.392937 -267.746883 
L 91.311999 -265.299934 
L 91.232811 -262.852985 
L 91.164741 -260.406035 
L 91.116645 -257.959086 
L 91.096097 -255.512136 
L 91.108689 -253.065187 
L 91.157529 -250.618238 
L 91.242994 -248.171288 
L 91.362828 -245.724339 
L 91.512595 -243.27739 
L 91.686428 -240.83044 
L 91.877958 -238.383491 
L 92.081247 -235.936542 
L 92.291526 -233.489592 
L 92.50562 -231.042643 
L 92.721982 -228.595693 
L 92.940416 -226.148744 
L 93.161615 -223.701795 
L 93.386718 -221.254845 
L 93.61705 -218.807896 
L 93.854123 -216.360947 
L 94.099882 -213.913997 
L 94.357061 -211.467048 
L 94.629493 -209.020099 
L 94.922228 -206.573149 
L 95.241419 -204.1262 
L 95.593992 -201.679251 
L 95.987256 -199.232301 
L 96.428542 -196.785352 
L 96.924957 -194.338402 
L 97.483211 -191.891453 
L 98.109413 -189.444504 
L 98.808676 -186.997554 
L 99.584459 -184.550605 
L 100.437703 -182.103656 
L 101.365942 -179.656706 
L 102.36272 -177.209757 
L 103.417604 -174.762808 
L 104.516984 -172.315858 
L 105.64562 -169.868909 
L 106.788612 -167.421959 
L 107.933312 -164.97501 
L 109.070571 -162.528061 
L 110.194865 -160.081111 
L 111.303091 -157.634162 
L 112.392187 -155.187213 
L 113.456074 -152.740263 
L 114.482679 -150.293314 
L 115.451817 -147.846365 
L 116.334596 -145.399415 
L 117.094631 -142.952466 
L 117.690986 -140.505517 
L 118.082323 -138.058567 
L 118.231506 -135.611618 
L 118.109812 -133.164668 
L 117.700039 -130.717719 
L 116.998084 -128.27077 
L 116.012961 -125.82382 
L 114.76552 -123.376871 
L 113.286374 -120.929922 
L 111.613555 -118.482972 
L 109.790321 -116.036023 
L 107.8633 -113.589074 
L 105.880921 -111.142124 
L 103.891951 -108.695175 
L 101.94389 -106.248225 
L 100.081102 -103.801276 
L 98.342716 -101.354327 
L 96.76053 -98.907377 
L 95.357254 -96.460428 
L 94.145447 -94.013479 
L 93.127378 -91.566529 
L 92.295897 -89.11958 
L 91.636145 -86.672631 
L 91.12784 -84.225681 
L 90.747749 -81.778732 
L 90.472003 -79.331783 
z
" style="stroke: #3f3f3f; stroke-width: 1.5"/>
    </defs>
    <g clip-path="url(#p6244b15960)">
     <use xlink:href="#m77b68649e7" x="0" y="432" style="fill: #3274a1; stroke: #3f3f3f; stroke-width: 1.5"/>
    </g>
   </g>
   <g id="patch_4">
    <path d="M 118.231506 342.889604 
L 118.231506 342.889604 
L 118.231506 342.889604 
L 118.231506 342.889604 
z
" clip-path="url(#p6244b15960)" style="fill: #e1812c; stroke: #3f3f3f; stroke-width: 0.75; stroke-linejoin: miter"/>
   </g>
   <g id="PolyCollection_2">
    <defs>
     <path id="m431331a569" d="M 147.022982 -76.91502 
L 146.065234 -76.91502 
L 145.827679 -79.553612 
L 145.499979 -82.192204 
L 145.060897 -84.830796 
L 144.489233 -87.469388 
L 143.765689 -90.10798 
L 142.874961 -92.746572 
L 141.807786 -95.385164 
L 140.56267 -98.023756 
L 139.147056 -100.662348 
L 137.577765 -103.30094 
L 135.88069 -105.939532 
L 134.089819 -108.578124 
L 132.245752 -111.216716 
L 130.393907 -113.855308 
L 128.582533 -116.4939 
L 126.860625 -119.132492 
L 125.275721 -121.771084 
L 123.8716 -124.409676 
L 122.685894 -127.048268 
L 121.747776 -129.68686 
L 121.075953 -132.325452 
L 120.6773 -134.964044 
L 120.546429 -137.602636 
L 120.666394 -140.241228 
L 121.010565 -142.87982 
L 121.545462 -145.518412 
L 122.234176 -148.157004 
L 123.039876 -150.795596 
L 123.92891 -153.434188 
L 124.873063 -156.07278 
L 125.85074 -158.711372 
L 126.847015 -161.349964 
L 127.852677 -163.988556 
L 128.862574 -166.627148 
L 129.873616 -169.26574 
L 130.882824 -171.904332 
L 131.885762 -174.542924 
L 132.875593 -177.181516 
L 133.842895 -179.820108 
L 134.776221 -182.4587 
L 135.663269 -185.097292 
L 136.492444 -187.735884 
L 137.254483 -190.374476 
L 137.943833 -193.013068 
L 138.559482 -195.65166 
L 139.105067 -198.290252 
L 139.588223 -200.928844 
L 140.0193 -203.567436 
L 140.409727 -206.206028 
L 140.770364 -208.84462 
L 141.110182 -211.483212 
L 141.435521 -214.121804 
L 141.750002 -216.760396 
L 142.055004 -219.398988 
L 142.350495 -222.03758 
L 142.635911 -224.676172 
L 142.910834 -227.314764 
L 143.175283 -229.953356 
L 143.429608 -232.591948 
L 143.674084 -235.23054 
L 143.908398 -237.869132 
L 144.13127 -240.507724 
L 144.340343 -243.146316 
L 144.532438 -245.784908 
L 144.704092 -248.423499 
L 144.852241 -251.062091 
L 144.974842 -253.700683 
L 145.071276 -256.339275 
L 145.142415 -258.977867 
L 145.190381 -261.616459 
L 145.218097 -264.255051 
L 145.228782 -266.893643 
L 145.225568 -269.532235 
L 145.211327 -272.170827 
L 145.188737 -274.809419 
L 145.160521 -277.448011 
L 145.129724 -280.086603 
L 145.099904 -282.725195 
L 145.075126 -285.363787 
L 145.059734 -288.002379 
L 145.057935 -290.640971 
L 145.073295 -293.279563 
L 145.108256 -295.918155 
L 145.163799 -298.556747 
L 145.239293 -301.195339 
L 145.332565 -303.833931 
L 145.440162 -306.472523 
L 145.557732 -309.111115 
L 145.680481 -311.749707 
L 145.803612 -314.388299 
L 145.922723 -317.026891 
L 146.034112 -319.665483 
L 146.134978 -322.304075 
L 146.223508 -324.942667 
L 146.298871 -327.581259 
L 146.361108 -330.219851 
L 146.410975 -332.858443 
L 146.44974 -335.497035 
L 146.478971 -338.135627 
L 146.609245 -338.135627 
L 146.609245 -338.135627 
L 146.638476 -335.497035 
L 146.677241 -332.858443 
L 146.727108 -330.219851 
L 146.789345 -327.581259 
L 146.864708 -324.942667 
L 146.953238 -322.304075 
L 147.054104 -319.665483 
L 147.165493 -317.026891 
L 147.284604 -314.388299 
L 147.407735 -311.749707 
L 147.530484 -309.111115 
L 147.648054 -306.472523 
L 147.755651 -303.833931 
L 147.848923 -301.195339 
L 147.924417 -298.556747 
L 147.97996 -295.918155 
L 148.014921 -293.279563 
L 148.03028 -290.640971 
L 148.028482 -288.002379 
L 148.01309 -285.363787 
L 147.988312 -282.725195 
L 147.958492 -280.086603 
L 147.927695 -277.448011 
L 147.899479 -274.809419 
L 147.876889 -272.170827 
L 147.862648 -269.532235 
L 147.859434 -266.893643 
L 147.870119 -264.255051 
L 147.897835 -261.616459 
L 147.945801 -258.977867 
L 148.01694 -256.339275 
L 148.113374 -253.700683 
L 148.235975 -251.062091 
L 148.384124 -248.423499 
L 148.555778 -245.784908 
L 148.747873 -243.146316 
L 148.956946 -240.507724 
L 149.179818 -237.869132 
L 149.414132 -235.23054 
L 149.658608 -232.591948 
L 149.912933 -229.953356 
L 150.177382 -227.314764 
L 150.452305 -224.676172 
L 150.737721 -222.03758 
L 151.033211 -219.398988 
L 151.338214 -216.760396 
L 151.652695 -214.121804 
L 151.978034 -211.483212 
L 152.317852 -208.84462 
L 152.678488 -206.206028 
L 153.068916 -203.567436 
L 153.499993 -200.928844 
L 153.983149 -198.290252 
L 154.528734 -195.65166 
L 155.144383 -193.013068 
L 155.833733 -190.374476 
L 156.595772 -187.735884 
L 157.424947 -185.097292 
L 158.311995 -182.4587 
L 159.24532 -179.820108 
L 160.212623 -177.181516 
L 161.202454 -174.542924 
L 162.205392 -171.904332 
L 163.2146 -169.26574 
L 164.225642 -166.627148 
L 165.235539 -163.988556 
L 166.241201 -161.349964 
L 167.237476 -158.711372 
L 168.215153 -156.07278 
L 169.159306 -153.434188 
L 170.04834 -150.795596 
L 170.85404 -148.157004 
L 171.542754 -145.518412 
L 172.077651 -142.87982 
L 172.421822 -140.241228 
L 172.541787 -137.602636 
L 172.410916 -134.964044 
L 172.012263 -132.325452 
L 171.34044 -129.68686 
L 170.402322 -127.048268 
L 169.216616 -124.409676 
L 167.812495 -121.771084 
L 166.227591 -119.132492 
L 164.505683 -116.4939 
L 162.694309 -113.855308 
L 160.842464 -111.216716 
L 158.998397 -108.578124 
L 157.207526 -105.939532 
L 155.510451 -103.30094 
L 153.94116 -100.662348 
L 152.525546 -98.023756 
L 151.28043 -95.385164 
L 150.213255 -92.746572 
L 149.322527 -90.10798 
L 148.598983 -87.469388 
L 148.027319 -84.830796 
L 147.588237 -82.192204 
L 147.260537 -79.553612 
L 147.022982 -76.91502 
z
" style="stroke: #3f3f3f; stroke-width: 1.5"/>
    </defs>
    <g clip-path="url(#p6244b15960)">
     <use xlink:href="#m431331a569" x="0" y="432" style="fill: #e1812c; stroke: #3f3f3f; stroke-width: 1.5"/>
    </g>
   </g>
   <g id="PolyCollection_3">
    <defs>
     <path id="mb9901a2732" d="M 231.891431 -69.735907 
L 231.072398 -69.735907 
L 230.888223 -71.983959 
L 230.636711 -74.232012 
L 230.300211 -76.480065 
L 229.859217 -78.728118 
L 229.293221 -80.97617 
L 228.581973 -83.224223 
L 227.707124 -85.472276 
L 226.654174 -87.720329 
L 225.414566 -89.968382 
L 223.987728 -92.216434 
L 222.382785 -94.464487 
L 220.619666 -96.71254 
L 218.729368 -98.960593 
L 216.753194 -101.208645 
L 214.740924 -103.456698 
L 212.748005 -105.704751 
L 210.832006 -107.952804 
L 209.048714 -110.200857 
L 207.448301 -112.448909 
L 206.072022 -114.696962 
L 204.949826 -116.945015 
L 204.099112 -119.193068 
L 203.524732 -121.44112 
L 203.220122 -123.689173 
L 203.169313 -125.937226 
L 203.349471 -128.185279 
L 203.733582 -130.433332 
L 204.292936 -132.681384 
L 204.999152 -134.929437 
L 205.825617 -137.17749 
L 206.748317 -139.425543 
L 207.74615 -141.673595 
L 208.800865 -143.921648 
L 209.896785 -146.169701 
L 211.020457 -148.417754 
L 212.160332 -150.665807 
L 213.306498 -152.913859 
L 214.45048 -155.161912 
L 215.585063 -157.409965 
L 216.704106 -159.658018 
L 217.802306 -161.906071 
L 218.874929 -164.154123 
L 219.917504 -166.402176 
L 220.92555 -168.650229 
L 221.894358 -170.898282 
L 222.818899 -173.146334 
L 223.693865 -175.394387 
L 224.513859 -177.64244 
L 225.273712 -179.890493 
L 225.96887 -182.138546 
L 226.595822 -184.386598 
L 227.152477 -186.634651 
L 227.638459 -188.882704 
L 228.055268 -191.130757 
L 228.406288 -193.378809 
L 228.696632 -195.626862 
L 228.932857 -197.874915 
L 229.122565 -200.122968 
L 229.273941 -202.371021 
L 229.395263 -204.619073 
L 229.494432 -206.867126 
L 229.578543 -209.115179 
L 229.653533 -211.363232 
L 229.723906 -213.611284 
L 229.792565 -215.859337 
L 229.860752 -218.10739 
L 229.928104 -220.355443 
L 229.992836 -222.603496 
L 230.052049 -224.851548 
L 230.102149 -227.099601 
L 230.139354 -229.347654 
L 230.160249 -231.595707 
L 230.162322 -233.843759 
L 230.144439 -236.091812 
L 230.107181 -238.339865 
L 230.05299 -240.587918 
L 229.986119 -242.835971 
L 229.912352 -245.084023 
L 229.838547 -247.332076 
L 229.772029 -249.580129 
L 229.719921 -251.828182 
L 229.688481 -254.076234 
L 229.682527 -256.324287 
L 229.705016 -258.57234 
L 229.756816 -260.820393 
L 229.836698 -263.068446 
L 229.941531 -265.316498 
L 230.066653 -267.564551 
L 230.206364 -269.812604 
L 230.354471 -272.060657 
L 230.504829 -274.308709 
L 230.651817 -276.556762 
L 230.790701 -278.804815 
L 230.917866 -281.052868 
L 231.030911 -283.300921 
L 231.128614 -285.548973 
L 231.210799 -287.797026 
L 231.278138 -290.045079 
L 231.331913 -292.293132 
L 231.631916 -292.293132 
L 231.631916 -292.293132 
L 231.685692 -290.045079 
L 231.75303 -287.797026 
L 231.835216 -285.548973 
L 231.932918 -283.300921 
L 232.045963 -281.052868 
L 232.173129 -278.804815 
L 232.312012 -276.556762 
L 232.459 -274.308709 
L 232.609359 -272.060657 
L 232.757466 -269.812604 
L 232.897176 -267.564551 
L 233.022299 -265.316498 
L 233.127131 -263.068446 
L 233.207013 -260.820393 
L 233.258813 -258.57234 
L 233.281303 -256.324287 
L 233.275349 -254.076234 
L 233.243909 -251.828182 
L 233.1918 -249.580129 
L 233.125282 -247.332076 
L 233.051477 -245.084023 
L 232.977711 -242.835971 
L 232.910839 -240.587918 
L 232.856649 -238.339865 
L 232.81939 -236.091812 
L 232.801508 -233.843759 
L 232.803581 -231.595707 
L 232.824475 -229.347654 
L 232.861681 -227.099601 
L 232.91178 -224.851548 
L 232.970994 -222.603496 
L 233.035726 -220.355443 
L 233.103078 -218.10739 
L 233.171265 -215.859337 
L 233.239924 -213.611284 
L 233.310296 -211.363232 
L 233.385286 -209.115179 
L 233.469398 -206.867126 
L 233.568567 -204.619073 
L 233.689889 -202.371021 
L 233.841265 -200.122968 
L 234.030973 -197.874915 
L 234.267198 -195.626862 
L 234.557542 -193.378809 
L 234.908561 -191.130757 
L 235.325371 -188.882704 
L 235.811353 -186.634651 
L 236.368008 -184.386598 
L 236.994959 -182.138546 
L 237.690118 -179.890493 
L 238.44997 -177.64244 
L 239.269965 -175.394387 
L 240.144931 -173.146334 
L 241.069472 -170.898282 
L 242.03828 -168.650229 
L 243.046325 -166.402176 
L 244.088901 -164.154123 
L 245.161523 -161.906071 
L 246.259724 -159.658018 
L 247.378766 -157.409965 
L 248.51335 -155.161912 
L 249.657332 -152.913859 
L 250.803498 -150.665807 
L 251.943373 -148.417754 
L 253.067045 -146.169701 
L 254.162964 -143.921648 
L 255.217679 -141.673595 
L 256.215512 -139.425543 
L 257.138212 -137.17749 
L 257.964677 -134.929437 
L 258.670893 -132.681384 
L 259.230247 -130.433332 
L 259.614359 -128.185279 
L 259.794517 -125.937226 
L 259.743708 -123.689173 
L 259.439098 -121.44112 
L 258.864718 -119.193068 
L 258.014004 -116.945015 
L 256.891807 -114.696962 
L 255.515529 -112.448909 
L 253.915115 -110.200857 
L 252.131823 -107.952804 
L 250.215825 -105.704751 
L 248.222905 -103.456698 
L 246.210635 -101.208645 
L 244.234461 -98.960593 
L 242.344163 -96.71254 
L 240.581044 -94.464487 
L 238.976101 -92.216434 
L 237.549264 -89.968382 
L 236.309656 -87.720329 
L 235.256705 -85.472276 
L 234.381857 -83.224223 
L 233.670609 -80.97617 
L 233.104612 -78.728118 
L 232.663618 -76.480065 
L 232.327118 -74.232012 
L 232.075606 -71.983959 
L 231.891431 -69.735907 
z
" style="stroke: #3f3f3f; stroke-width: 1.5"/>
    </defs>
    <g clip-path="url(#p6244b15960)">
     <use xlink:href="#mb9901a2732" x="0" y="432" style="fill: #3274a1; stroke: #3f3f3f; stroke-width: 1.5"/>
    </g>
   </g>
   <g id="PolyCollection_4">
    <defs>
     <path id="mb126a66864" d="M 288.376785 -61.947273 
L 287.837454 -61.947273 
L 287.713911 -65.102472 
L 287.544205 -68.257672 
L 287.315824 -71.412871 
L 287.014757 -74.568071 
L 286.626038 -77.72327 
L 286.134566 -80.878469 
L 285.526224 -84.033669 
L 284.789223 -87.188868 
L 283.915613 -90.344068 
L 282.902788 -93.499267 
L 281.754825 -96.654467 
L 280.483456 -99.809666 
L 279.108484 -102.964866 
L 277.657503 -106.120065 
L 276.164869 -109.275265 
L 274.669944 -112.430464 
L 273.21477 -115.585663 
L 271.841399 -118.740863 
L 270.589174 -121.896062 
L 269.492275 -125.051262 
L 268.577792 -128.206461 
L 267.864502 -131.361661 
L 267.362442 -134.51686 
L 267.073211 -137.67206 
L 266.990864 -140.827259 
L 267.103216 -143.982458 
L 267.393312 -147.137658 
L 267.840901 -150.292857 
L 268.423787 -153.448057 
L 269.118987 -156.603256 
L 269.903712 -159.758456 
L 270.756173 -162.913655 
L 271.656264 -166.068855 
L 272.586111 -169.224054 
L 273.530479 -172.379254 
L 274.476968 -175.534453 
L 275.415984 -178.689652 
L 276.340427 -181.844852 
L 277.245143 -185.000051 
L 278.126195 -188.155251 
L 278.980086 -191.31045 
L 279.803081 -194.46565 
L 280.590743 -197.620849 
L 281.337811 -200.776049 
L 282.038427 -203.931248 
L 282.686666 -207.086448 
L 283.27728 -210.241647 
L 283.806467 -213.396846 
L 284.272526 -216.552046 
L 284.67625 -219.707245 
L 285.02096 -222.862445 
L 285.312194 -226.017644 
L 285.557079 -229.172844 
L 285.763528 -232.328043 
L 285.939397 -235.483243 
L 286.091734 -238.638442 
L 286.226259 -241.793641 
L 286.347116 -244.948841 
L 286.456899 -248.10404 
L 286.55691 -251.25924 
L 286.647547 -254.414439 
L 286.728733 -257.569639 
L 286.800277 -260.724838 
L 286.86212 -263.880038 
L 286.914435 -267.035237 
L 286.95761 -270.190437 
L 286.992143 -273.345636 
L 287.01853 -276.500835 
L 287.037172 -279.656035 
L 287.048362 -282.811234 
L 287.052339 -285.966434 
L 287.049412 -289.121633 
L 287.040098 -292.276833 
L 287.025257 -295.432032 
L 287.006174 -298.587232 
L 286.984573 -301.742431 
L 286.962563 -304.897631 
L 286.942515 -308.05283 
L 286.926908 -311.208029 
L 286.918146 -314.363229 
L 286.918392 -317.518428 
L 286.929414 -320.673628 
L 286.952456 -323.828827 
L 286.988153 -326.984027 
L 287.036467 -330.139226 
L 287.096677 -333.294426 
L 287.167402 -336.449625 
L 287.246681 -339.604824 
L 287.332093 -342.760024 
L 287.420926 -345.915223 
L 287.510369 -349.070423 
L 287.597715 -352.225622 
L 287.68055 -355.380822 
L 287.756906 -358.536021 
L 287.825362 -361.691221 
L 287.885082 -364.84642 
L 287.935795 -368.00162 
L 287.977727 -371.156819 
L 288.011496 -374.312018 
L 288.202743 -374.312018 
L 288.202743 -374.312018 
L 288.236511 -371.156819 
L 288.278444 -368.00162 
L 288.329157 -364.84642 
L 288.388877 -361.691221 
L 288.457332 -358.536021 
L 288.533689 -355.380822 
L 288.616524 -352.225622 
L 288.70387 -349.070423 
L 288.793313 -345.915223 
L 288.882146 -342.760024 
L 288.967558 -339.604824 
L 289.046837 -336.449625 
L 289.117562 -333.294426 
L 289.177772 -330.139226 
L 289.226086 -326.984027 
L 289.261783 -323.828827 
L 289.284825 -320.673628 
L 289.295846 -317.518428 
L 289.296093 -314.363229 
L 289.287331 -311.208029 
L 289.271723 -308.05283 
L 289.251676 -304.897631 
L 289.229666 -301.742431 
L 289.208065 -298.587232 
L 289.188981 -295.432032 
L 289.17414 -292.276833 
L 289.164826 -289.121633 
L 289.161899 -285.966434 
L 289.165877 -282.811234 
L 289.177067 -279.656035 
L 289.195709 -276.500835 
L 289.222095 -273.345636 
L 289.256629 -270.190437 
L 289.299804 -267.035237 
L 289.352119 -263.880038 
L 289.413961 -260.724838 
L 289.485505 -257.569639 
L 289.566692 -254.414439 
L 289.657329 -251.25924 
L 289.757339 -248.10404 
L 289.867122 -244.948841 
L 289.987979 -241.793641 
L 290.122505 -238.638442 
L 290.274842 -235.483243 
L 290.45071 -232.328043 
L 290.65716 -229.172844 
L 290.902045 -226.017644 
L 291.193278 -222.862445 
L 291.537989 -219.707245 
L 291.941712 -216.552046 
L 292.407772 -213.396846 
L 292.936958 -210.241647 
L 293.527572 -207.086448 
L 294.175812 -203.931248 
L 294.876427 -200.776049 
L 295.623496 -197.620849 
L 296.411158 -194.46565 
L 297.234152 -191.31045 
L 298.088044 -188.155251 
L 298.969096 -185.000051 
L 299.873812 -181.844852 
L 300.798255 -178.689652 
L 301.737271 -175.534453 
L 302.68376 -172.379254 
L 303.628127 -169.224054 
L 304.557975 -166.068855 
L 305.458066 -162.913655 
L 306.310526 -159.758456 
L 307.095251 -156.603256 
L 307.790452 -153.448057 
L 308.373337 -150.292857 
L 308.820926 -147.137658 
L 309.111022 -143.982458 
L 309.223375 -140.827259 
L 309.141028 -137.67206 
L 308.851796 -134.51686 
L 308.349737 -131.361661 
L 307.636447 -128.206461 
L 306.721963 -125.051262 
L 305.625065 -121.896062 
L 304.37284 -118.740863 
L 302.999468 -115.585663 
L 301.544295 -112.430464 
L 300.04937 -109.275265 
L 298.556736 -106.120065 
L 297.105755 -102.964866 
L 295.730783 -99.809666 
L 294.459414 -96.654467 
L 293.311451 -93.499267 
L 292.298625 -90.344068 
L 291.425015 -87.188868 
L 290.688015 -84.033669 
L 290.079672 -80.878469 
L 289.588201 -77.72327 
L 289.199482 -74.568071 
L 288.898415 -71.412871 
L 288.670033 -68.257672 
L 288.500328 -65.102472 
L 288.376785 -61.947273 
z
" style="stroke: #3f3f3f; stroke-width: 1.5"/>
    </defs>
    <g clip-path="url(#p6244b15960)">
     <use xlink:href="#mb126a66864" x="0" y="432" style="fill: #e1812c; stroke: #3f3f3f; stroke-width: 1.5"/>
    </g>
   </g>
   <g id="PolyCollection_5">
    <defs>
     <path id="m27feb1b546" d="M 373.764817 -86.915399 
L 372.325035 -86.915399 
L 372.054968 -87.995181 
L 371.703803 -89.074963 
L 371.254982 -90.154746 
L 370.691248 -91.234528 
L 369.995559 -92.31431 
L 369.152257 -93.394092 
L 368.148472 -94.473874 
L 366.97565 -95.553657 
L 365.631129 -96.633439 
L 364.119584 -97.713221 
L 362.454184 -98.793003 
L 360.657298 -99.872785 
L 358.760587 -100.952568 
L 356.804385 -102.03235 
L 354.83633 -103.112132 
L 352.909261 -104.191914 
L 351.078536 -105.271697 
L 349.398932 -106.351479 
L 347.921406 -107.431261 
L 346.689988 -108.511043 
L 345.739087 -109.590825 
L 345.091455 -110.670608 
L 344.756969 -111.75039 
L 344.732324 -112.830172 
L 345.001627 -113.909954 
L 345.537789 -114.989737 
L 346.304567 -116.069519 
L 347.259025 -117.149301 
L 348.35422 -118.229083 
L 349.541888 -119.308865 
L 350.774943 -120.388648 
L 352.009675 -121.46843 
L 353.207533 -122.548212 
L 354.336462 -123.627994 
L 355.371782 -124.707777 
L 356.296628 -125.787559 
L 357.101985 -126.867341 
L 357.78638 -127.947123 
L 358.355258 -129.026905 
L 358.820123 -130.106688 
L 359.197475 -131.18647 
L 359.507593 -132.266252 
L 359.773219 -133.346034 
L 360.018179 -134.425817 
L 360.266002 -135.505599 
L 360.538581 -136.585381 
L 360.854949 -137.665163 
L 361.230221 -138.744945 
L 361.674782 -139.824728 
L 362.193771 -140.90451 
L 362.786905 -141.984292 
L 363.44867 -143.064074 
L 364.168866 -144.143856 
L 364.933465 -145.223639 
L 365.725719 -146.303421 
L 366.527397 -147.383203 
L 367.320065 -148.462985 
L 368.086282 -149.542768 
L 368.810602 -150.62255 
L 369.480335 -151.702332 
L 370.085987 -152.782114 
L 370.62141 -153.861896 
L 371.083657 -154.941679 
L 371.472625 -156.021461 
L 371.790533 -157.101243 
L 372.041334 -158.181025 
L 372.23013 -159.260808 
L 372.362651 -160.34059 
L 372.444844 -161.420372 
L 372.482599 -162.500154 
L 372.481605 -163.579936 
L 372.447337 -164.659719 
L 372.385124 -165.739501 
L 372.300267 -166.819283 
L 372.198167 -167.899065 
L 372.084419 -168.978848 
L 371.964838 -170.05863 
L 371.845403 -171.138412 
L 371.732109 -172.218194 
L 371.630741 -173.297976 
L 371.546591 -174.377759 
L 371.484151 -175.457541 
L 371.446826 -176.537323 
L 371.436706 -177.617105 
L 371.454424 -178.696887 
L 371.499126 -179.77667 
L 371.568563 -180.856452 
L 371.659292 -181.936234 
L 371.766969 -183.016016 
L 371.886697 -184.095799 
L 372.013394 -185.175581 
L 372.14215 -186.255363 
L 372.268525 -187.335145 
L 372.388779 -188.414927 
L 372.500016 -189.49471 
L 372.600237 -190.574492 
L 372.688313 -191.654274 
L 372.7639 -192.734056 
L 372.827303 -193.813839 
L 373.262549 -193.813839 
L 373.262549 -193.813839 
L 373.325952 -192.734056 
L 373.401539 -191.654274 
L 373.489616 -190.574492 
L 373.589836 -189.49471 
L 373.701073 -188.414927 
L 373.821327 -187.335145 
L 373.947702 -186.255363 
L 374.076458 -185.175581 
L 374.203155 -184.095799 
L 374.322883 -183.016016 
L 374.43056 -181.936234 
L 374.521289 -180.856452 
L 374.590726 -179.77667 
L 374.635428 -178.696887 
L 374.653146 -177.617105 
L 374.643026 -176.537323 
L 374.605701 -175.457541 
L 374.543261 -174.377759 
L 374.459111 -173.297976 
L 374.357743 -172.218194 
L 374.24445 -171.138412 
L 374.125014 -170.05863 
L 374.005433 -168.978848 
L 373.891685 -167.899065 
L 373.789586 -166.819283 
L 373.704729 -165.739501 
L 373.642515 -164.659719 
L 373.608248 -163.579936 
L 373.607254 -162.500154 
L 373.645008 -161.420372 
L 373.727201 -160.34059 
L 373.859723 -159.260808 
L 374.048519 -158.181025 
L 374.299319 -157.101243 
L 374.617227 -156.021461 
L 375.006195 -154.941679 
L 375.468443 -153.861896 
L 376.003865 -152.782114 
L 376.609518 -151.702332 
L 377.27925 -150.62255 
L 378.00357 -149.542768 
L 378.769787 -148.462985 
L 379.562456 -147.383203 
L 380.364133 -146.303421 
L 381.156387 -145.223639 
L 381.920987 -144.143856 
L 382.641182 -143.064074 
L 383.302947 -141.984292 
L 383.896081 -140.90451 
L 384.41507 -139.824728 
L 384.859632 -138.744945 
L 385.234903 -137.665163 
L 385.551271 -136.585381 
L 385.823851 -135.505599 
L 386.071673 -134.425817 
L 386.316634 -133.346034 
L 386.582259 -132.266252 
L 386.892377 -131.18647 
L 387.269729 -130.106688 
L 387.734595 -129.026905 
L 388.303472 -127.947123 
L 388.987867 -126.867341 
L 389.793225 -125.787559 
L 390.71807 -124.707777 
L 391.75339 -123.627994 
L 392.882319 -122.548212 
L 394.080177 -121.46843 
L 395.314909 -120.388648 
L 396.547965 -119.308865 
L 397.735632 -118.229083 
L 398.830828 -117.149301 
L 399.785285 -116.069519 
L 400.552063 -114.989737 
L 401.088226 -113.909954 
L 401.357528 -112.830172 
L 401.332883 -111.75039 
L 400.998397 -110.670608 
L 400.350765 -109.590825 
L 399.399864 -108.511043 
L 398.168446 -107.431261 
L 396.69092 -106.351479 
L 395.011316 -105.271697 
L 393.180591 -104.191914 
L 391.253523 -103.112132 
L 389.285467 -102.03235 
L 387.329265 -100.952568 
L 385.432554 -99.872785 
L 383.635668 -98.793003 
L 381.970268 -97.713221 
L 380.458723 -96.633439 
L 379.114203 -95.553657 
L 377.941381 -94.473874 
L 376.937595 -93.394092 
L 376.094294 -92.31431 
L 375.398604 -91.234528 
L 374.83487 -90.154746 
L 374.386049 -89.074963 
L 374.034884 -87.995181 
L 373.764817 -86.915399 
z
" style="stroke: #3f3f3f; stroke-width: 1.5"/>
    </defs>
    <g clip-path="url(#p6244b15960)">
     <use xlink:href="#m27feb1b546" x="0" y="432" style="fill: #3274a1; stroke: #3f3f3f; stroke-width: 1.5"/>
    </g>
   </g>
   <g id="PolyCollection_6">
    <defs>
     <path id="mebf76da007" d="M 430.119182 -83.453635 
L 429.221079 -83.453635 
L 429.059543 -85.674496 
L 428.85243 -87.895356 
L 428.591516 -90.116217 
L 428.268609 -92.337077 
L 427.876089 -94.557938 
L 427.407541 -96.778798 
L 426.858464 -98.999659 
L 426.226991 -101.220519 
L 425.514556 -103.44138 
L 424.726451 -105.66224 
L 423.87217 -107.8831 
L 422.9655 -110.103961 
L 422.024295 -112.324821 
L 421.069913 -114.545682 
L 420.126334 -116.766542 
L 419.218995 -118.987403 
L 418.373437 -121.208263 
L 417.613842 -123.429124 
L 416.961621 -125.649984 
L 416.434137 -127.870845 
L 416.043707 -130.091705 
L 415.796951 -132.312565 
L 415.694554 -134.533426 
L 415.731445 -136.754286 
L 415.897371 -138.975147 
L 416.177792 -141.196007 
L 416.555021 -143.416868 
L 417.009477 -145.637728 
L 417.520956 -147.858589 
L 418.069803 -150.079449 
L 418.637914 -152.30031 
L 419.209494 -154.52117 
L 419.771552 -156.74203 
L 420.314129 -158.962891 
L 420.830283 -161.183751 
L 421.315871 -163.404612 
L 421.769184 -165.625472 
L 422.19049 -167.846333 
L 422.581534 -170.067193 
L 422.945046 -172.288054 
L 423.2843 -174.508914 
L 423.602726 -176.729775 
L 423.903624 -178.950635 
L 424.189962 -181.171495 
L 424.464259 -183.392356 
L 424.72856 -185.613216 
L 424.984463 -187.834077 
L 425.233206 -190.054937 
L 425.475764 -192.275798 
L 425.712957 -194.496658 
L 425.945528 -196.717519 
L 426.17419 -198.938379 
L 426.399627 -201.15924 
L 426.622447 -203.3801 
L 426.843102 -205.60096 
L 427.061787 -207.821821 
L 427.278344 -210.042681 
L 427.492182 -212.263542 
L 427.70224 -214.484402 
L 427.906999 -216.705263 
L 428.104547 -218.926123 
L 428.292689 -221.146984 
L 428.469092 -223.367844 
L 428.631441 -225.588705 
L 428.777602 -227.809565 
L 428.905755 -230.030425 
L 429.014514 -232.251286 
L 429.102996 -234.472146 
L 429.170872 -236.693007 
L 429.218381 -238.913867 
L 429.246316 -241.134728 
L 429.256006 -243.355588 
L 429.249275 -245.576449 
L 429.228394 -247.797309 
L 429.196026 -250.01817 
L 429.155149 -252.23903 
L 429.108965 -254.45989 
L 429.060791 -256.680751 
L 429.013925 -258.901611 
L 428.971497 -261.122472 
L 428.936324 -263.343332 
L 428.910753 -265.564193 
L 428.896542 -267.785053 
L 428.894763 -270.005914 
L 428.905758 -272.226774 
L 428.929141 -274.447635 
L 428.963858 -276.668495 
L 429.008294 -278.889355 
L 429.060418 -281.110216 
L 429.117949 -283.331076 
L 429.17853 -285.551937 
L 429.23989 -287.772797 
L 429.299983 -289.993658 
L 429.357089 -292.214518 
L 429.40988 -294.435379 
L 429.457443 -296.656239 
L 429.499266 -298.877099 
L 429.535196 -301.09796 
L 429.565381 -303.31882 
L 429.77488 -303.31882 
L 429.77488 -303.31882 
L 429.805065 -301.09796 
L 429.840995 -298.877099 
L 429.882818 -296.656239 
L 429.930381 -294.435379 
L 429.983173 -292.214518 
L 430.040279 -289.993658 
L 430.100371 -287.772797 
L 430.161731 -285.551937 
L 430.222312 -283.331076 
L 430.279843 -281.110216 
L 430.331967 -278.889355 
L 430.376404 -276.668495 
L 430.411121 -274.447635 
L 430.434503 -272.226774 
L 430.445498 -270.005914 
L 430.44372 -267.785053 
L 430.429509 -265.564193 
L 430.403938 -263.343332 
L 430.368764 -261.122472 
L 430.326337 -258.901611 
L 430.27947 -256.680751 
L 430.231296 -254.45989 
L 430.185113 -252.23903 
L 430.144235 -250.01817 
L 430.111867 -247.797309 
L 430.090987 -245.576449 
L 430.084255 -243.355588 
L 430.093945 -241.134728 
L 430.12188 -238.913867 
L 430.169389 -236.693007 
L 430.237266 -234.472146 
L 430.325748 -232.251286 
L 430.434506 -230.030425 
L 430.56266 -227.809565 
L 430.70882 -225.588705 
L 430.87117 -223.367844 
L 431.047572 -221.146984 
L 431.235715 -218.926123 
L 431.433263 -216.705263 
L 431.638021 -214.484402 
L 431.848079 -212.263542 
L 432.061917 -210.042681 
L 432.278474 -207.821821 
L 432.49716 -205.60096 
L 432.717814 -203.3801 
L 432.940634 -201.15924 
L 433.166071 -198.938379 
L 433.394734 -196.717519 
L 433.627304 -194.496658 
L 433.864497 -192.275798 
L 434.107056 -190.054937 
L 434.355798 -187.834077 
L 434.611702 -185.613216 
L 434.876002 -183.392356 
L 435.150299 -181.171495 
L 435.436637 -178.950635 
L 435.737536 -176.729775 
L 436.055962 -174.508914 
L 436.395215 -172.288054 
L 436.758728 -170.067193 
L 437.149771 -167.846333 
L 437.571077 -165.625472 
L 438.02439 -163.404612 
L 438.509978 -161.183751 
L 439.026132 -158.962891 
L 439.568709 -156.74203 
L 440.130767 -154.52117 
L 440.702347 -152.30031 
L 441.270459 -150.079449 
L 441.819306 -147.858589 
L 442.330784 -145.637728 
L 442.78524 -143.416868 
L 443.16247 -141.196007 
L 443.442891 -138.975147 
L 443.608816 -136.754286 
L 443.645707 -134.533426 
L 443.543311 -132.312565 
L 443.296555 -130.091705 
L 442.906124 -127.870845 
L 442.378641 -125.649984 
L 441.726419 -123.429124 
L 440.966825 -121.208263 
L 440.121266 -118.987403 
L 439.213928 -116.766542 
L 438.270348 -114.545682 
L 437.315966 -112.324821 
L 436.374761 -110.103961 
L 435.468091 -107.8831 
L 434.61381 -105.66224 
L 433.825705 -103.44138 
L 433.11327 -101.220519 
L 432.481797 -98.999659 
L 431.93272 -96.778798 
L 431.464173 -94.557938 
L 431.071652 -92.337077 
L 430.748745 -90.116217 
L 430.487831 -87.895356 
L 430.280719 -85.674496 
L 430.119182 -83.453635 
z
" style="stroke: #3f3f3f; stroke-width: 1.5"/>
    </defs>
    <g clip-path="url(#p6244b15960)">
     <use xlink:href="#mebf76da007" x="0" y="432" style="fill: #e1812c; stroke: #3f3f3f; stroke-width: 1.5"/>
    </g>
   </g>
   <g id="PolyCollection_7">
    <defs>
     <path id="m5ed4e113ed" d="M 516.60816 -81.585043 
L 512.607715 -81.585043 
L 512.064499 -82.236937 
L 511.415124 -82.888831 
L 510.650806 -83.540726 
L 509.765188 -84.19262 
L 508.755127 -84.844514 
L 507.621418 -85.496409 
L 506.369365 -86.148303 
L 505.009133 -86.800198 
L 503.555816 -87.452092 
L 502.029186 -88.103986 
L 500.453092 -88.755881 
L 498.854542 -89.407775 
L 497.262507 -90.059669 
L 495.70653 -90.711564 
L 494.215244 -91.363458 
L 492.814928 -92.015353 
L 491.528212 -92.667247 
L 490.37304 -93.319141 
L 489.361996 -93.971036 
L 488.502015 -94.62293 
L 487.794522 -95.274824 
L 487.235935 -95.926719 
L 486.818495 -96.578613 
L 486.531311 -97.230508 
L 486.361501 -97.882402 
L 486.295335 -98.534296 
L 486.31926 -99.186191 
L 486.42072 -99.838085 
L 486.588743 -100.489979 
L 486.814239 -101.141874 
L 487.090059 -101.793768 
L 487.410825 -102.445663 
L 487.772615 -103.097557 
L 488.172552 -103.749451 
L 488.608388 -104.401346 
L 489.078127 -105.05324 
L 489.579747 -105.705134 
L 490.111039 -106.357029 
L 490.669575 -107.008923 
L 491.252795 -107.660818 
L 491.858174 -108.312712 
L 492.483444 -108.964606 
L 493.126819 -109.616501 
L 493.787185 -110.268395 
L 494.464215 -110.920289 
L 495.158382 -111.572184 
L 495.87086 -112.224078 
L 496.603312 -112.875973 
L 497.357576 -113.527867 
L 498.135273 -114.179761 
L 498.937383 -114.831656 
L 499.763821 -115.48355 
L 500.613061 -116.135444 
L 501.481852 -116.787339 
L 502.365052 -117.439233 
L 503.255619 -118.091128 
L 504.144749 -118.743022 
L 505.022179 -119.394916 
L 505.876619 -120.046811 
L 506.696296 -120.698705 
L 507.469558 -121.350599 
L 508.185505 -122.002494 
L 508.834593 -122.654388 
L 509.409167 -123.306283 
L 509.903896 -123.958177 
L 510.316071 -124.610071 
L 510.645755 -125.261966 
L 510.895784 -125.91386 
L 511.071613 -126.565754 
L 511.18103 -127.217649 
L 511.233758 -127.869543 
L 511.240961 -128.521438 
L 511.214707 -129.173332 
L 511.167385 -129.825226 
L 511.111145 -130.477121 
L 511.057361 -131.129015 
L 511.016157 -131.780909 
L 510.996026 -132.432804 
L 511.003535 -133.084698 
L 511.043165 -133.736593 
L 511.117251 -134.388487 
L 511.22605 -135.040381 
L 511.367914 -135.692276 
L 511.539549 -136.34417 
L 511.736349 -136.996064 
L 511.952771 -137.647959 
L 512.182725 -138.299853 
L 512.419962 -138.951747 
L 512.658419 -139.603642 
L 512.892523 -140.255536 
L 513.117416 -140.907431 
L 513.329119 -141.559325 
L 513.524618 -142.211219 
L 513.701871 -142.863114 
L 513.859772 -143.515008 
L 513.998051 -144.166902 
L 514.117148 -144.818797 
L 514.21807 -145.470691 
L 514.302238 -146.122586 
L 514.913637 -146.122586 
L 514.913637 -146.122586 
L 514.997805 -145.470691 
L 515.098727 -144.818797 
L 515.217824 -144.166902 
L 515.356103 -143.515008 
L 515.514004 -142.863114 
L 515.691257 -142.211219 
L 515.886756 -141.559325 
L 516.098459 -140.907431 
L 516.323352 -140.255536 
L 516.557456 -139.603642 
L 516.795913 -138.951747 
L 517.03315 -138.299853 
L 517.263104 -137.647959 
L 517.479526 -136.996064 
L 517.676326 -136.34417 
L 517.847961 -135.692276 
L 517.989825 -135.040381 
L 518.098624 -134.388487 
L 518.17271 -133.736593 
L 518.21234 -133.084698 
L 518.219849 -132.432804 
L 518.199718 -131.780909 
L 518.158514 -131.129015 
L 518.10473 -130.477121 
L 518.04849 -129.825226 
L 518.001168 -129.173332 
L 517.974914 -128.521438 
L 517.982117 -127.869543 
L 518.034845 -127.217649 
L 518.144262 -126.565754 
L 518.320091 -125.91386 
L 518.57012 -125.261966 
L 518.899804 -124.610071 
L 519.311979 -123.958177 
L 519.806708 -123.306283 
L 520.381282 -122.654388 
L 521.03037 -122.002494 
L 521.746317 -121.350599 
L 522.519579 -120.698705 
L 523.339256 -120.046811 
L 524.193696 -119.394916 
L 525.071126 -118.743022 
L 525.960256 -118.091128 
L 526.850823 -117.439233 
L 527.734023 -116.787339 
L 528.602814 -116.135444 
L 529.452054 -115.48355 
L 530.278492 -114.831656 
L 531.080602 -114.179761 
L 531.858299 -113.527867 
L 532.612563 -112.875973 
L 533.345015 -112.224078 
L 534.057493 -111.572184 
L 534.75166 -110.920289 
L 535.42869 -110.268395 
L 536.089056 -109.616501 
L 536.732431 -108.964606 
L 537.357701 -108.312712 
L 537.96308 -107.660818 
L 538.5463 -107.008923 
L 539.104836 -106.357029 
L 539.636128 -105.705134 
L 540.137748 -105.05324 
L 540.607487 -104.401346 
L 541.043323 -103.749451 
L 541.44326 -103.097557 
L 541.80505 -102.445663 
L 542.125816 -101.793768 
L 542.401636 -101.141874 
L 542.627132 -100.489979 
L 542.795155 -99.838085 
L 542.896615 -99.186191 
L 542.92054 -98.534296 
L 542.854374 -97.882402 
L 542.684564 -97.230508 
L 542.39738 -96.578613 
L 541.97994 -95.926719 
L 541.421353 -95.274824 
L 540.71386 -94.62293 
L 539.853879 -93.971036 
L 538.842835 -93.319141 
L 537.687663 -92.667247 
L 536.400947 -92.015353 
L 535.000631 -91.363458 
L 533.509345 -90.711564 
L 531.953368 -90.059669 
L 530.361333 -89.407775 
L 528.762783 -88.755881 
L 527.186689 -88.103986 
L 525.660059 -87.452092 
L 524.206742 -86.800198 
L 522.84651 -86.148303 
L 521.594457 -85.496409 
L 520.460748 -84.844514 
L 519.450687 -84.19262 
L 518.565069 -83.540726 
L 517.800751 -82.888831 
L 517.151376 -82.236937 
L 516.60816 -81.585043 
z
" style="stroke: #3f3f3f; stroke-width: 1.5"/>
    </defs>
    <g clip-path="url(#p6244b15960)">
     <use xlink:href="#m5ed4e113ed" x="0" y="432" style="fill: #3274a1; stroke: #3f3f3f; stroke-width: 1.5"/>
    </g>
   </g>
   <g id="PolyCollection_8">
    <defs>
     <path id="mcd3144d713" d="M 571.431839 -67.514303 
L 571.034445 -67.514303 
L 570.953896 -70.914085 
L 570.847627 -74.313867 
L 570.71019 -77.71365 
L 570.535943 -81.113432 
L 570.319373 -84.513214 
L 570.055497 -87.912996 
L 569.740335 -91.312778 
L 569.371407 -94.71256 
L 568.94823 -98.112342 
L 568.472757 -101.512124 
L 567.94971 -104.911906 
L 567.386758 -108.311688 
L 566.794493 -111.71147 
L 566.186181 -115.111252 
L 565.57727 -118.511034 
L 564.984672 -121.910816 
L 564.425866 -125.310598 
L 563.917862 -128.71038 
L 563.476152 -132.110163 
L 563.113703 -135.509945 
L 562.840135 -138.909727 
L 562.661136 -142.309509 
L 562.578207 -145.709291 
L 562.588752 -149.109073 
L 562.68649 -152.508855 
L 562.862148 -155.908637 
L 563.104343 -159.308419 
L 563.400524 -162.708201 
L 563.737898 -166.107983 
L 564.104214 -169.507765 
L 564.488363 -172.907547 
L 564.880751 -176.307329 
L 565.273464 -179.707111 
L 565.660263 -183.106893 
L 566.036453 -186.506675 
L 566.398693 -189.906458 
L 566.744798 -193.30624 
L 567.073551 -196.706022 
L 567.384545 -200.105804 
L 567.678049 -203.505586 
L 567.954883 -206.905368 
L 568.216287 -210.30515 
L 568.463767 -213.704932 
L 568.698925 -217.104714 
L 568.923286 -220.504496 
L 569.138126 -223.904278 
L 569.344337 -227.30406 
L 569.542341 -230.703842 
L 569.73207 -234.103624 
L 569.913002 -237.503406 
L 570.084268 -240.903188 
L 570.244788 -244.30297 
L 570.393432 -247.702753 
L 570.529183 -251.102535 
L 570.651266 -254.502317 
L 570.759248 -257.902099 
L 570.853092 -261.301881 
L 570.933155 -264.701663 
L 571.000157 -268.101445 
L 571.055108 -271.501227 
L 571.099214 -274.901009 
L 571.133786 -278.300791 
L 571.160136 -281.700573 
L 571.179494 -285.100355 
L 571.19294 -288.500137 
L 571.201354 -291.899919 
L 571.205386 -295.299701 
L 571.205451 -298.699483 
L 571.201742 -302.099265 
L 571.194261 -305.499048 
L 571.182874 -308.89883 
L 571.167372 -312.298612 
L 571.147555 -315.698394 
L 571.123322 -319.098176 
L 571.094757 -322.497958 
L 571.062211 -325.89774 
L 571.026363 -329.297522 
L 570.988246 -332.697304 
L 570.949241 -336.097086 
L 570.911013 -339.496868 
L 570.875411 -342.89665 
L 570.844332 -346.296432 
L 570.819552 -349.696214 
L 570.802562 -353.095996 
L 570.794422 -356.495778 
L 570.79565 -359.89556 
L 570.806167 -363.295343 
L 570.825308 -366.695125 
L 570.851888 -370.094907 
L 570.884327 -373.494689 
L 570.920804 -376.894471 
L 570.959424 -380.294253 
L 570.998378 -383.694035 
L 571.036077 -387.093817 
L 571.071246 -390.493599 
L 571.102972 -393.893381 
L 571.130709 -397.293163 
L 571.154254 -400.692945 
L 571.17368 -404.092727 
L 571.292604 -404.092727 
L 571.292604 -404.092727 
L 571.31203 -400.692945 
L 571.335575 -397.293163 
L 571.363313 -393.893381 
L 571.395038 -390.493599 
L 571.430207 -387.093817 
L 571.467906 -383.694035 
L 571.50686 -380.294253 
L 571.54548 -376.894471 
L 571.581957 -373.494689 
L 571.614396 -370.094907 
L 571.640976 -366.695125 
L 571.660117 -363.295343 
L 571.670634 -359.89556 
L 571.671862 -356.495778 
L 571.663722 -353.095996 
L 571.646732 -349.696214 
L 571.621952 -346.296432 
L 571.590873 -342.89665 
L 571.555272 -339.496868 
L 571.517043 -336.097086 
L 571.478038 -332.697304 
L 571.439921 -329.297522 
L 571.404073 -325.89774 
L 571.371527 -322.497958 
L 571.342962 -319.098176 
L 571.318729 -315.698394 
L 571.298912 -312.298612 
L 571.28341 -308.89883 
L 571.272023 -305.499048 
L 571.264542 -302.099265 
L 571.260833 -298.699483 
L 571.260899 -295.299701 
L 571.26493 -291.899919 
L 571.273344 -288.500137 
L 571.28679 -285.100355 
L 571.306149 -281.700573 
L 571.332498 -278.300791 
L 571.36707 -274.901009 
L 571.411176 -271.501227 
L 571.466127 -268.101445 
L 571.533129 -264.701663 
L 571.613192 -261.301881 
L 571.707036 -257.902099 
L 571.815018 -254.502317 
L 571.937101 -251.102535 
L 572.072852 -247.702753 
L 572.221496 -244.30297 
L 572.382016 -240.903188 
L 572.553282 -237.503406 
L 572.734215 -234.103624 
L 572.923943 -230.703842 
L 573.121947 -227.30406 
L 573.328158 -223.904278 
L 573.542998 -220.504496 
L 573.767359 -217.104714 
L 574.002517 -213.704932 
L 574.249997 -210.30515 
L 574.511401 -206.905368 
L 574.788235 -203.505586 
L 575.081739 -200.105804 
L 575.392733 -196.706022 
L 575.721486 -193.30624 
L 576.067591 -189.906458 
L 576.429831 -186.506675 
L 576.806021 -183.106893 
L 577.19282 -179.707111 
L 577.585533 -176.307329 
L 577.977921 -172.907547 
L 578.36207 -169.507765 
L 578.728386 -166.107983 
L 579.06576 -162.708201 
L 579.361941 -159.308419 
L 579.604136 -155.908637 
L 579.779795 -152.508855 
L 579.877532 -149.109073 
L 579.888077 -145.709291 
L 579.805148 -142.309509 
L 579.626149 -138.909727 
L 579.352581 -135.509945 
L 578.990133 -132.110163 
L 578.548422 -128.71038 
L 578.040419 -125.310598 
L 577.481612 -121.910816 
L 576.889015 -118.511034 
L 576.280103 -115.111252 
L 575.671791 -111.71147 
L 575.079526 -108.311688 
L 574.516574 -104.911906 
L 573.993527 -101.512124 
L 573.518054 -98.112342 
L 573.094877 -94.71256 
L 572.725949 -91.312778 
L 572.410787 -87.912996 
L 572.146911 -84.513214 
L 571.930341 -81.113432 
L 571.756094 -77.71365 
L 571.618657 -74.313867 
L 571.512388 -70.914085 
L 571.431839 -67.514303 
z
" style="stroke: #3f3f3f; stroke-width: 1.5"/>
    </defs>
    <g clip-path="url(#p6244b15960)">
     <use xlink:href="#mcd3144d713" x="0" y="432" style="fill: #e1812c; stroke: #3f3f3f; stroke-width: 1.5"/>
    </g>
   </g>
   <g id="line2d_6">
    <path d="M 89.918903 325.215734 
L 89.918903 215.637741 
" clip-path="url(#p6244b15960)" style="fill: none; stroke: #3f3f3f; stroke-width: 1.5; stroke-linecap: round"/>
   </g>
   <g id="line2d_7">
    <path d="M 89.918903 304.00709 
L 89.918903 265.124577 
" clip-path="url(#p6244b15960)" style="fill: none; stroke: #3f3f3f; stroke-width: 4.5; stroke-linecap: round"/>
   </g>
   <g id="line2d_8">
    <path d="M 146.544108 325.215734 
L 146.544108 201.498646 
" clip-path="url(#p6244b15960)" style="fill: none; stroke: #3f3f3f; stroke-width: 1.5; stroke-linecap: round"/>
   </g>
   <g id="line2d_9">
    <path d="M 146.544108 300.472316 
L 146.544108 259.822416 
" clip-path="url(#p6244b15960)" style="fill: none; stroke: #3f3f3f; stroke-width: 4.5; stroke-linecap: round"/>
   </g>
   <g id="line2d_10">
    <path d="M 231.481915 332.285282 
L 231.481915 250.985481 
" clip-path="url(#p6244b15960)" style="fill: none; stroke: #3f3f3f; stroke-width: 1.5; stroke-linecap: round"/>
   </g>
   <g id="line2d_11">
    <path d="M 231.481915 314.611412 
L 231.481915 282.798446 
" clip-path="url(#p6244b15960)" style="fill: none; stroke: #3f3f3f; stroke-width: 4.5; stroke-linecap: round"/>
   </g>
   <g id="line2d_12">
    <path d="M 288.107119 328.750508 
L 288.107119 194.429098 
" clip-path="url(#p6244b15960)" style="fill: none; stroke: #3f3f3f; stroke-width: 1.5; stroke-linecap: round"/>
   </g>
   <g id="line2d_13">
    <path d="M 288.107119 304.00709 
L 288.107119 259.822416 
" clip-path="url(#p6244b15960)" style="fill: none; stroke: #3f3f3f; stroke-width: 4.5; stroke-linecap: round"/>
   </g>
   <g id="line2d_14">
    <path d="M 373.044926 328.750508 
L 373.044926 289.867994 
" clip-path="url(#p6244b15960)" style="fill: none; stroke: #3f3f3f; stroke-width: 1.5; stroke-linecap: round"/>
   </g>
   <g id="line2d_15">
    <path d="M 373.044926 321.68096 
L 373.044926 300.472316 
" clip-path="url(#p6244b15960)" style="fill: none; stroke: #3f3f3f; stroke-width: 4.5; stroke-linecap: round"/>
   </g>
   <g id="line2d_16">
    <path d="M 429.670131 314.611412 
L 429.670131 222.707289 
" clip-path="url(#p6244b15960)" style="fill: none; stroke: #3f3f3f; stroke-width: 1.5; stroke-linecap: round"/>
   </g>
   <g id="line2d_17">
    <path d="M 429.670131 304.00709 
L 429.670131 266.00827 
" clip-path="url(#p6244b15960)" style="fill: none; stroke: #3f3f3f; stroke-width: 4.5; stroke-linecap: round"/>
   </g>
   <g id="line2d_18">
    <path d="M 514.607937 339.35483 
L 514.607937 300.472316 
" clip-path="url(#p6244b15960)" style="fill: none; stroke: #3f3f3f; stroke-width: 1.5; stroke-linecap: round"/>
   </g>
   <g id="line2d_19">
    <path d="M 514.607937 335.820056 
L 514.607937 321.68096 
" clip-path="url(#p6244b15960)" style="fill: none; stroke: #3f3f3f; stroke-width: 4.5; stroke-linecap: round"/>
   </g>
   <g id="line2d_20">
    <path d="M 571.233142 318.146186 
L 571.233142 197.963872 
" clip-path="url(#p6244b15960)" style="fill: none; stroke: #3f3f3f; stroke-width: 1.5; stroke-linecap: round"/>
   </g>
   <g id="line2d_21">
    <path d="M 571.233142 291.635381 
L 571.233142 247.450707 
" clip-path="url(#p6244b15960)" style="fill: none; stroke: #3f3f3f; stroke-width: 4.5; stroke-linecap: round"/>
   </g>
   <g id="patch_5">
    <path d="M 47.45 387.16 
L 47.45 10.8 
" style="fill: none; stroke: #cccccc; stroke-width: 0.8; stroke-linejoin: miter; stroke-linecap: square"/>
   </g>
   <g id="patch_6">
    <path d="M 613.702045 387.16 
L 613.702045 10.8 
" style="fill: none; stroke: #cccccc; stroke-width: 0.8; stroke-linejoin: miter; stroke-linecap: square"/>
   </g>
   <g id="patch_7">
    <path d="M 47.45 387.16 
L 613.702045 387.16 
" style="fill: none; stroke: #cccccc; stroke-width: 0.8; stroke-linejoin: miter; stroke-linecap: square"/>
   </g>
   <g id="patch_8">
    <path d="M 47.45 10.8 
L 613.702045 10.8 
" style="fill: none; stroke: #cccccc; stroke-width: 0.8; stroke-linejoin: miter; stroke-linecap: square"/>
   </g>
   <g id="PathCollection_1">
    <defs>
     <path id="m1d42912607" d="M 0 1.5 
C 0.397805 1.5 0.77937 1.341951 1.06066 1.06066 
C 1.341951 0.77937 1.5 0.397805 1.5 0 
C 1.5 -0.397805 1.341951 -0.77937 1.06066 -1.06066 
C 0.77937 -1.341951 0.397805 -1.5 0 -1.5 
C -0.397805 -1.5 -0.77937 -1.341951 -1.06066 -1.06066 
C -1.341951 -0.77937 -1.5 -0.397805 -1.5 0 
C -1.5 0.397805 -1.341951 0.77937 -1.06066 1.06066 
C -0.77937 1.341951 -0.397805 1.5 0 1.5 
z
" style="stroke: #3f3f3f"/>
    </defs>
    <g clip-path="url(#p6244b15960)">
     <use xlink:href="#m1d42912607" x="89.918903" y="289.867994" style="fill: #ffffff; stroke: #3f3f3f"/>
    </g>
   </g>
   <g id="PathCollection_2">
    <g clip-path="url(#p6244b15960)">
     <use xlink:href="#m1d42912607" x="146.544108" y="286.33322" style="fill: #ffffff; stroke: #3f3f3f"/>
    </g>
   </g>
   <g id="PathCollection_3">
    <g clip-path="url(#p6244b15960)">
     <use xlink:href="#m1d42912607" x="231.481915" y="300.472316" style="fill: #ffffff; stroke: #3f3f3f"/>
    </g>
   </g>
   <g id="PathCollection_4">
    <g clip-path="url(#p6244b15960)">
     <use xlink:href="#m1d42912607" x="288.107119" y="282.798446" style="fill: #ffffff; stroke: #3f3f3f"/>
    </g>
   </g>
   <g id="PathCollection_5">
    <g clip-path="url(#p6244b15960)">
     <use xlink:href="#m1d42912607" x="373.044926" y="314.611412" style="fill: #ffffff; stroke: #3f3f3f"/>
    </g>
   </g>
   <g id="PathCollection_6">
    <g clip-path="url(#p6244b15960)">
     <use xlink:href="#m1d42912607" x="429.670131" y="291.635381" style="fill: #ffffff; stroke: #3f3f3f"/>
    </g>
   </g>
   <g id="PathCollection_7">
    <g clip-path="url(#p6244b15960)">
     <use xlink:href="#m1d42912607" x="514.607937" y="328.750508" style="fill: #ffffff; stroke: #3f3f3f"/>
    </g>
   </g>
   <g id="PathCollection_8">
    <g clip-path="url(#p6244b15960)">
     <use xlink:href="#m1d42912607" x="571.233142" y="282.798446" style="fill: #ffffff; stroke: #3f3f3f"/>
    </g>
   </g>
   <g id="legend_1">
    <g id="patch_9">
     <path d="M 531.364545 215.158125 
L 606.702045 215.158125 
Q 608.702045 215.158125 608.702045 213.158125 
L 608.702045 184.801875 
Q 608.702045 182.801875 606.702045 182.801875 
L 531.364545 182.801875 
Q 529.364545 182.801875 529.364545 184.801875 
L 529.364545 213.158125 
Q 529.364545 215.158125 531.364545 215.158125 
z
" style="fill: #ffffff; opacity: 0.8; stroke: #cccccc; stroke-linejoin: miter"/>
    </g>
    <g id="patch_10">
     <path d="M 533.364545 194.400312 
L 553.364545 194.400312 
L 553.364545 187.400312 
L 533.364545 187.400312 
z
" style="fill: #3274a1; stroke: #3f3f3f; stroke-width: 0.75; stroke-linejoin: miter"/>
    </g>
    <g id="text_12">
     <!-- Reduced -->
     <g style="fill: #262626" transform="translate(561.364545 194.400312) scale(0.1 -0.1)">
      <use xlink:href="#DejaVuSans-52"/>
      <use xlink:href="#DejaVuSans-65" x="64.982422"/>
      <use xlink:href="#DejaVuSans-64" x="126.505859"/>
      <use xlink:href="#DejaVuSans-75" x="189.982422"/>
      <use xlink:href="#DejaVuSans-63" x="253.361328"/>
      <use xlink:href="#DejaVuSans-65" x="308.341797"/>
      <use xlink:href="#DejaVuSans-64" x="369.865234"/>
     </g>
    </g>
    <g id="patch_11">
     <path d="M 533.364545 209.078437 
L 553.364545 209.078437 
L 553.364545 202.078437 
L 533.364545 202.078437 
z
" style="fill: #e1812c; stroke: #3f3f3f; stroke-width: 0.75; stroke-linejoin: miter"/>
    </g>
    <g id="text_13">
     <!-- Baseline -->
     <g style="fill: #262626" transform="translate(561.364545 209.078437) scale(0.1 -0.1)">
      <defs>
       <path id="DejaVuSans-42" d="M 1259 2228 
L 1259 519 
L 2272 519 
Q 2781 519 3026 730 
Q 3272 941 3272 1375 
Q 3272 1813 3026 2020 
Q 2781 2228 2272 2228 
L 1259 2228 
z
M 1259 4147 
L 1259 2741 
L 2194 2741 
Q 2656 2741 2882 2914 
Q 3109 3088 3109 3444 
Q 3109 3797 2882 3972 
Q 2656 4147 2194 4147 
L 1259 4147 
z
M 628 4666 
L 2241 4666 
Q 2963 4666 3353 4366 
Q 3744 4066 3744 3513 
Q 3744 3084 3544 2831 
Q 3344 2578 2956 2516 
Q 3422 2416 3680 2098 
Q 3938 1781 3938 1306 
Q 3938 681 3513 340 
Q 3088 0 2303 0 
L 628 0 
L 628 4666 
z
" transform="scale(0.015625)"/>
       <path id="DejaVuSans-6c" d="M 603 4863 
L 1178 4863 
L 1178 0 
L 603 0 
L 603 4863 
z
" transform="scale(0.015625)"/>
      </defs>
      <use xlink:href="#DejaVuSans-42"/>
      <use xlink:href="#DejaVuSans-61" x="68.603516"/>
      <use xlink:href="#DejaVuSans-73" x="129.882812"/>
      <use xlink:href="#DejaVuSans-65" x="181.982422"/>
      <use xlink:href="#DejaVuSans-6c" x="243.505859"/>
      <use xlink:href="#DejaVuSans-69" x="271.289062"/>
      <use xlink:href="#DejaVuSans-6e" x="299.072266"/>
      <use xlink:href="#DejaVuSans-65" x="362.451172"/>
     </g>
    </g>
   </g>
  </g>
  <g id="axes_2">
   <g id="patch_12">
    <path d="M 661.152045 387.16 
L 849.902727 387.16 
L 849.902727 10.8 
L 661.152045 10.8 
z
" style="fill: #ffffff"/>
   </g>
   <g id="matplotlib.axis_3">
    <g id="xtick_5">
     <g id="text_14">
      <!-- 0-20% -->
      <g style="fill: #262626" transform="translate(668.647443 401.758438) scale(0.1 -0.1)">
       <use xlink:href="#DejaVuSans-30"/>
       <use xlink:href="#DejaVuSans-2d" x="63.623047"/>
       <use xlink:href="#DejaVuSans-32" x="99.707031"/>
       <use xlink:href="#DejaVuSans-30" x="163.330078"/>
       <use xlink:href="#DejaVuSans-25" x="226.953125"/>
      </g>
     </g>
    </g>
    <g id="xtick_6">
     <g id="text_15">
      <!-- 20-40% -->
      <g style="fill: #262626" transform="translate(712.653864 401.758438) scale(0.1 -0.1)">
       <use xlink:href="#DejaVuSans-32"/>
       <use xlink:href="#DejaVuSans-30" x="63.623047"/>
       <use xlink:href="#DejaVuSans-2d" x="127.246094"/>
       <use xlink:href="#DejaVuSans-34" x="163.330078"/>
       <use xlink:href="#DejaVuSans-30" x="226.953125"/>
       <use xlink:href="#DejaVuSans-25" x="290.576172"/>
      </g>
     </g>
    </g>
    <g id="xtick_7">
     <g id="text_16">
      <!-- 40-60% -->
      <g style="fill: #262626" transform="translate(759.841534 401.758438) scale(0.1 -0.1)">
       <use xlink:href="#DejaVuSans-34"/>
       <use xlink:href="#DejaVuSans-30" x="63.623047"/>
       <use xlink:href="#DejaVuSans-2d" x="127.246094"/>
       <use xlink:href="#DejaVuSans-36" x="163.330078"/>
       <use xlink:href="#DejaVuSans-30" x="226.953125"/>
       <use xlink:href="#DejaVuSans-25" x="290.576172"/>
      </g>
     </g>
    </g>
    <g id="xtick_8">
     <g id="text_17">
      <!-- 80-100% -->
      <g style="fill: #262626" transform="translate(803.847955 401.758438) scale(0.1 -0.1)">
       <use xlink:href="#DejaVuSans-38"/>
       <use xlink:href="#DejaVuSans-30" x="63.623047"/>
       <use xlink:href="#DejaVuSans-2d" x="127.246094"/>
       <use xlink:href="#DejaVuSans-31" x="163.330078"/>
       <use xlink:href="#DejaVuSans-30" x="226.953125"/>
       <use xlink:href="#DejaVuSans-30" x="290.576172"/>
       <use xlink:href="#DejaVuSans-25" x="354.199219"/>
      </g>
     </g>
    </g>
    <g id="text_18">
     <!-- Percentage Reduction Range -->
     <g style="fill: #262626" transform="translate(683.38598 415.436563) scale(0.1 -0.1)">
      <use xlink:href="#DejaVuSans-50"/>
      <use xlink:href="#DejaVuSans-65" x="56.677734"/>
      <use xlink:href="#DejaVuSans-72" x="118.201172"/>
      <use xlink:href="#DejaVuSans-63" x="157.064453"/>
      <use xlink:href="#DejaVuSans-65" x="212.044922"/>
      <use xlink:href="#DejaVuSans-6e" x="273.568359"/>
      <use xlink:href="#DejaVuSans-74" x="336.947266"/>
      <use xlink:href="#DejaVuSans-61" x="376.15625"/>
      <use xlink:href="#DejaVuSans-67" x="437.435547"/>
      <use xlink:href="#DejaVuSans-65" x="500.912109"/>
      <use xlink:href="#DejaVuSans-20" x="562.435547"/>
      <use xlink:href="#DejaVuSans-52" x="594.222656"/>
      <use xlink:href="#DejaVuSans-65" x="659.205078"/>
      <use xlink:href="#DejaVuSans-64" x="720.728516"/>
      <use xlink:href="#DejaVuSans-75" x="784.205078"/>
      <use xlink:href="#DejaVuSans-63" x="847.583984"/>
      <use xlink:href="#DejaVuSans-74" x="902.564453"/>
      <use xlink:href="#DejaVuSans-69" x="941.773438"/>
      <use xlink:href="#DejaVuSans-6f" x="969.556641"/>
      <use xlink:href="#DejaVuSans-6e" x="1030.738281"/>
      <use xlink:href="#DejaVuSans-20" x="1094.117188"/>
      <use xlink:href="#DejaVuSans-52" x="1125.904297"/>
      <use xlink:href="#DejaVuSans-61" x="1193.136719"/>
      <use xlink:href="#DejaVuSans-6e" x="1254.416016"/>
      <use xlink:href="#DejaVuSans-67" x="1317.794922"/>
      <use xlink:href="#DejaVuSans-65" x="1381.271484"/>
     </g>
    </g>
   </g>
   <g id="matplotlib.axis_4">
    <g id="ytick_6">
     <g id="line2d_22">
      <path d="M 661.152045 387.16 
L 849.902727 387.16 
" clip-path="url(#pe9aa5b8194)" style="fill: none; stroke: #cccccc; stroke-width: 0.8; stroke-linecap: round"/>
     </g>
     <g id="text_19">
      <!-- 0 -->
      <g style="fill: #262626" transform="translate(647.789545 390.959219) scale(0.1 -0.1)">
       <use xlink:href="#DejaVuSans-30"/>
      </g>
     </g>
    </g>
    <g id="ytick_7">
     <g id="line2d_23">
      <path d="M 661.152045 322.787444 
L 849.902727 322.787444 
" clip-path="url(#pe9aa5b8194)" style="fill: none; stroke: #cccccc; stroke-width: 0.8; stroke-linecap: round"/>
     </g>
     <g id="text_20">
      <!-- 5 -->
      <g style="fill: #262626" transform="translate(647.789545 326.586663) scale(0.1 -0.1)">
       <defs>
        <path id="DejaVuSans-35" d="M 691 4666 
L 3169 4666 
L 3169 4134 
L 1269 4134 
L 1269 2991 
Q 1406 3038 1543 3061 
Q 1681 3084 1819 3084 
Q 2600 3084 3056 2656 
Q 3513 2228 3513 1497 
Q 3513 744 3044 326 
Q 2575 -91 1722 -91 
Q 1428 -91 1123 -41 
Q 819 9 494 109 
L 494 744 
Q 775 591 1075 516 
Q 1375 441 1709 441 
Q 2250 441 2565 725 
Q 2881 1009 2881 1497 
Q 2881 1984 2565 2268 
Q 2250 2553 1709 2553 
Q 1456 2553 1204 2497 
Q 953 2441 691 2322 
L 691 4666 
z
" transform="scale(0.015625)"/>
       </defs>
       <use xlink:href="#DejaVuSans-35"/>
      </g>
     </g>
    </g>
    <g id="ytick_8">
     <g id="line2d_24">
      <path d="M 661.152045 258.414888 
L 849.902727 258.414888 
" clip-path="url(#pe9aa5b8194)" style="fill: none; stroke: #cccccc; stroke-width: 0.8; stroke-linecap: round"/>
     </g>
     <g id="text_21">
      <!-- 10 -->
      <g style="fill: #262626" transform="translate(641.427045 262.214107) scale(0.1 -0.1)">
       <use xlink:href="#DejaVuSans-31"/>
       <use xlink:href="#DejaVuSans-30" x="63.623047"/>
      </g>
     </g>
    </g>
    <g id="ytick_9">
     <g id="line2d_25">
      <path d="M 661.152045 194.042332 
L 849.902727 194.042332 
" clip-path="url(#pe9aa5b8194)" style="fill: none; stroke: #cccccc; stroke-width: 0.8; stroke-linecap: round"/>
     </g>
     <g id="text_22">
      <!-- 15 -->
      <g style="fill: #262626" transform="translate(641.427045 197.841551) scale(0.1 -0.1)">
       <use xlink:href="#DejaVuSans-31"/>
       <use xlink:href="#DejaVuSans-35" x="63.623047"/>
      </g>
     </g>
    </g>
    <g id="ytick_10">
     <g id="line2d_26">
      <path d="M 661.152045 129.669776 
L 849.902727 129.669776 
" clip-path="url(#pe9aa5b8194)" style="fill: none; stroke: #cccccc; stroke-width: 0.8; stroke-linecap: round"/>
     </g>
     <g id="text_23">
      <!-- 20 -->
      <g style="fill: #262626" transform="translate(641.427045 133.468995) scale(0.1 -0.1)">
       <use xlink:href="#DejaVuSans-32"/>
       <use xlink:href="#DejaVuSans-30" x="63.623047"/>
      </g>
     </g>
    </g>
    <g id="ytick_11">
     <g id="line2d_27">
      <path d="M 661.152045 65.297221 
L 849.902727 65.297221 
" clip-path="url(#pe9aa5b8194)" style="fill: none; stroke: #cccccc; stroke-width: 0.8; stroke-linecap: round"/>
     </g>
     <g id="text_24">
      <!-- 25 -->
      <g style="fill: #262626" transform="translate(641.427045 69.096439) scale(0.1 -0.1)">
       <use xlink:href="#DejaVuSans-32"/>
       <use xlink:href="#DejaVuSans-35" x="63.623047"/>
      </g>
     </g>
    </g>
    <g id="text_25">
     <!-- Percentage of Videos [%] -->
     <g style="fill: #262626" transform="translate(634.93142 274.548125) rotate(-90) scale(0.12 -0.12)">
      <use xlink:href="#DejaVuSans-50"/>
      <use xlink:href="#DejaVuSans-65" x="56.677734"/>
      <use xlink:href="#DejaVuSans-72" x="118.201172"/>
      <use xlink:href="#DejaVuSans-63" x="157.064453"/>
      <use xlink:href="#DejaVuSans-65" x="212.044922"/>
      <use xlink:href="#DejaVuSans-6e" x="273.568359"/>
      <use xlink:href="#DejaVuSans-74" x="336.947266"/>
      <use xlink:href="#DejaVuSans-61" x="376.15625"/>
      <use xlink:href="#DejaVuSans-67" x="437.435547"/>
      <use xlink:href="#DejaVuSans-65" x="500.912109"/>
      <use xlink:href="#DejaVuSans-20" x="562.435547"/>
      <use xlink:href="#DejaVuSans-6f" x="594.222656"/>
      <use xlink:href="#DejaVuSans-66" x="655.404297"/>
      <use xlink:href="#DejaVuSans-20" x="690.609375"/>
      <use xlink:href="#DejaVuSans-56" x="722.396484"/>
      <use xlink:href="#DejaVuSans-69" x="788.554688"/>
      <use xlink:href="#DejaVuSans-64" x="816.337891"/>
      <use xlink:href="#DejaVuSans-65" x="879.814453"/>
      <use xlink:href="#DejaVuSans-6f" x="941.337891"/>
      <use xlink:href="#DejaVuSans-73" x="1002.519531"/>
      <use xlink:href="#DejaVuSans-20" x="1054.619141"/>
      <use xlink:href="#DejaVuSans-5b" x="1086.40625"/>
      <use xlink:href="#DejaVuSans-25" x="1125.419922"/>
      <use xlink:href="#DejaVuSans-5d" x="1220.439453"/>
     </g>
    </g>
   </g>
   <g id="patch_13">
    <path d="M 670.58958 387.16 
L 698.902182 387.16 
L 698.902182 28.721905 
L 670.58958 28.721905 
z
" clip-path="url(#pe9aa5b8194)" style="fill: #3274a1"/>
   </g>
   <g id="patch_14">
    <path d="M 717.77725 387.16 
L 746.089852 387.16 
L 746.089852 253.050509 
L 717.77725 253.050509 
z
" clip-path="url(#pe9aa5b8194)" style="fill: #e1812c"/>
   </g>
   <g id="patch_15">
    <path d="M 764.96492 387.16 
L 793.277523 387.16 
L 793.277523 314.009368 
L 764.96492 314.009368 
z
" clip-path="url(#pe9aa5b8194)" style="fill: #3a923a"/>
   </g>
   <g id="patch_16">
    <path d="M 812.152591 387.16 
L 840.465193 387.16 
L 840.465193 309.13266 
L 812.152591 309.13266 
z
" clip-path="url(#pe9aa5b8194)" style="fill: #c03d3e"/>
   </g>
   <g id="line2d_28">
    <path d="M 684.745881 28.721905 
L 684.745881 28.721905 
" clip-path="url(#pe9aa5b8194)" style="fill: none; stroke: #424242; stroke-width: 2.7; stroke-linecap: round"/>
   </g>
   <g id="line2d_29">
    <path d="M 731.933551 253.050509 
L 731.933551 253.050509 
" clip-path="url(#pe9aa5b8194)" style="fill: none; stroke: #424242; stroke-width: 2.7; stroke-linecap: round"/>
   </g>
   <g id="line2d_30">
    <path d="M 779.121222 314.009368 
L 779.121222 314.009368 
" clip-path="url(#pe9aa5b8194)" style="fill: none; stroke: #424242; stroke-width: 2.7; stroke-linecap: round"/>
   </g>
   <g id="line2d_31">
    <path d="M 826.308892 309.13266 
L 826.308892 309.13266 
" clip-path="url(#pe9aa5b8194)" style="fill: none; stroke: #424242; stroke-width: 2.7; stroke-linecap: round"/>
   </g>
   <g id="patch_17">
    <path d="M 661.152045 387.16 
L 661.152045 10.8 
" style="fill: none; stroke: #cccccc; stroke-width: 0.8; stroke-linejoin: miter; stroke-linecap: square"/>
   </g>
   <g id="patch_18">
    <path d="M 849.902727 387.16 
L 849.902727 10.8 
" style="fill: none; stroke: #cccccc; stroke-width: 0.8; stroke-linejoin: miter; stroke-linecap: square"/>
   </g>
   <g id="patch_19">
    <path d="M 661.152045 387.16 
L 849.902727 387.16 
" style="fill: none; stroke: #cccccc; stroke-width: 0.8; stroke-linejoin: miter; stroke-linecap: square"/>
   </g>
   <g id="patch_20">
    <path d="M 661.152045 10.8 
L 849.902727 10.8 
" style="fill: none; stroke: #cccccc; stroke-width: 0.8; stroke-linejoin: miter; stroke-linecap: square"/>
   </g>
  </g>
 </g>
 <defs>
  <clipPath id="p6244b15960">
   <rect x="47.45" y="10.8" width="566.252045" height="376.36"/>
  </clipPath>
  <clipPath id="pe9aa5b8194">
   <rect x="661.152045" y="10.8" width="188.750682" height="376.36"/>
  </clipPath>
 </defs>
</svg>
